<svg xmlns="http://www.w3.org/2000/svg" xmlns:xlink="http://www.w3.org/1999/xlink" id="Layer_2" viewBox="0 0 420.71 363.1"><defs><style>.cls-1{fill:#cde6f6;}.cls-2{fill:url(#linear-gradient-2);}.cls-3{fill:#4cbbdf;}.cls-4{fill:#3daec8;}.cls-5{fill:#fff;}.cls-6{fill:#005b96;}.cls-7{fill:#3a4869;}.cls-8{fill:#2d5f9e;}.cls-9{fill:#25578e;}.cls-10{fill:#427dc0;}.cls-11{fill:none;stroke:#3a4868;stroke-dasharray:3.84 3.84;stroke-width:1.92px;}.cls-12{fill:url(#linear-gradient);opacity:.19;}</style><linearGradient id="linear-gradient" x1="87.9" y1="718.1" x2="354.1" y2="718.1" gradientTransform="translate(0 847.95) scale(1 -1)" gradientUnits="userSpaceOnUse"><stop offset="0" stop-color="#6ac9cf"></stop><stop offset="1" stop-color="#214896"></stop></linearGradient><linearGradient id="linear-gradient-2" x1="205.35" y1="593.02" x2="150.84" y2="647.52" gradientTransform="translate(-476.63 449.8) rotate(45) scale(1 -1)" gradientUnits="userSpaceOnUse"><stop offset="0" stop-color="#67c9cf"></stop><stop offset="1" stop-color="#1f4695"></stop></linearGradient></defs><g id="Layer_1-2"><path class="cls-5" d="M0,9.66C0,4.32,4.3,0,9.61,0h401.5c5.3,0,9.61,4.32,9.61,9.66v343.77c0,5.34-4.3,9.66-9.61,9.66H9.61c-5.3,0-9.61-4.32-9.61-9.66V9.66Z"></path><path class="cls-11" d="M57.63,306.81h305.45"></path><path class="cls-7" d="M68.01,336.16v-14.75h9.7v2.3h-6.85v3.86h6.22v2.21h-6.22v4.09h6.85v2.3h-9.7Z"></path><path class="cls-7" d="M80.23,336.16v-15.18h2.84v15.18h-2.84Z"></path><path class="cls-7" d="M87.36,324.08c-.51,0-.92-.15-1.25-.45-.33-.3-.5-.68-.5-1.15s.16-.85.5-1.15c.33-.3.75-.45,1.25-.45s.95.15,1.28.45c.33.3.5.68.5,1.15s-.17.85-.5,1.15c-.33.3-.76.45-1.28.45ZM85.92,336.16v-10.62h2.85v10.62h-2.85Z"></path><path class="cls-7" d="M91.64,336.16v-10.62h2.51l.23,1.41c.34-.51.78-.91,1.34-1.21.55-.3,1.19-.45,1.91-.45.53,0,1.01.07,1.43.21s.8.34,1.13.61c.33.27.6.6.81,1.01.39-.58.91-1.03,1.54-1.35.63-.32,1.32-.48,2.07-.48.93,0,1.7.19,2.32.56.62.37,1.08.91,1.4,1.61.32.7.47,1.57.47,2.59v6.11h-2.82v-5.86c0-.84-.17-1.49-.5-1.94-.33-.45-.84-.67-1.53-.67-.45,0-.85.11-1.2.34s-.62.55-.81.97c-.19.42-.28.93-.28,1.52v5.65h-2.85v-5.86c0-.84-.17-1.49-.51-1.94-.34-.45-.86-.67-1.56-.67-.44,0-.83.11-1.17.34-.34.22-.61.55-.8.97-.19.42-.29.93-.29,1.52v5.65h-2.84Z"></path><path class="cls-7" d="M112.97,324.08c-.51,0-.92-.15-1.25-.45-.33-.3-.5-.68-.5-1.15s.16-.85.5-1.15c.33-.3.75-.45,1.25-.45s.95.15,1.28.45c.33.3.5.68.5,1.15s-.17.85-.5,1.15c-.33.3-.76.45-1.28.45ZM111.53,336.16v-10.62h2.85v10.62h-2.85Z"></path><path class="cls-7" d="M117.25,336.16v-10.62h2.51l.21,1.73c.32-.59.78-1.07,1.38-1.43.6-.37,1.31-.55,2.14-.55.89,0,1.63.18,2.23.55s1.06.9,1.38,1.6c.32.7.47,1.57.47,2.59v6.13h-2.83v-5.86c0-.84-.18-1.49-.54-1.94-.36-.45-.91-.67-1.65-.67-.48,0-.9.11-1.28.34-.37.22-.66.54-.88.96-.21.41-.32.92-.32,1.51v5.67h-2.84Z"></path><path class="cls-7" d="M133.84,336.41c-.89,0-1.62-.14-2.19-.43-.58-.29-1-.67-1.28-1.16-.27-.48-.41-1.02-.41-1.61,0-.65.17-1.21.5-1.71.33-.49.83-.88,1.5-1.16.67-.28,1.51-.42,2.52-.42h2.63c0-.52-.07-.95-.21-1.3s-.36-.6-.65-.77c-.29-.17-.69-.25-1.18-.25-.53,0-.99.12-1.36.35-.37.23-.6.59-.68,1.06h-2.76c.07-.76.32-1.42.75-1.97.43-.55,1-.99,1.71-1.3.71-.31,1.5-.46,2.37-.46,1,0,1.86.17,2.59.51.73.34,1.29.82,1.69,1.45.39.63.59,1.41.59,2.34v6.58h-2.4l-.32-1.62c-.16.28-.34.53-.55.76-.21.22-.46.42-.74.59-.28.17-.6.3-.95.39-.35.09-.74.14-1.16.14ZM134.51,334.22c.37,0,.69-.07.98-.2.29-.13.54-.32.75-.55.21-.23.38-.5.5-.8.12-.3.2-.63.24-.98v-.02h-2.17c-.44,0-.79.05-1.06.16-.27.1-.47.26-.6.45-.13.2-.19.42-.19.67,0,.28.06.51.19.7.13.18.31.32.55.42.24.1.51.15.82.15Z"></path><path class="cls-7" d="M147.26,336.16c-.75,0-1.39-.12-1.95-.35-.56-.23-.99-.62-1.3-1.16-.31-.54-.46-1.28-.46-2.22v-4.51h-1.81v-2.38h1.81l.32-2.89h2.53v2.89h2.8v2.38h-2.8v4.55c0,.48.11.81.32.99s.57.27,1.08.27h1.39v2.42h-1.92Z"></path><path class="cls-7" d="M156.43,336.41c-1.07,0-2.01-.23-2.83-.68-.82-.46-1.46-1.1-1.92-1.92-.46-.82-.69-1.77-.69-2.86s.22-2.09.67-2.94c.45-.85,1.08-1.52,1.91-2,.82-.48,1.77-.73,2.86-.73s1.97.23,2.76.7,1.4,1.09,1.83,1.88.65,1.68.65,2.68v.47c0,.18-.01.35-.04.54h-8.62v-1.73h5.8c-.04-.69-.29-1.23-.73-1.62-.44-.39-.99-.59-1.65-.59-.48,0-.92.11-1.33.33s-.73.55-.96,1c-.23.45-.35,1.02-.35,1.71v.61c0,.58.11,1.08.33,1.51s.52.76.92.99c.39.23.85.35,1.37.35s.95-.11,1.3-.34c.34-.22.6-.51.77-.86h2.91c-.2.66-.53,1.26-.99,1.79-.46.53-1.03.96-1.71,1.26-.67.31-1.43.46-2.25.46Z"></path><path class="cls-7" d="M175.65,336.41c-1.48,0-2.74-.32-3.8-.96-1.06-.64-1.88-1.53-2.45-2.68s-.85-2.47-.85-3.97.28-2.83.85-3.98,1.38-2.05,2.45-2.7c1.06-.65,2.33-.97,3.8-.97,1.78,0,3.25.44,4.38,1.33,1.14.89,1.85,2.14,2.13,3.75h-3.1c-.18-.79-.57-1.4-1.15-1.84-.58-.44-1.35-.66-2.29-.66-.87,0-1.62.21-2.25.62-.62.42-1.11,1-1.44,1.75s-.51,1.65-.51,2.71.17,1.94.51,2.7.82,1.34,1.44,1.75c.62.41,1.37.61,2.25.61.94,0,1.7-.21,2.28-.62.58-.42.96-.99,1.14-1.74h3.12c-.28,1.53-.99,2.73-2.13,3.6-1.14.87-2.6,1.31-4.38,1.31Z"></path><path class="cls-7" d="M189.54,336.41c-1.01,0-1.92-.24-2.73-.71-.81-.47-1.45-1.12-1.92-1.96s-.71-1.79-.71-2.88.24-2.08.71-2.92,1.11-1.49,1.93-1.96,1.73-.71,2.74-.71,1.94.24,2.75.71c.81.47,1.45,1.12,1.92,1.96s.71,1.8.71,2.9-.24,2.06-.71,2.9-1.11,1.49-1.93,1.96c-.82.47-1.74.71-2.76.71ZM189.54,333.94c.48,0,.9-.11,1.28-.34.37-.22.67-.57.89-1.03s.33-1.04.33-1.73-.11-1.26-.33-1.72-.51-.8-.89-1.03c-.37-.23-.79-.35-1.25-.35s-.86.12-1.24.35c-.38.23-.68.58-.9,1.03s-.33,1.03-.33,1.72.11,1.26.33,1.73.51.81.89,1.03c.37.23.78.34,1.23.34Z"></path><path class="cls-7" d="M201.73,336.41c-.97,0-1.81-.16-2.53-.46s-1.28-.74-1.69-1.29c-.41-.55-.64-1.17-.7-1.86h2.82c.07.27.19.51.36.73s.39.39.67.52c.28.13.62.19,1.01.19s.69-.05.93-.16.42-.25.54-.43c.12-.18.18-.37.18-.57,0-.29-.08-.52-.25-.69-.17-.16-.41-.29-.74-.39s-.72-.2-1.18-.29c-.51-.1-1-.22-1.49-.37-.48-.15-.92-.33-1.3-.56-.38-.22-.68-.51-.91-.86-.22-.35-.34-.79-.34-1.31,0-.63.17-1.2.51-1.7.34-.5.83-.9,1.47-1.19s1.43-.44,2.34-.44c1.28,0,2.29.29,3.04.86s1.19,1.37,1.33,2.38h-2.68c-.08-.32-.27-.58-.56-.77s-.67-.29-1.15-.29c-.51,0-.89.09-1.16.27-.27.18-.4.42-.4.72,0,.2.09.37.26.53.18.16.42.29.75.39s.72.21,1.18.31c.82.17,1.53.36,2.15.58.62.22,1.1.53,1.45.93.35.4.53.98.53,1.74,0,.67-.18,1.27-.55,1.8s-.88.94-1.55,1.23c-.67.29-1.46.44-2.37.44Z"></path><path class="cls-7" d="M213.07,336.16c-.75,0-1.39-.12-1.95-.35-.56-.23-.99-.62-1.3-1.16-.31-.54-.46-1.28-.46-2.22v-4.51h-1.81v-2.38h1.81l.32-2.89h2.53v2.89h2.8v2.38h-2.8v4.55c0,.48.11.81.32.99s.57.27,1.08.27h1.39v2.42h-1.92Z"></path><path class="cls-7" d="M217.41,336.16v-15.18h2.84v15.18h-2.84Z"></path><path class="cls-7" d="M224.38,340.79l2.57-5.82h-.63l-4.26-9.44h3.1l3.04,6.85,2.74-6.85h3.01l-6.56,15.26h-3.01Z"></path><path class="cls-7" d="M240.78,336.16v-14.75h6.05c1.03,0,1.89.16,2.59.49.7.32,1.23.77,1.59,1.34.36.57.54,1.23.54,1.97s-.16,1.37-.49,1.88-.75.9-1.28,1.17c-.53.27-1.11.43-1.74.47l.34-.23c.67.03,1.28.21,1.8.54.53.33.94.77,1.24,1.32.3.55.45,1.15.45,1.79,0,.79-.19,1.48-.57,2.09-.38.6-.93,1.08-1.64,1.42-.72.34-1.6.52-2.63.52h-6.26ZM243.63,327.56h2.74c.75,0,1.31-.17,1.7-.51.39-.34.58-.82.58-1.43s-.19-1.08-.58-1.42c-.39-.34-.96-.52-1.72-.52h-2.72v3.88ZM243.63,333.84h2.95c.77,0,1.37-.18,1.79-.53.42-.35.63-.86.63-1.52s-.22-1.18-.65-1.55-1.04-.56-1.81-.56h-2.91v4.15Z"></path><path class="cls-7" d="M254.17,336.16v-10.62h2.53l.27,1.96c.25-.46.57-.86.96-1.18.39-.32.83-.58,1.33-.76s1.05-.27,1.65-.27v3.01h-.97c-.42,0-.81.05-1.17.15-.36.1-.67.26-.94.47s-.47.52-.61.9c-.14.38-.21.86-.21,1.43v4.91h-2.84Z"></path><path class="cls-7" d="M267.72,336.41c-1.07,0-2.01-.23-2.83-.68-.82-.46-1.46-1.1-1.92-1.92-.46-.82-.69-1.77-.69-2.86s.22-2.09.67-2.94c.45-.85,1.08-1.52,1.91-2,.82-.48,1.77-.73,2.86-.73s1.97.23,2.76.7,1.4,1.09,1.83,1.88.65,1.68.65,2.68v.47c0,.18-.01.35-.04.54h-8.62v-1.73h5.8c-.04-.69-.29-1.23-.73-1.62-.44-.39-.99-.59-1.65-.59-.48,0-.92.11-1.33.33s-.73.55-.96,1c-.23.45-.35,1.02-.35,1.71v.61c0,.58.11,1.08.33,1.51s.52.76.92.99c.39.23.85.35,1.37.35s.95-.11,1.3-.34c.34-.22.6-.51.77-.86h2.91c-.2.66-.53,1.26-.99,1.79-.46.53-1.03.96-1.71,1.26-.67.31-1.43.46-2.25.46Z"></path><path class="cls-7" d="M278.89,336.41c-.89,0-1.62-.14-2.19-.43-.58-.29-1-.67-1.28-1.16-.27-.48-.41-1.02-.41-1.61,0-.65.17-1.21.5-1.71.33-.49.83-.88,1.5-1.16.67-.28,1.51-.42,2.52-.42h2.63c0-.52-.07-.95-.21-1.3s-.36-.6-.65-.77c-.29-.17-.69-.25-1.18-.25-.53,0-.99.12-1.36.35-.37.23-.6.59-.68,1.06h-2.76c.07-.76.32-1.42.75-1.97.43-.55,1-.99,1.71-1.3.71-.31,1.5-.46,2.37-.46,1,0,1.86.17,2.59.51.73.34,1.29.82,1.69,1.45.39.63.59,1.41.59,2.34v6.58h-2.4l-.32-1.62c-.16.28-.34.53-.55.76-.21.22-.46.42-.74.59-.28.17-.6.3-.95.39-.35.09-.74.14-1.16.14ZM279.57,334.22c.37,0,.69-.07.98-.2.29-.13.54-.32.75-.55.21-.23.38-.5.5-.8.12-.3.2-.63.24-.98v-.02h-2.17c-.44,0-.79.05-1.06.16-.27.1-.47.26-.6.45-.13.2-.19.42-.19.67,0,.28.06.51.19.7.13.18.31.32.55.42.24.1.51.15.82.15Z"></path><path class="cls-7" d="M287.66,336.16v-15.18h2.84v15.18h-2.84ZM294.62,336.16l-4.53-5.82,4.07-4.81h3.35l-5.25,6.01v-2.25l5.9,6.87h-3.54Z"></path><path class="cls-7" d="M303.68,336.41c-.97,0-1.84-.24-2.6-.72-.77-.48-1.37-1.14-1.8-1.98-.44-.84-.65-1.79-.65-2.85s.22-2.04.66-2.88c.44-.84,1.05-1.5,1.83-1.98.78-.48,1.65-.73,2.62-.73.76,0,1.43.14,2,.42.58.28,1.04.68,1.39,1.2v-5.92h2.85v15.18h-2.53l-.32-1.45c-.21.29-.47.58-.79.84-.32.27-.69.48-1.13.63-.44.15-.95.23-1.54.23ZM304.35,333.92c.56,0,1.06-.13,1.49-.39.43-.26.76-.62,1-1.09.24-.46.36-1,.36-1.6s-.12-1.14-.36-1.6c-.24-.46-.57-.83-1-1.08-.43-.26-.92-.39-1.49-.39s-1.02.13-1.45.39-.78.62-1.02,1.08c-.25.46-.37.99-.37,1.58,0,.62.12,1.16.37,1.62.25.46.58.83,1.01,1.09s.92.39,1.46.39Z"></path><path class="cls-7" d="M317.78,336.41c-1.01,0-1.92-.24-2.73-.71-.81-.47-1.45-1.12-1.92-1.96s-.71-1.79-.71-2.88.24-2.08.71-2.92,1.11-1.49,1.93-1.96,1.73-.71,2.74-.71,1.94.24,2.75.71c.81.47,1.45,1.12,1.92,1.96s.71,1.8.71,2.9-.24,2.06-.71,2.9-1.11,1.49-1.93,1.96c-.82.47-1.74.71-2.76.71ZM317.78,333.94c.48,0,.9-.11,1.28-.34.37-.22.67-.57.89-1.03s.33-1.04.33-1.73-.11-1.26-.33-1.72-.51-.8-.89-1.03c-.37-.23-.79-.35-1.25-.35s-.86.12-1.24.35c-.38.23-.68.58-.9,1.03s-.33,1.03-.33,1.72.11,1.26.33,1.73.51.81.89,1.03c.37.23.78.34,1.23.34Z"></path><path class="cls-7" d="M327.35,336.16l-3.12-10.62h2.8l2.07,8.62-.53-.02,2.36-8.6h3.16l2.36,8.6-.55.02,2.09-8.62h2.8l-3.12,10.62h-2.95l-2.51-8.85h.59l-2.51,8.85h-2.95Z"></path><path class="cls-7" d="M342.55,336.16v-10.62h2.51l.21,1.73c.32-.59.78-1.07,1.38-1.43.6-.37,1.31-.55,2.14-.55.89,0,1.63.18,2.23.55s1.06.9,1.38,1.6c.32.7.47,1.57.47,2.59v6.13h-2.83v-5.86c0-.84-.18-1.49-.54-1.94-.36-.45-.91-.67-1.65-.67-.48,0-.9.11-1.28.34-.37.22-.66.54-.88.96-.21.41-.32.92-.32,1.51v5.67h-2.84Z"></path><polygon class="cls-12" points="354.1 196.41 316.17 186.25 325.18 177.24 274 126.05 237.08 162.97 161.71 87.6 128.46 120.84 87.9 63.29 128.46 101.19 161.71 67.95 237.08 143.32 274 106.4 335.01 167.41 343.94 158.48 354.1 196.41"></polygon><path class="cls-4" d="M116.49,235.74c-3.35,2.64-10.23,4.5-18.24,4.58-8.34.08-15.53-1.81-18.75-4.58-.6-.52-1.08-1.06-1.38-1.64-.28-.51-.41-1.04-.43-1.58v3.23c.05,4.41,9.23,7.91,20.54,7.81,10.97-.11,19.88-3.56,20.36-7.81h.05v-3.61c0,.57-.14,1.12-.43,1.64-.35.69-.95,1.34-1.74,1.95l.02.02Z"></path><path class="cls-3" d="M118.6,231.74h0c-.58.11-1.21.22-1.84.32-.66.11-1.37.22-2.07.31-.08,1.23-1.04,2.4-2.67,3.38-2.93,1.78-7.99,2.98-13.77,3.03-6.04.06-11.32-1.17-14.23-3.03-1.4-.89-2.23-1.94-2.32-3.07-.55-.06-1.09-.14-1.61-.2-.17-.03-.34-.05-.51-.08-.61-.09-1.23-.18-1.8-.28.11-.98.69-1.94,1.64-2.81-1.09.98-1.71,2.07-1.69,3.2,0,.54.15,1.08.43,1.58.31.57.78,1.12,1.38,1.64,3.21,2.77,10.4,4.66,18.75,4.58,8.01-.08,14.89-1.94,18.24-4.58.78-.61,1.38-1.28,1.74-1.95.28-.54.43-1.09.43-1.64,0-.14-.03-.26-.06-.38h0l-.03-.02Z"></path><path class="cls-1" d="M79.57,232.4c.17.03.34.05.51.08.52.08,1.06.14,1.61.2,0-.06-.03-.12-.03-.2v-.03c0-.63.25-1.23.66-1.81,2-2.69,8.3-4.69,15.78-4.76,7.53-.08,13.87,1.84,15.9,4.5.34.46.55.94.63,1.43.02.12.05.23.05.35,0,.06-.02.12-.03.2.71-.09,1.41-.2,2.07-.31.63-.11,1.26-.2,1.84-.32h0s-.03-.08-.03-.12c-.22-1.28-1.18-2.46-2.75-3.49,0,0-.02,0-.03-.02-.31-.2-.65-.4-1-.58-.03,0-.06-.03-.09-.05-.34-.18-.71-.35-1.09-.52-.05-.03-.11-.05-.17-.06-.37-.15-.74-.31-1.14-.46-.09-.03-.18-.06-.26-.09-.37-.14-.75-.26-1.15-.38-.12-.03-.26-.08-.38-.11-.37-.11-.75-.22-1.15-.31-.17-.05-.35-.08-.54-.12-.37-.09-.74-.17-1.12-.25-.23-.05-.46-.08-.69-.12-.35-.06-.71-.12-1.06-.18-.28-.05-.57-.08-.86-.11-.32-.05-.66-.09-.98-.12-.34-.03-.68-.06-1.03-.09-.31-.03-.6-.06-.91-.08-.41-.03-.85-.05-1.28-.06-.25,0-.48-.03-.72-.03-.68-.02-1.37-.03-2.06-.02-.69,0-1.38.03-2.06.06-.25,0-.49.03-.72.05-.43.03-.85.05-1.28.09-.31.03-.6.06-.91.09-.34.03-.69.06-1.01.11-.34.05-.66.09-.98.15-.29.05-.57.08-.86.12-.35.06-.71.14-1.06.2-.23.05-.46.09-.69.14-.38.08-.74.17-1.11.26-.18.05-.37.09-.54.14-.38.11-.77.22-1.14.34-.14.05-.26.08-.4.12-.4.12-.77.26-1.15.4-.09.03-.18.06-.26.09-.4.15-.77.31-1.12.48-.05.03-.11.05-.15.08-.38.17-.74.35-1.08.54-.03,0-.06.03-.09.05-.35.2-.68.4-.98.61,0,0-.02,0-.03.02-.4.28-.75.55-1.08.85h0c-.95.88-1.52,1.81-1.64,2.81.58.09,1.18.18,1.8.28l.05-.02Z"></path><path class="cls-6" d="M114.65,231.82c-.08-.49-.28-.98-.63-1.43-2.01-2.67-8.37-4.58-15.9-4.5-7.48.08-13.78,2.07-15.78,4.76-.43.57-.66,1.18-.66,1.81v.03c0,.06.02.12.03.2.09,1.12.94,2.17,2.32,3.07,2.89,1.86,8.17,3.09,14.23,3.03,5.76-.05,10.83-1.26,13.77-3.03,1.63-.98,2.58-2.14,2.67-3.38,0-.06.03-.12.03-.2,0-.12-.03-.23-.05-.35l-.03-.02ZM110.75,235.74c-2.8,1.54-7.34,2.58-12.51,2.63-5.42.05-10.2-1-12.97-2.63-1.46-.85-2.35-1.86-2.5-2.95-.02-.11-.05-.22-.05-.32v-.05c0-.94.57-1.81,1.55-2.61,2.49-2.03,7.74-3.47,13.86-3.52,6.15-.06,11.45,1.29,13.97,3.3.86.69,1.38,1.44,1.51,2.24.02.11.05.23.05.34s-.03.22-.05.32c-.15,1.2-1.18,2.3-2.87,3.24h.02Z"></path><path class="cls-10" d="M113.6,231.83c-.12-.8-.65-1.57-1.51-2.24-2.52-2-7.82-3.36-13.97-3.3-6.12.06-11.35,1.49-13.86,3.52-.98.8-1.54,1.67-1.55,2.61v.05c0,.11.03.22.05.32.15,1.09,1.04,2.11,2.5,2.95,2.78,1.63,7.54,2.67,12.97,2.63,5.16-.05,9.71-1.08,12.51-2.63,1.67-.92,2.72-2.04,2.87-3.24,0-.11.05-.22.05-.32,0-.12-.03-.23-.05-.34h-.02ZM104.03,233.38c0,.97-1.55,1.75-3.96,2.09v1.14l-4.01.03v-1.03c-1.29-.06-2.5-.23-3.36-.45l-.75-.2,1.37-1.52.06-.06.29.08,1.01.25c.83.22,1.94.32,2.97.32.83,0,1.78-.14,1.78-.51v-.05c-.05-.18-.32-.4-2.09-.66-1.03-.15-2.06-.34-2.92-.58-1.17-.34-2.01-.81-2.01-1.52,0-.92,1.48-1.67,3.8-2v-1.09h1.14l1.67-.03h1.18v.97c1,.05,1.87.17,2.69.34l.89.2-1.49,1.55-1.23-.26c-.4-.09-1.23-.26-2.58-.25-.94,0-1.46.15-1.46.38,0,.17.17.32,2.38.66,1.21.18,2.5.43,3.44.86.69.31,1.18.72,1.23,1.26,0,.03.02.05.02.08h-.05Z"></path><path class="cls-1" d="M102.79,232.05c-.92-.41-2.23-.68-3.44-.86-2.21-.34-2.38-.49-2.38-.66,0-.25.52-.38,1.46-.38,1.35,0,2.18.17,2.58.25l1.23.26,1.49-1.55-.89-.2c-.81-.18-1.71-.29-2.69-.34v-1h-1.18l-1.67.03h-1.14v1.11c-2.3.32-3.8,1.08-3.78,2,0,.71.85,1.17,2.01,1.52.86.25,1.89.43,2.92.58,1.77.26,2.06.48,2.09.66v.05c0,.37-.95.51-1.78.51-1.03,0-2.14-.11-2.97-.32l-1.01-.25-.29-.08-.06.06-1.37,1.52.75.2c.86.23,2.07.38,3.36.45v1.03l4.01-.03v-1.14c2.43-.32,3.98-1.12,3.96-2.09,0-.03-.02-.05-.02-.08-.05-.54-.52-.95-1.23-1.26l.03.02Z"></path><path class="cls-4" d="M116.49,231.89c-3.35,2.64-10.23,4.5-18.24,4.58-8.34.08-15.53-1.81-18.75-4.58-.6-.52-1.08-1.06-1.38-1.64-.28-.51-.41-1.04-.43-1.58v3.23c.05,4.41,9.23,7.91,20.54,7.81,10.97-.11,19.88-3.56,20.36-7.81h.05v-3.61c0,.57-.14,1.12-.43,1.64-.35.69-.95,1.34-1.74,1.95l.02.02Z"></path><path class="cls-3" d="M118.6,227.9h0c-.58.11-1.21.22-1.84.32-.66.11-1.37.22-2.07.31-.08,1.23-1.04,2.4-2.67,3.38-2.93,1.78-7.99,2.98-13.77,3.03-6.04.06-11.32-1.17-14.23-3.03-1.4-.89-2.23-1.94-2.32-3.07-.55-.06-1.09-.14-1.61-.2-.17-.03-.34-.05-.51-.08-.61-.09-1.23-.18-1.8-.28.11-.98.69-1.94,1.64-2.81-1.09.98-1.71,2.07-1.69,3.2,0,.54.15,1.08.43,1.58.31.57.78,1.12,1.38,1.64,3.21,2.77,10.4,4.66,18.75,4.58,8.01-.08,14.89-1.94,18.24-4.58.78-.61,1.38-1.28,1.74-1.95.28-.54.43-1.09.43-1.64,0-.14-.03-.26-.06-.38h0l-.03-.02Z"></path><path class="cls-1" d="M79.57,228.56c.17.03.34.05.51.08.52.08,1.06.14,1.61.2,0-.06-.03-.12-.03-.2v-.03c0-.63.25-1.23.66-1.81,2-2.69,8.3-4.69,15.78-4.76,7.53-.08,13.87,1.84,15.9,4.5.34.46.55.94.63,1.43.02.12.05.23.05.35,0,.06-.02.12-.03.2.71-.09,1.41-.2,2.07-.31.63-.11,1.26-.2,1.84-.32h0s-.03-.08-.03-.12c-.22-1.28-1.18-2.46-2.75-3.49,0,0-.02,0-.03-.02-.31-.2-.65-.4-1-.58-.03,0-.06-.03-.09-.05-.34-.18-.71-.35-1.09-.52-.05-.03-.11-.05-.17-.06-.37-.15-.74-.31-1.14-.46-.09-.03-.18-.06-.26-.09-.37-.14-.75-.26-1.15-.38-.12-.03-.26-.08-.38-.11-.37-.11-.75-.22-1.15-.31-.17-.05-.35-.08-.54-.12-.37-.09-.74-.17-1.12-.25-.23-.05-.46-.08-.69-.12-.35-.06-.71-.12-1.06-.18-.28-.05-.57-.08-.86-.11-.32-.05-.66-.09-.98-.12-.34-.03-.68-.06-1.03-.09-.31-.03-.6-.06-.91-.08-.41-.03-.85-.05-1.28-.06-.25,0-.48-.03-.72-.03-.68-.02-1.37-.03-2.06-.02-.69,0-1.38.03-2.06.06-.25,0-.49.03-.72.05-.43.03-.85.05-1.28.09-.31.03-.6.06-.91.09-.34.03-.69.06-1.01.11-.34.05-.66.09-.98.15-.29.05-.57.08-.86.12-.35.06-.71.14-1.06.2-.23.05-.46.09-.69.14-.38.08-.74.17-1.11.26-.18.05-.37.09-.54.14-.38.11-.77.22-1.14.34-.14.05-.26.08-.4.12-.4.12-.77.26-1.15.4-.09.03-.18.06-.26.09-.4.15-.77.31-1.12.48-.05.03-.11.05-.15.08-.38.17-.74.35-1.08.54-.03,0-.06.03-.09.05-.35.2-.68.4-.98.61,0,0-.02,0-.03.02-.4.28-.75.55-1.08.85h0c-.95.88-1.52,1.81-1.64,2.81.58.09,1.18.18,1.8.28l.05-.02Z"></path><path class="cls-6" d="M114.65,227.97c-.08-.49-.28-.98-.63-1.43-2.01-2.67-8.37-4.58-15.9-4.5-7.48.08-13.78,2.07-15.78,4.76-.43.57-.66,1.18-.66,1.81v.03c0,.06.02.12.03.2.09,1.12.94,2.17,2.32,3.07,2.89,1.86,8.17,3.09,14.23,3.03,5.76-.05,10.83-1.26,13.77-3.03,1.63-.98,2.58-2.14,2.67-3.38,0-.06.03-.12.03-.2,0-.12-.03-.23-.05-.35l-.03-.02ZM110.75,231.89c-2.8,1.54-7.34,2.58-12.51,2.63-5.42.05-10.2-1-12.97-2.63-1.46-.85-2.35-1.86-2.5-2.95-.02-.11-.05-.22-.05-.32v-.05c0-.94.57-1.81,1.55-2.61,2.49-2.03,7.74-3.47,13.86-3.52,6.15-.06,11.45,1.29,13.97,3.3.86.69,1.38,1.44,1.51,2.24.02.11.05.23.05.34s-.03.22-.05.32c-.15,1.2-1.18,2.3-2.87,3.24h.02Z"></path><path class="cls-10" d="M113.6,227.99c-.12-.8-.65-1.57-1.51-2.24-2.52-2-7.82-3.36-13.97-3.3-6.12.06-11.35,1.49-13.86,3.52-.98.8-1.54,1.67-1.55,2.61v.05c0,.11.03.22.05.32.15,1.09,1.04,2.11,2.5,2.95,2.78,1.63,7.54,2.67,12.97,2.63,5.16-.05,9.71-1.08,12.51-2.63,1.67-.92,2.72-2.04,2.87-3.24,0-.11.05-.22.05-.32,0-.12-.03-.23-.05-.34h-.02ZM104.03,229.54c0,.97-1.55,1.75-3.96,2.09v1.14l-4.01.03v-1.03c-1.29-.06-2.5-.23-3.36-.45l-.75-.2,1.37-1.52.06-.06.29.08,1.01.25c.83.22,1.94.32,2.97.32.83,0,1.78-.14,1.78-.51v-.05c-.05-.18-.32-.4-2.09-.66-1.03-.15-2.06-.34-2.92-.58-1.17-.34-2.01-.81-2.01-1.52,0-.92,1.48-1.67,3.8-2v-1.09h1.14l1.67-.03h1.18v.97c1,.05,1.87.17,2.69.34l.89.2-1.49,1.55-1.23-.26c-.4-.09-1.23-.26-2.58-.25-.94,0-1.46.15-1.46.38,0,.17.17.32,2.38.66,1.21.18,2.5.43,3.44.86.69.31,1.18.72,1.23,1.26,0,.03.02.05.02.08h-.05Z"></path><path class="cls-1" d="M102.79,228.2c-.92-.41-2.23-.68-3.44-.86-2.21-.34-2.38-.49-2.38-.66,0-.25.52-.38,1.46-.38,1.35,0,2.18.17,2.58.25l1.23.26,1.49-1.55-.89-.2c-.81-.18-1.71-.29-2.69-.34v-1h-1.18l-1.67.03h-1.14v1.11c-2.3.32-3.8,1.08-3.78,2,0,.71.85,1.17,2.01,1.52.86.25,1.89.43,2.92.58,1.77.26,2.06.48,2.09.66v.05c0,.37-.95.51-1.78.51-1.03,0-2.14-.11-2.97-.32l-1.01-.25-.29-.08-.06.06-1.37,1.52.75.2c.86.23,2.07.38,3.36.45v1.03l4.01-.03v-1.14c2.43-.32,3.98-1.12,3.96-2.09,0-.03-.02-.05-.02-.08-.05-.54-.52-.95-1.23-1.26l.03.02Z"></path><path class="cls-4" d="M116.49,228.05c-3.35,2.64-10.23,4.5-18.24,4.58-8.34.08-15.53-1.81-18.75-4.58-.6-.52-1.08-1.06-1.38-1.64-.28-.51-.41-1.04-.43-1.58v3.23c.05,4.41,9.23,7.91,20.54,7.81,10.97-.11,19.88-3.56,20.36-7.81h.05v-3.61c0,.57-.14,1.12-.43,1.64-.35.69-.95,1.34-1.74,1.95l.02.02Z"></path><path class="cls-3" d="M118.6,224.05h0c-.58.11-1.21.22-1.84.32-.66.11-1.37.22-2.07.31-.08,1.23-1.04,2.4-2.67,3.38-2.93,1.78-7.99,2.98-13.77,3.03-6.04.06-11.32-1.17-14.23-3.03-1.4-.89-2.23-1.94-2.32-3.07-.55-.06-1.09-.14-1.61-.2-.17-.03-.34-.05-.51-.08-.61-.09-1.23-.18-1.8-.28.11-.98.69-1.94,1.64-2.81-1.09.98-1.71,2.07-1.69,3.2,0,.54.15,1.08.43,1.58.31.57.78,1.12,1.38,1.64,3.21,2.77,10.4,4.66,18.75,4.58,8.01-.08,14.89-1.94,18.24-4.58.78-.61,1.38-1.28,1.74-1.95.28-.54.43-1.09.43-1.64,0-.14-.03-.26-.06-.38h0l-.03-.02Z"></path><path class="cls-1" d="M79.57,224.71c.17.03.34.05.51.08.52.08,1.06.14,1.61.2,0-.06-.03-.12-.03-.2v-.03c0-.63.25-1.23.66-1.81,2-2.69,8.3-4.69,15.78-4.76,7.53-.08,13.87,1.84,15.9,4.5.34.46.55.94.63,1.43.02.12.05.23.05.35,0,.06-.02.12-.03.2.71-.09,1.41-.2,2.07-.31.63-.11,1.26-.2,1.84-.32h0s-.03-.08-.03-.12c-.22-1.28-1.18-2.46-2.75-3.49,0,0-.02,0-.03-.02-.31-.2-.65-.4-1-.58-.03,0-.06-.03-.09-.05-.34-.18-.71-.35-1.09-.52-.05-.03-.11-.05-.17-.06-.37-.15-.74-.31-1.14-.46-.09-.03-.18-.06-.26-.09-.37-.14-.75-.26-1.15-.38-.12-.03-.26-.08-.38-.11-.37-.11-.75-.22-1.15-.31-.17-.05-.35-.08-.54-.12-.37-.09-.74-.17-1.12-.25-.23-.05-.46-.08-.69-.12-.35-.06-.71-.12-1.06-.18-.28-.05-.57-.08-.86-.11-.32-.05-.66-.09-.98-.12-.34-.03-.68-.06-1.03-.09-.31-.03-.6-.06-.91-.08-.41-.03-.85-.05-1.28-.06-.25,0-.48-.03-.72-.03-.68-.02-1.37-.03-2.06-.02-.69,0-1.38.03-2.06.06-.25,0-.49.03-.72.05-.43.03-.85.05-1.28.09-.31.03-.6.06-.91.09-.34.03-.69.06-1.01.11-.34.05-.66.09-.98.15-.29.05-.57.08-.86.12-.35.06-.71.14-1.06.2-.23.05-.46.09-.69.14-.38.08-.74.17-1.11.26-.18.05-.37.09-.54.14-.38.11-.77.22-1.14.34-.14.05-.26.08-.4.12-.4.12-.77.26-1.15.4-.09.03-.18.06-.26.09-.4.15-.77.31-1.12.48-.05.03-.11.05-.15.08-.38.17-.74.35-1.08.54-.03,0-.06.03-.09.05-.35.2-.68.4-.98.61,0,0-.02,0-.03.02-.4.28-.75.55-1.08.85h0c-.95.88-1.52,1.81-1.64,2.81.58.09,1.18.18,1.8.28l.05-.02Z"></path><path class="cls-6" d="M114.65,224.13c-.08-.49-.28-.98-.63-1.43-2.01-2.67-8.37-4.58-15.9-4.5-7.48.08-13.78,2.07-15.78,4.76-.43.57-.66,1.18-.66,1.81v.03c0,.06.02.12.03.2.09,1.12.94,2.17,2.32,3.07,2.89,1.86,8.17,3.09,14.23,3.03,5.76-.05,10.83-1.26,13.77-3.03,1.63-.98,2.58-2.14,2.67-3.38,0-.06.03-.12.03-.2,0-.12-.03-.23-.05-.35l-.03-.02ZM110.75,228.05c-2.8,1.54-7.34,2.58-12.51,2.63-5.42.05-10.2-1-12.97-2.63-1.46-.85-2.35-1.86-2.5-2.95-.02-.11-.05-.22-.05-.32v-.05c0-.94.57-1.81,1.55-2.61,2.49-2.03,7.74-3.47,13.86-3.52,6.15-.06,11.45,1.29,13.97,3.3.86.69,1.38,1.44,1.51,2.24.02.11.05.23.05.34s-.03.22-.05.32c-.15,1.2-1.18,2.3-2.87,3.24h.02Z"></path><path class="cls-10" d="M113.6,224.15c-.12-.8-.65-1.57-1.51-2.24-2.52-2-7.82-3.36-13.97-3.3-6.12.06-11.35,1.49-13.86,3.52-.98.8-1.54,1.67-1.55,2.61v.05c0,.11.03.22.05.32.15,1.09,1.04,2.11,2.5,2.95,2.78,1.63,7.54,2.67,12.97,2.63,5.16-.05,9.71-1.08,12.51-2.63,1.67-.92,2.72-2.04,2.87-3.24,0-.11.05-.22.05-.32,0-.12-.03-.23-.05-.34h-.02ZM104.03,225.7c0,.97-1.55,1.75-3.96,2.09v1.14l-4.01.03v-1.03c-1.29-.06-2.5-.23-3.36-.45l-.75-.2,1.37-1.52.06-.06.29.08,1.01.25c.83.22,1.94.32,2.97.32.83,0,1.78-.14,1.78-.51v-.05c-.05-.18-.32-.4-2.09-.66-1.03-.15-2.06-.34-2.92-.58-1.17-.34-2.01-.81-2.01-1.52,0-.92,1.48-1.67,3.8-2v-1.09h1.14l1.67-.03h1.18v.97c1,.05,1.87.17,2.69.34l.89.2-1.49,1.55-1.23-.26c-.4-.09-1.23-.26-2.58-.25-.94,0-1.46.15-1.46.38,0,.17.17.32,2.38.66,1.21.18,2.5.43,3.44.86.69.31,1.18.72,1.23,1.26,0,.03.02.05.02.08h-.05Z"></path><path class="cls-1" d="M102.79,224.36c-.92-.41-2.23-.68-3.44-.86-2.21-.34-2.38-.49-2.38-.66,0-.25.52-.38,1.46-.38,1.35,0,2.18.17,2.58.25l1.23.26,1.49-1.55-.89-.2c-.81-.18-1.71-.29-2.69-.34v-1h-1.18l-1.67.03h-1.14v1.11c-2.3.32-3.8,1.08-3.78,2,0,.71.85,1.17,2.01,1.52.86.25,1.89.43,2.92.58,1.77.26,2.06.48,2.09.66v.05c0,.37-.95.51-1.78.51-1.03,0-2.14-.11-2.97-.32l-1.01-.25-.29-.08-.06.06-1.37,1.52.75.2c.86.23,2.07.38,3.36.45v1.03l4.01-.03v-1.14c2.43-.32,3.98-1.12,3.96-2.09,0-.03-.02-.05-.02-.08-.05-.54-.52-.95-1.23-1.26l.03.02Z"></path><path class="cls-4" d="M116.49,224.2c-3.35,2.64-10.23,4.5-18.24,4.58-8.34.08-15.53-1.81-18.75-4.58-.6-.52-1.08-1.06-1.38-1.64-.28-.51-.41-1.04-.43-1.58v3.23c.05,4.41,9.23,7.91,20.54,7.81,10.97-.11,19.88-3.56,20.36-7.81h.05v-3.61c0,.57-.14,1.12-.43,1.64-.35.69-.95,1.34-1.74,1.95l.02.02Z"></path><path class="cls-3" d="M118.6,220.21h0c-.58.11-1.21.22-1.84.32-.66.11-1.37.22-2.07.31-.08,1.23-1.04,2.4-2.67,3.38-2.93,1.78-7.99,2.98-13.77,3.03-6.04.06-11.32-1.17-14.23-3.03-1.4-.89-2.23-1.94-2.32-3.07-.55-.06-1.09-.14-1.61-.2-.17-.03-.34-.05-.51-.08-.61-.09-1.23-.18-1.8-.28.11-.98.69-1.94,1.64-2.81-1.09.98-1.71,2.07-1.69,3.2,0,.54.15,1.08.43,1.58.31.57.78,1.12,1.38,1.64,3.21,2.77,10.4,4.66,18.75,4.58,8.01-.08,14.89-1.94,18.24-4.58.78-.61,1.38-1.28,1.74-1.95.28-.54.43-1.09.43-1.64,0-.14-.03-.26-.06-.38h0l-.03-.02Z"></path><path class="cls-1" d="M79.57,220.87c.17.03.34.05.51.08.52.08,1.06.14,1.61.2,0-.06-.03-.12-.03-.2v-.03c0-.63.25-1.23.66-1.81,2-2.69,8.3-4.69,15.78-4.76,7.53-.08,13.87,1.84,15.9,4.5.34.46.55.94.63,1.43.02.12.05.23.05.35,0,.06-.02.12-.03.2.71-.09,1.41-.2,2.07-.31.63-.11,1.26-.2,1.84-.32h0s-.03-.08-.03-.12c-.22-1.28-1.18-2.46-2.75-3.49,0,0-.02,0-.03-.02-.31-.2-.65-.4-1-.58-.03,0-.06-.03-.09-.05-.34-.18-.71-.35-1.09-.52-.05-.03-.11-.05-.17-.06-.37-.15-.74-.31-1.14-.46-.09-.03-.18-.06-.26-.09-.37-.14-.75-.26-1.15-.38-.12-.03-.26-.08-.38-.11-.37-.11-.75-.22-1.15-.31-.17-.05-.35-.08-.54-.12-.37-.09-.74-.17-1.12-.25-.23-.05-.46-.08-.69-.12-.35-.06-.71-.12-1.06-.18-.28-.05-.57-.08-.86-.11-.32-.05-.66-.09-.98-.12-.34-.03-.68-.06-1.03-.09-.31-.03-.6-.06-.91-.08-.41-.03-.85-.05-1.28-.06-.25,0-.48-.03-.72-.03-.68-.02-1.37-.03-2.06-.02-.69,0-1.38.03-2.06.06-.25,0-.49.03-.72.05-.43.03-.85.05-1.28.09-.31.03-.6.06-.91.09-.34.03-.69.06-1.01.11-.34.05-.66.09-.98.15-.29.05-.57.08-.86.12-.35.06-.71.14-1.06.2-.23.05-.46.09-.69.14-.38.08-.74.17-1.11.26-.18.05-.37.09-.54.14-.38.11-.77.22-1.14.34-.14.05-.26.08-.4.12-.4.12-.77.26-1.15.4-.09.03-.18.06-.26.09-.4.15-.77.31-1.12.48-.05.03-.11.05-.15.08-.38.17-.74.35-1.08.54-.03,0-.06.03-.09.05-.35.2-.68.4-.98.61,0,0-.02,0-.03.02-.4.28-.75.55-1.08.85h0c-.95.88-1.52,1.81-1.64,2.81.58.09,1.18.18,1.8.28l.05-.02Z"></path><path class="cls-6" d="M114.65,220.29c-.08-.49-.28-.98-.63-1.43-2.01-2.67-8.37-4.58-15.9-4.5-7.48.08-13.78,2.07-15.78,4.76-.43.57-.66,1.18-.66,1.81v.03c0,.06.02.12.03.2.09,1.12.94,2.17,2.32,3.07,2.89,1.86,8.17,3.09,14.23,3.03,5.76-.05,10.83-1.26,13.77-3.03,1.63-.98,2.58-2.14,2.67-3.38,0-.06.03-.12.03-.2,0-.12-.03-.23-.05-.35l-.03-.02ZM110.75,224.2c-2.8,1.54-7.34,2.58-12.51,2.63-5.42.05-10.2-1-12.97-2.63-1.46-.85-2.35-1.86-2.5-2.95-.02-.11-.05-.22-.05-.32v-.05c0-.94.57-1.81,1.55-2.61,2.49-2.03,7.74-3.47,13.86-3.52,6.15-.06,11.45,1.29,13.97,3.3.86.69,1.38,1.44,1.51,2.24.02.11.05.23.05.34s-.03.22-.05.32c-.15,1.2-1.18,2.3-2.87,3.24h.02Z"></path><path class="cls-10" d="M113.6,220.3c-.12-.8-.65-1.57-1.51-2.24-2.52-2-7.82-3.36-13.97-3.3-6.12.06-11.35,1.49-13.86,3.52-.98.8-1.54,1.67-1.55,2.61v.05c0,.11.03.22.05.32.15,1.09,1.04,2.11,2.5,2.95,2.78,1.63,7.54,2.67,12.97,2.63,5.16-.05,9.71-1.08,12.51-2.63,1.67-.92,2.72-2.04,2.87-3.24,0-.11.05-.22.05-.32,0-.12-.03-.23-.05-.34h-.02ZM104.03,221.85c0,.97-1.55,1.75-3.96,2.09v1.14l-4.01.03v-1.03c-1.29-.06-2.5-.23-3.36-.45l-.75-.2,1.37-1.52.06-.06.29.08,1.01.25c.83.22,1.94.32,2.97.32.83,0,1.78-.14,1.78-.51v-.05c-.05-.18-.32-.4-2.09-.66-1.03-.15-2.06-.34-2.92-.58-1.17-.34-2.01-.81-2.01-1.52,0-.92,1.48-1.67,3.8-2v-1.09h1.14l1.67-.03h1.18v.97c1,.05,1.87.17,2.69.34l.89.2-1.49,1.55-1.23-.26c-.4-.09-1.23-.26-2.58-.25-.94,0-1.46.15-1.46.38,0,.17.17.32,2.38.66,1.21.18,2.5.43,3.44.86.69.31,1.18.72,1.23,1.26,0,.03.02.05.02.08h-.05Z"></path><path class="cls-1" d="M102.79,220.52c-.92-.41-2.23-.68-3.44-.86-2.21-.34-2.38-.49-2.38-.66,0-.25.52-.38,1.46-.38,1.35,0,2.18.17,2.58.25l1.23.26,1.49-1.55-.89-.2c-.81-.18-1.71-.29-2.69-.34v-1h-1.18l-1.67.03h-1.14v1.11c-2.3.32-3.8,1.08-3.78,2,0,.71.85,1.17,2.01,1.52.86.25,1.89.43,2.92.58,1.77.26,2.06.48,2.09.66v.05c0,.37-.95.51-1.78.51-1.03,0-2.14-.11-2.97-.32l-1.01-.25-.29-.08-.06.06-1.37,1.52.75.2c.86.23,2.07.38,3.36.45v1.03l4.01-.03v-1.14c2.43-.32,3.98-1.12,3.96-2.09,0-.03-.02-.05-.02-.08-.05-.54-.52-.95-1.23-1.26l.03.02Z"></path><path class="cls-4" d="M116.49,220.36c-3.35,2.64-10.23,4.5-18.24,4.58-8.34.08-15.53-1.81-18.75-4.58-.6-.52-1.08-1.06-1.38-1.64-.28-.51-.41-1.04-.43-1.58v3.23c.05,4.41,9.23,7.91,20.54,7.81,10.97-.11,19.88-3.56,20.36-7.81h.05v-3.61c0,.57-.14,1.12-.43,1.64-.35.69-.95,1.34-1.74,1.95l.02.02Z"></path><path class="cls-3" d="M118.6,216.37h0c-.58.11-1.21.22-1.84.32-.66.11-1.37.22-2.07.31-.08,1.23-1.04,2.4-2.67,3.38-2.93,1.78-7.99,2.98-13.77,3.03-6.04.06-11.32-1.17-14.23-3.03-1.4-.89-2.23-1.94-2.32-3.07-.55-.06-1.09-.14-1.61-.2-.17-.03-.34-.05-.51-.08-.61-.09-1.23-.18-1.8-.28.11-.98.69-1.94,1.64-2.81-1.09.98-1.71,2.07-1.69,3.2,0,.54.15,1.08.43,1.58.31.57.78,1.12,1.38,1.64,3.21,2.77,10.4,4.66,18.75,4.58,8.01-.08,14.89-1.94,18.24-4.58.78-.61,1.38-1.28,1.74-1.95.28-.54.43-1.09.43-1.64,0-.14-.03-.26-.06-.38h0l-.03-.02Z"></path><path class="cls-1" d="M79.57,217.03c.17.03.34.05.51.08.52.08,1.06.14,1.61.2,0-.06-.03-.12-.03-.2v-.03c0-.63.25-1.23.66-1.81,2-2.69,8.3-4.69,15.78-4.76,7.53-.08,13.87,1.84,15.9,4.5.34.46.55.94.63,1.43.02.12.05.23.05.35,0,.06-.02.12-.03.2.71-.09,1.41-.2,2.07-.31.63-.11,1.26-.2,1.84-.32h0s-.03-.08-.03-.12c-.22-1.28-1.18-2.46-2.75-3.49,0,0-.02,0-.03-.02-.31-.2-.65-.4-1-.58-.03,0-.06-.03-.09-.05-.34-.18-.71-.35-1.09-.52-.05-.03-.11-.05-.17-.06-.37-.15-.74-.31-1.14-.46-.09-.03-.18-.06-.26-.09-.37-.14-.75-.26-1.15-.38-.12-.03-.26-.08-.38-.11-.37-.11-.75-.22-1.15-.31-.17-.05-.35-.08-.54-.12-.37-.09-.74-.17-1.12-.25-.23-.05-.46-.08-.69-.12-.35-.06-.71-.12-1.06-.18-.28-.05-.57-.08-.86-.11-.32-.05-.66-.09-.98-.12-.34-.03-.68-.06-1.03-.09-.31-.03-.6-.06-.91-.08-.41-.03-.85-.05-1.28-.06-.25,0-.48-.03-.72-.03-.68-.02-1.37-.03-2.06-.02-.69,0-1.38.03-2.06.06-.25,0-.49.03-.72.05-.43.03-.85.05-1.28.09-.31.03-.6.06-.91.09-.34.03-.69.06-1.01.11-.34.05-.66.09-.98.15-.29.05-.57.08-.86.12-.35.06-.71.14-1.06.2-.23.05-.46.09-.69.14-.38.08-.74.17-1.11.26-.18.05-.37.09-.54.14-.38.11-.77.22-1.14.34-.14.05-.26.08-.4.12-.4.12-.77.26-1.15.4-.09.03-.18.06-.26.09-.4.15-.77.31-1.12.48-.05.03-.11.05-.15.08-.38.17-.74.35-1.08.54-.03,0-.06.03-.09.05-.35.2-.68.4-.98.61,0,0-.02,0-.03.02-.4.28-.75.55-1.08.85h0c-.95.88-1.52,1.81-1.64,2.81.58.09,1.18.18,1.8.28l.05-.02Z"></path><path class="cls-6" d="M114.65,216.44c-.08-.49-.28-.98-.63-1.43-2.01-2.67-8.37-4.58-15.9-4.5-7.48.08-13.78,2.07-15.78,4.76-.43.57-.66,1.18-.66,1.81v.03c0,.06.02.12.03.2.09,1.12.94,2.17,2.32,3.07,2.89,1.86,8.17,3.09,14.23,3.03,5.76-.05,10.83-1.26,13.77-3.03,1.63-.98,2.58-2.14,2.67-3.38,0-.06.03-.12.03-.2,0-.12-.03-.23-.05-.35l-.03-.02ZM110.75,220.36c-2.8,1.54-7.34,2.58-12.51,2.63-5.42.05-10.2-1-12.97-2.63-1.46-.85-2.35-1.86-2.5-2.95-.02-.11-.05-.22-.05-.32v-.05c0-.94.57-1.81,1.55-2.61,2.49-2.03,7.74-3.47,13.86-3.52,6.15-.06,11.45,1.29,13.97,3.3.86.69,1.38,1.44,1.51,2.24.02.11.05.23.05.34s-.03.22-.05.32c-.15,1.2-1.18,2.3-2.87,3.24h.02Z"></path><path class="cls-10" d="M113.6,216.46c-.12-.8-.65-1.57-1.51-2.24-2.52-2-7.82-3.36-13.97-3.3-6.12.06-11.35,1.49-13.86,3.52-.98.8-1.54,1.67-1.55,2.61v.05c0,.11.03.22.05.32.15,1.09,1.04,2.11,2.5,2.95,2.78,1.63,7.54,2.67,12.97,2.63,5.16-.05,9.71-1.08,12.51-2.63,1.67-.92,2.72-2.04,2.87-3.24,0-.11.05-.22.05-.32,0-.12-.03-.23-.05-.34h-.02ZM104.03,218.01c0,.97-1.55,1.75-3.96,2.09v1.14l-4.01.03v-1.03c-1.29-.06-2.5-.23-3.36-.45l-.75-.2,1.37-1.52.06-.06.29.08,1.01.25c.83.22,1.94.32,2.97.32.83,0,1.78-.14,1.78-.51v-.05c-.05-.18-.32-.4-2.09-.66-1.03-.15-2.06-.34-2.92-.58-1.17-.34-2.01-.81-2.01-1.52,0-.92,1.48-1.67,3.8-2v-1.09h1.14l1.67-.03h1.18v.97c1,.05,1.87.17,2.69.34l.89.2-1.49,1.55-1.23-.26c-.4-.09-1.23-.26-2.58-.25-.94,0-1.46.15-1.46.38,0,.17.17.32,2.38.66,1.21.18,2.5.43,3.44.86.69.31,1.18.72,1.23,1.26,0,.03.02.05.02.08h-.05Z"></path><path class="cls-1" d="M102.79,216.67c-.92-.41-2.23-.68-3.44-.86-2.21-.34-2.38-.49-2.38-.66,0-.25.52-.38,1.46-.38,1.35,0,2.18.17,2.58.25l1.23.26,1.49-1.55-.89-.2c-.81-.18-1.71-.29-2.69-.34v-1h-1.18l-1.67.03h-1.14v1.11c-2.3.32-3.8,1.08-3.78,2,0,.71.85,1.17,2.01,1.52.86.25,1.89.43,2.92.58,1.77.26,2.06.48,2.09.66v.05c0,.37-.95.51-1.78.51-1.03,0-2.14-.11-2.97-.32l-1.01-.25-.29-.08-.06.06-1.37,1.52.75.2c.86.23,2.07.38,3.36.45v1.03l4.01-.03v-1.14c2.43-.32,3.98-1.12,3.96-2.09,0-.03-.02-.05-.02-.08-.05-.54-.52-.95-1.23-1.26l.03.02Z"></path><path class="cls-4" d="M116.49,216.52c-3.35,2.64-10.23,4.5-18.24,4.58-8.34.08-15.53-1.81-18.75-4.58-.6-.52-1.08-1.06-1.38-1.64-.28-.51-.41-1.04-.43-1.58v3.23c.05,4.41,9.23,7.91,20.54,7.81,10.97-.11,19.88-3.56,20.36-7.81h.05v-3.61c0,.57-.14,1.12-.43,1.64-.35.69-.95,1.34-1.74,1.95l.02.02Z"></path><path class="cls-3" d="M118.6,212.52h0c-.58.11-1.21.22-1.84.32-.66.11-1.37.22-2.07.31-.08,1.23-1.04,2.4-2.67,3.38-2.93,1.78-7.99,2.98-13.77,3.03-6.04.06-11.32-1.17-14.23-3.03-1.4-.89-2.23-1.94-2.32-3.07-.55-.06-1.09-.14-1.61-.2-.17-.03-.34-.05-.51-.08-.61-.09-1.23-.18-1.8-.28.11-.98.69-1.94,1.64-2.81-1.09.98-1.71,2.07-1.69,3.2,0,.54.15,1.08.43,1.58.31.57.78,1.12,1.38,1.64,3.21,2.77,10.4,4.66,18.75,4.58,8.01-.08,14.89-1.94,18.24-4.58.78-.61,1.38-1.28,1.74-1.95.28-.54.43-1.09.43-1.64,0-.14-.03-.26-.06-.38h0l-.03-.02Z"></path><path class="cls-1" d="M79.57,213.18c.17.03.34.05.51.08.52.08,1.06.14,1.61.2,0-.06-.03-.12-.03-.2v-.03c0-.63.25-1.23.66-1.81,2-2.69,8.3-4.69,15.78-4.76,7.53-.08,13.87,1.84,15.9,4.5.34.46.55.94.63,1.43.02.12.05.23.05.35,0,.06-.02.12-.03.2.71-.09,1.41-.2,2.07-.31.63-.11,1.26-.2,1.84-.32h0s-.03-.08-.03-.12c-.22-1.28-1.18-2.46-2.75-3.49,0,0-.02,0-.03-.02-.31-.2-.65-.4-1-.58-.03,0-.06-.03-.09-.05-.34-.18-.71-.35-1.09-.52-.05-.03-.11-.05-.17-.06-.37-.15-.74-.31-1.14-.46-.09-.03-.18-.06-.26-.09-.37-.14-.75-.26-1.15-.38-.12-.03-.26-.08-.38-.11-.37-.11-.75-.22-1.15-.31-.17-.05-.35-.08-.54-.12-.37-.09-.74-.17-1.12-.25-.23-.05-.46-.08-.69-.12-.35-.06-.71-.12-1.06-.18-.28-.05-.57-.08-.86-.11-.32-.05-.66-.09-.98-.12-.34-.03-.68-.06-1.03-.09-.31-.03-.6-.06-.91-.08-.41-.03-.85-.05-1.28-.06-.25,0-.48-.03-.72-.03-.68-.02-1.37-.03-2.06-.02-.69,0-1.38.03-2.06.06-.25,0-.49.03-.72.05-.43.03-.85.05-1.28.09-.31.03-.6.06-.91.09-.34.03-.69.06-1.01.11-.34.05-.66.09-.98.15-.29.05-.57.08-.86.12-.35.06-.71.14-1.06.2-.23.05-.46.09-.69.14-.38.08-.74.17-1.11.26-.18.05-.37.09-.54.14-.38.11-.77.22-1.14.34-.14.05-.26.08-.4.12-.4.12-.77.26-1.15.4-.09.03-.18.06-.26.09-.4.15-.77.31-1.12.48-.05.03-.11.05-.15.08-.38.17-.74.35-1.08.54-.03,0-.06.03-.09.05-.35.2-.68.4-.98.61,0,0-.02,0-.03.02-.4.28-.75.55-1.08.85h0c-.95.88-1.52,1.81-1.64,2.81.58.09,1.18.18,1.8.28l.05-.02Z"></path><path class="cls-6" d="M114.65,212.6c-.08-.49-.28-.98-.63-1.43-2.01-2.67-8.37-4.58-15.9-4.5-7.48.08-13.78,2.07-15.78,4.76-.43.57-.66,1.18-.66,1.81v.03c0,.06.02.12.03.2.09,1.12.94,2.17,2.32,3.07,2.89,1.86,8.17,3.09,14.23,3.03,5.76-.05,10.83-1.26,13.77-3.03,1.63-.98,2.58-2.14,2.67-3.38,0-.06.03-.12.03-.2,0-.12-.03-.23-.05-.35l-.03-.02ZM110.75,216.52c-2.8,1.54-7.34,2.58-12.51,2.63-5.42.05-10.2-1-12.97-2.63-1.46-.85-2.35-1.86-2.5-2.95-.02-.11-.05-.22-.05-.32v-.05c0-.94.57-1.81,1.55-2.61,2.49-2.03,7.74-3.47,13.86-3.52,6.15-.06,11.45,1.29,13.97,3.3.86.69,1.38,1.44,1.51,2.24.02.11.05.23.05.34s-.03.22-.05.32c-.15,1.2-1.18,2.3-2.87,3.24h.02Z"></path><path class="cls-10" d="M113.6,212.61c-.12-.8-.65-1.57-1.51-2.24-2.52-2-7.82-3.36-13.97-3.3-6.12.06-11.35,1.49-13.86,3.52-.98.8-1.54,1.67-1.55,2.61v.05c0,.11.03.22.05.32.15,1.09,1.04,2.11,2.5,2.95,2.78,1.63,7.54,2.67,12.97,2.63,5.16-.05,9.71-1.08,12.51-2.63,1.67-.92,2.72-2.04,2.87-3.24,0-.11.05-.22.05-.32,0-.12-.03-.23-.05-.34h-.02ZM104.03,214.17c0,.97-1.55,1.75-3.96,2.09v1.14l-4.01.03v-1.03c-1.29-.06-2.5-.23-3.36-.45l-.75-.2,1.37-1.52.06-.06.29.08,1.01.25c.83.22,1.94.32,2.97.32.83,0,1.78-.14,1.78-.51v-.05c-.05-.18-.32-.4-2.09-.66-1.03-.15-2.06-.34-2.92-.58-1.17-.34-2.01-.81-2.01-1.52,0-.92,1.48-1.67,3.8-2v-1.09h1.14l1.67-.03h1.18v.97c1,.05,1.87.17,2.69.34l.89.2-1.49,1.55-1.23-.26c-.4-.09-1.23-.26-2.58-.25-.94,0-1.46.15-1.46.38,0,.17.17.32,2.38.66,1.21.18,2.5.43,3.44.86.69.31,1.18.72,1.23,1.26,0,.03.02.05.02.08h-.05Z"></path><path class="cls-1" d="M102.79,212.83c-.92-.41-2.23-.68-3.44-.86-2.21-.34-2.38-.49-2.38-.66,0-.25.52-.38,1.46-.38,1.35,0,2.18.17,2.58.25l1.23.26,1.49-1.55-.89-.2c-.81-.18-1.71-.29-2.69-.34v-1h-1.18l-1.67.03h-1.14v1.11c-2.3.32-3.8,1.08-3.78,2,0,.71.85,1.17,2.01,1.52.86.25,1.89.43,2.92.58,1.77.26,2.06.48,2.09.66v.05c0,.37-.95.51-1.78.51-1.03,0-2.14-.11-2.97-.32l-1.01-.25-.29-.08-.06.06-1.37,1.52.75.2c.86.23,2.07.38,3.36.45v1.03l4.01-.03v-1.14c2.43-.32,3.98-1.12,3.96-2.09,0-.03-.02-.05-.02-.08-.05-.54-.52-.95-1.23-1.26l.03.02Z"></path><path class="cls-4" d="M116.49,212.67c-3.35,2.64-10.23,4.5-18.24,4.58-8.34.08-15.53-1.81-18.75-4.58-.6-.52-1.08-1.06-1.38-1.64-.28-.51-.41-1.04-.43-1.58v3.23c.05,4.41,9.23,7.91,20.54,7.81,10.97-.11,19.88-3.56,20.36-7.81h.05v-3.61c0,.57-.14,1.12-.43,1.64-.35.69-.95,1.34-1.74,1.95l.02.02Z"></path><path class="cls-3" d="M118.6,208.68h0c-.58.11-1.21.22-1.84.32-.66.11-1.37.22-2.07.31-.08,1.23-1.04,2.4-2.67,3.38-2.93,1.78-7.99,2.98-13.77,3.03-6.04.06-11.32-1.17-14.23-3.03-1.4-.89-2.23-1.94-2.32-3.07-.55-.06-1.09-.14-1.61-.2-.17-.03-.34-.05-.51-.08-.61-.09-1.23-.18-1.8-.28.11-.98.69-1.94,1.64-2.81-1.09.98-1.71,2.07-1.69,3.2,0,.54.15,1.08.43,1.58.31.57.78,1.12,1.38,1.64,3.21,2.77,10.4,4.66,18.75,4.58,8.01-.08,14.89-1.94,18.24-4.58.78-.61,1.38-1.28,1.74-1.95.28-.54.43-1.09.43-1.64,0-.14-.03-.26-.06-.38h0l-.03-.02Z"></path><path class="cls-1" d="M79.57,209.34c.17.03.34.05.51.08.52.08,1.06.14,1.61.2,0-.06-.03-.12-.03-.2v-.03c0-.63.25-1.23.66-1.81,2-2.69,8.3-4.69,15.78-4.76,7.53-.08,13.87,1.84,15.9,4.5.34.46.55.94.63,1.43.02.12.05.23.05.35,0,.06-.02.12-.03.2.71-.09,1.41-.2,2.07-.31.63-.11,1.26-.2,1.84-.32h0s-.03-.08-.03-.12c-.22-1.28-1.18-2.46-2.75-3.49,0,0-.02,0-.03-.02-.31-.2-.65-.4-1-.58-.03,0-.06-.03-.09-.05-.34-.18-.71-.35-1.09-.52-.05-.03-.11-.05-.17-.06-.37-.15-.74-.31-1.14-.46-.09-.03-.18-.06-.26-.09-.37-.14-.75-.26-1.15-.38-.12-.03-.26-.08-.38-.11-.37-.11-.75-.22-1.15-.31-.17-.05-.35-.08-.54-.12-.37-.09-.74-.17-1.12-.25-.23-.05-.46-.08-.69-.12-.35-.06-.71-.12-1.06-.18-.28-.05-.57-.08-.86-.11-.32-.05-.66-.09-.98-.12-.34-.03-.68-.06-1.03-.09-.31-.03-.6-.06-.91-.08-.41-.03-.85-.05-1.28-.06-.25,0-.48-.03-.72-.03-.68-.02-1.37-.03-2.06-.02-.69,0-1.38.03-2.06.06-.25,0-.49.03-.72.05-.43.03-.85.05-1.28.09-.31.03-.6.06-.91.09-.34.03-.69.06-1.01.11-.34.05-.66.09-.98.15-.29.05-.57.08-.86.12-.35.06-.71.14-1.06.2-.23.05-.46.09-.69.14-.38.08-.74.17-1.11.26-.18.05-.37.09-.54.14-.38.11-.77.22-1.14.34-.14.05-.26.08-.4.12-.4.12-.77.26-1.15.4-.09.03-.18.06-.26.09-.4.15-.77.31-1.12.48-.05.03-.11.05-.15.08-.38.17-.74.35-1.08.54-.03,0-.06.03-.09.05-.35.2-.68.4-.98.61,0,0-.02,0-.03.02-.4.28-.75.55-1.08.85h0c-.95.88-1.52,1.81-1.64,2.81.58.09,1.18.18,1.8.28l.05-.02Z"></path><path class="cls-6" d="M114.65,208.76c-.08-.49-.28-.98-.63-1.43-2.01-2.67-8.37-4.58-15.9-4.5-7.48.08-13.78,2.07-15.78,4.76-.43.57-.66,1.18-.66,1.81v.03c0,.06.02.12.03.2.09,1.12.94,2.17,2.32,3.07,2.89,1.86,8.17,3.09,14.23,3.03,5.76-.05,10.83-1.26,13.77-3.03,1.63-.98,2.58-2.14,2.67-3.38,0-.06.03-.12.03-.2,0-.12-.03-.23-.05-.35l-.03-.02ZM110.75,212.67c-2.8,1.54-7.34,2.58-12.51,2.63-5.42.05-10.2-1-12.97-2.63-1.46-.85-2.35-1.86-2.5-2.95-.02-.11-.05-.22-.05-.32v-.05c0-.94.57-1.81,1.55-2.61,2.49-2.03,7.74-3.47,13.86-3.52,6.15-.06,11.45,1.29,13.97,3.3.86.69,1.38,1.44,1.51,2.24.02.11.05.23.05.34s-.03.22-.05.32c-.15,1.2-1.18,2.3-2.87,3.24h.02Z"></path><path class="cls-10" d="M113.6,208.77c-.12-.8-.65-1.57-1.51-2.24-2.52-2-7.82-3.36-13.97-3.3-6.12.06-11.35,1.49-13.86,3.52-.98.8-1.54,1.67-1.55,2.61v.05c0,.11.03.22.05.32.15,1.09,1.04,2.11,2.5,2.95,2.78,1.63,7.54,2.67,12.97,2.63,5.16-.05,9.71-1.08,12.51-2.63,1.67-.92,2.72-2.04,2.87-3.24,0-.11.05-.22.05-.32,0-.12-.03-.23-.05-.34h-.02ZM104.03,210.32c0,.97-1.55,1.75-3.96,2.09v1.14l-4.01.03v-1.03c-1.29-.06-2.5-.23-3.36-.45l-.75-.2,1.37-1.52.06-.06.29.08,1.01.25c.83.22,1.94.32,2.97.32.83,0,1.78-.14,1.78-.51v-.05c-.05-.18-.32-.4-2.09-.66-1.03-.15-2.06-.34-2.92-.58-1.17-.34-2.01-.81-2.01-1.52,0-.92,1.48-1.67,3.8-2v-1.09h1.14l1.67-.03h1.18v.97c1,.05,1.87.17,2.69.34l.89.2-1.49,1.55-1.23-.26c-.4-.09-1.23-.26-2.58-.25-.94,0-1.46.15-1.46.38,0,.17.17.32,2.38.66,1.21.18,2.5.43,3.44.86.69.31,1.18.72,1.23,1.26,0,.03.02.05.02.08h-.05Z"></path><path class="cls-1" d="M102.79,208.99c-.92-.41-2.23-.68-3.44-.86-2.21-.34-2.38-.49-2.38-.66,0-.25.52-.38,1.46-.38,1.35,0,2.18.17,2.58.25l1.23.26,1.49-1.55-.89-.2c-.81-.18-1.71-.29-2.69-.34v-1h-1.18l-1.67.03h-1.14v1.11c-2.3.32-3.8,1.08-3.78,2,0,.71.85,1.17,2.01,1.52.86.25,1.89.43,2.92.58,1.77.26,2.06.48,2.09.66v.05c0,.37-.95.51-1.78.51-1.03,0-2.14-.11-2.97-.32l-1.01-.25-.29-.08-.06.06-1.37,1.52.75.2c.86.23,2.07.38,3.36.45v1.03l4.01-.03v-1.14c2.43-.32,3.98-1.12,3.96-2.09,0-.03-.02-.05-.02-.08-.05-.54-.52-.95-1.23-1.26l.03.02Z"></path><path class="cls-4" d="M116.49,208.83c-3.35,2.64-10.23,4.5-18.24,4.58-8.34.08-15.53-1.81-18.75-4.58-.6-.52-1.08-1.06-1.38-1.64-.28-.51-.41-1.04-.43-1.58v3.23c.05,4.41,9.23,7.91,20.54,7.81,10.97-.11,19.88-3.56,20.36-7.81h.05v-3.61c0,.57-.14,1.12-.43,1.64-.35.69-.95,1.34-1.74,1.95l.02.02Z"></path><path class="cls-3" d="M118.6,204.83h0c-.58.11-1.21.22-1.84.32-.66.11-1.37.22-2.07.31-.08,1.23-1.04,2.4-2.67,3.38-2.93,1.78-7.99,2.98-13.77,3.03-6.04.06-11.32-1.17-14.23-3.03-1.4-.89-2.23-1.94-2.32-3.07-.55-.06-1.09-.14-1.61-.2-.17-.03-.34-.05-.51-.08-.61-.09-1.23-.18-1.8-.28.11-.98.69-1.94,1.64-2.81-1.09.98-1.71,2.07-1.69,3.2,0,.54.15,1.08.43,1.58.31.57.78,1.12,1.38,1.64,3.21,2.77,10.4,4.66,18.75,4.58,8.01-.08,14.89-1.94,18.24-4.58.78-.61,1.38-1.28,1.74-1.95.28-.54.43-1.09.43-1.64,0-.14-.03-.26-.06-.38h0l-.03-.02Z"></path><path class="cls-1" d="M79.57,205.5c.17.03.34.05.51.08.52.08,1.06.14,1.61.2,0-.06-.03-.12-.03-.2v-.03c0-.63.25-1.23.66-1.81,2-2.69,8.3-4.69,15.78-4.76,7.53-.08,13.87,1.84,15.9,4.5.34.46.55.94.63,1.43.02.12.05.23.05.35,0,.06-.02.12-.03.2.71-.09,1.41-.2,2.07-.31.63-.11,1.26-.2,1.84-.32h0s-.03-.08-.03-.12c-.22-1.28-1.18-2.46-2.75-3.49,0,0-.02,0-.03-.02-.31-.2-.65-.4-1-.58-.03,0-.06-.03-.09-.05-.34-.18-.71-.35-1.09-.52-.05-.03-.11-.05-.17-.06-.37-.15-.74-.31-1.14-.46-.09-.03-.18-.06-.26-.09-.37-.14-.75-.26-1.15-.38-.12-.03-.26-.08-.38-.11-.37-.11-.75-.22-1.15-.31-.17-.05-.35-.08-.54-.12-.37-.09-.74-.17-1.12-.25-.23-.05-.46-.08-.69-.12-.35-.06-.71-.12-1.06-.18-.28-.05-.57-.08-.86-.11-.32-.05-.66-.09-.98-.12-.34-.03-.68-.06-1.03-.09-.31-.03-.6-.06-.91-.08-.41-.03-.85-.05-1.28-.06-.25,0-.48-.03-.72-.03-.68-.02-1.37-.03-2.06-.02-.69,0-1.38.03-2.06.06-.25,0-.49.03-.72.05-.43.03-.85.05-1.28.09-.31.03-.6.06-.91.09-.34.03-.69.06-1.01.11-.34.05-.66.09-.98.15-.29.05-.57.08-.86.12-.35.06-.71.14-1.06.2-.23.05-.46.09-.69.14-.38.08-.74.17-1.11.26-.18.05-.37.09-.54.14-.38.11-.77.22-1.14.34-.14.05-.26.08-.4.12-.4.12-.77.26-1.15.4-.09.03-.18.06-.26.09-.4.15-.77.31-1.12.48-.05.03-.11.05-.15.08-.38.17-.74.35-1.08.54-.03,0-.06.03-.09.05-.35.2-.68.4-.98.61,0,0-.02,0-.03.02-.4.28-.75.55-1.08.85h0c-.95.88-1.52,1.81-1.64,2.81.58.09,1.18.18,1.8.28l.05-.02Z"></path><path class="cls-6" d="M114.65,204.91c-.08-.49-.28-.98-.63-1.43-2.01-2.67-8.37-4.58-15.9-4.5-7.48.08-13.78,2.07-15.78,4.76-.43.57-.66,1.18-.66,1.81v.03c0,.06.02.12.03.2.09,1.12.94,2.17,2.32,3.07,2.89,1.86,8.17,3.09,14.23,3.03,5.76-.05,10.83-1.26,13.77-3.03,1.63-.98,2.58-2.14,2.67-3.38,0-.06.03-.12.03-.2,0-.12-.03-.23-.05-.35l-.03-.02ZM110.75,208.83c-2.8,1.54-7.34,2.58-12.51,2.63-5.42.05-10.2-1-12.97-2.63-1.46-.85-2.35-1.86-2.5-2.95-.02-.11-.05-.22-.05-.32v-.05c0-.94.57-1.81,1.55-2.61,2.49-2.03,7.74-3.47,13.86-3.52,6.15-.06,11.45,1.29,13.97,3.3.86.69,1.38,1.44,1.51,2.24.02.11.05.23.05.34s-.03.22-.05.32c-.15,1.2-1.18,2.3-2.87,3.24h.02Z"></path><path class="cls-10" d="M113.6,204.93c-.12-.8-.65-1.57-1.51-2.24-2.52-2-7.82-3.36-13.97-3.3-6.12.06-11.35,1.49-13.86,3.52-.98.8-1.54,1.67-1.55,2.61v.05c0,.11.03.22.05.32.15,1.09,1.04,2.11,2.5,2.95,2.78,1.63,7.54,2.67,12.97,2.63,5.16-.05,9.71-1.08,12.51-2.63,1.67-.92,2.72-2.04,2.87-3.24,0-.11.05-.22.05-.32,0-.12-.03-.23-.05-.34h-.02ZM104.03,206.48c0,.97-1.55,1.75-3.96,2.09v1.14l-4.01.03v-1.03c-1.29-.06-2.5-.23-3.36-.45l-.75-.2,1.37-1.52.06-.06.29.08,1.01.25c.83.22,1.94.32,2.97.32.83,0,1.78-.14,1.78-.51v-.05c-.05-.18-.32-.4-2.09-.66-1.03-.15-2.06-.34-2.92-.58-1.17-.34-2.01-.81-2.01-1.52,0-.92,1.48-1.67,3.8-2v-1.09h1.14l1.67-.03h1.18v.97c1,.05,1.87.17,2.69.34l.89.2-1.49,1.55-1.23-.26c-.4-.09-1.23-.26-2.58-.25-.94,0-1.46.15-1.46.38,0,.17.17.32,2.38.66,1.21.18,2.5.43,3.44.86.69.31,1.18.72,1.23,1.26,0,.03.02.05.02.08h-.05Z"></path><path class="cls-1" d="M102.79,205.14c-.92-.41-2.23-.68-3.44-.86-2.21-.34-2.38-.49-2.38-.66,0-.25.52-.38,1.46-.38,1.35,0,2.18.17,2.58.25l1.23.26,1.49-1.55-.89-.2c-.81-.18-1.71-.29-2.69-.34v-1h-1.18l-1.67.03h-1.14v1.11c-2.3.32-3.8,1.08-3.78,2,0,.71.85,1.17,2.01,1.52.86.25,1.89.43,2.92.58,1.77.26,2.06.48,2.09.66v.05c0,.37-.95.51-1.78.51-1.03,0-2.14-.11-2.97-.32l-1.01-.25-.29-.08-.06.06-1.37,1.52.75.2c.86.23,2.07.38,3.36.45v1.03l4.01-.03v-1.14c2.43-.32,3.98-1.12,3.96-2.09,0-.03-.02-.05-.02-.08-.05-.54-.52-.95-1.23-1.26l.03.02Z"></path><path class="cls-4" d="M116.49,204.99c-3.35,2.64-10.23,4.5-18.24,4.58-8.34.08-15.53-1.81-18.75-4.58-.6-.52-1.08-1.06-1.38-1.64-.28-.51-.41-1.04-.43-1.58v3.23c.05,4.41,9.23,7.91,20.54,7.81,10.97-.11,19.88-3.56,20.36-7.81h.05v-3.61c0,.57-.14,1.12-.43,1.64-.35.69-.95,1.34-1.74,1.95l.02.02Z"></path><path class="cls-3" d="M118.6,200.99h0c-.58.11-1.21.22-1.84.32-.66.11-1.37.22-2.07.31-.08,1.23-1.04,2.4-2.67,3.38-2.93,1.78-7.99,2.98-13.77,3.03-6.04.06-11.32-1.17-14.23-3.03-1.4-.89-2.23-1.94-2.32-3.07-.55-.06-1.09-.14-1.61-.2-.17-.03-.34-.05-.51-.08-.61-.09-1.23-.18-1.8-.28.11-.98.69-1.94,1.64-2.81-1.09.98-1.71,2.07-1.69,3.2,0,.54.15,1.08.43,1.58.31.57.78,1.12,1.38,1.64,3.21,2.77,10.4,4.66,18.75,4.58,8.01-.08,14.89-1.94,18.24-4.58.78-.61,1.38-1.28,1.74-1.95.28-.54.43-1.09.43-1.64,0-.14-.03-.26-.06-.38h0l-.03-.02Z"></path><path class="cls-1" d="M79.57,201.65c.17.03.34.05.51.08.52.08,1.06.14,1.61.2,0-.06-.03-.12-.03-.2v-.03c0-.63.25-1.23.66-1.81,2-2.69,8.3-4.69,15.78-4.76,7.53-.08,13.87,1.84,15.9,4.5.34.46.55.94.63,1.43.02.12.05.23.05.35,0,.06-.02.12-.03.2.71-.09,1.41-.2,2.07-.31.63-.11,1.26-.2,1.84-.32h0s-.03-.08-.03-.12c-.22-1.28-1.18-2.46-2.75-3.49,0,0-.02,0-.03-.02-.31-.2-.65-.4-1-.58-.03,0-.06-.03-.09-.05-.34-.18-.71-.35-1.09-.52-.05-.03-.11-.05-.17-.06-.37-.15-.74-.31-1.14-.46-.09-.03-.18-.06-.26-.09-.37-.14-.75-.26-1.15-.38-.12-.03-.26-.08-.38-.11-.37-.11-.75-.22-1.15-.31-.17-.05-.35-.08-.54-.12-.37-.09-.74-.17-1.12-.25-.23-.05-.46-.08-.69-.12-.35-.06-.71-.12-1.06-.18-.28-.05-.57-.08-.86-.11-.32-.05-.66-.09-.98-.12-.34-.03-.68-.06-1.03-.09-.31-.03-.6-.06-.91-.08-.41-.03-.85-.05-1.28-.06-.25,0-.48-.03-.72-.03-.68-.02-1.37-.03-2.06-.02-.69,0-1.38.03-2.06.06-.25,0-.49.03-.72.05-.43.03-.85.05-1.28.09-.31.03-.6.06-.91.09-.34.03-.69.06-1.01.11-.34.05-.66.09-.98.15-.29.05-.57.08-.86.12-.35.06-.71.14-1.06.2-.23.05-.46.09-.69.14-.38.08-.74.17-1.11.26-.18.05-.37.09-.54.14-.38.11-.77.22-1.14.34-.14.05-.26.08-.4.12-.4.12-.77.26-1.15.4-.09.03-.18.06-.26.09-.4.15-.77.31-1.12.48-.05.03-.11.05-.15.08-.38.17-.74.35-1.08.54-.03,0-.06.03-.09.05-.35.2-.68.4-.98.61,0,0-.02,0-.03.02-.4.28-.75.55-1.08.85h0c-.95.88-1.52,1.81-1.64,2.81.58.09,1.18.18,1.8.28l.05-.02Z"></path><path class="cls-6" d="M114.65,201.07c-.08-.49-.28-.98-.63-1.43-2.01-2.67-8.37-4.58-15.9-4.5-7.48.08-13.78,2.07-15.78,4.76-.43.57-.66,1.18-.66,1.81v.03c0,.06.02.12.03.2.09,1.12.94,2.17,2.32,3.07,2.89,1.86,8.17,3.09,14.23,3.03,5.76-.05,10.83-1.26,13.77-3.03,1.63-.98,2.58-2.14,2.67-3.38,0-.06.03-.12.03-.2,0-.12-.03-.23-.05-.35l-.03-.02ZM110.75,204.99c-2.8,1.54-7.34,2.58-12.51,2.63-5.42.05-10.2-1-12.97-2.63-1.46-.85-2.35-1.86-2.5-2.95-.02-.11-.05-.22-.05-.32v-.05c0-.94.57-1.81,1.55-2.61,2.49-2.03,7.74-3.47,13.86-3.52,6.15-.06,11.45,1.29,13.97,3.3.86.69,1.38,1.44,1.51,2.24.02.11.05.23.05.34s-.03.22-.05.32c-.15,1.2-1.18,2.3-2.87,3.24h.02Z"></path><path class="cls-10" d="M113.6,201.08c-.12-.8-.65-1.57-1.51-2.24-2.52-2-7.82-3.36-13.97-3.3-6.12.06-11.35,1.49-13.86,3.52-.98.8-1.54,1.67-1.55,2.61v.05c0,.11.03.22.05.32.15,1.09,1.04,2.11,2.5,2.95,2.78,1.63,7.54,2.67,12.97,2.63,5.16-.05,9.71-1.08,12.51-2.63,1.67-.92,2.72-2.04,2.87-3.24,0-.11.05-.22.05-.32,0-.12-.03-.23-.05-.34h-.02ZM104.03,202.64c0,.97-1.55,1.75-3.96,2.09v1.14l-4.01.03v-1.03c-1.29-.06-2.5-.23-3.36-.45l-.75-.2,1.37-1.52.06-.06.29.08,1.01.25c.83.22,1.94.32,2.97.32.83,0,1.78-.14,1.78-.51v-.05c-.05-.18-.32-.4-2.09-.66-1.03-.15-2.06-.34-2.92-.58-1.17-.34-2.01-.81-2.01-1.52,0-.92,1.48-1.67,3.8-2v-1.09h1.14l1.67-.03h1.18v.97c1,.05,1.87.17,2.69.34l.89.2-1.49,1.55-1.23-.26c-.4-.09-1.23-.26-2.58-.25-.94,0-1.46.15-1.46.38,0,.17.17.32,2.38.66,1.21.18,2.5.43,3.44.86.69.31,1.18.72,1.23,1.26,0,.03.02.05.02.08h-.05Z"></path><path class="cls-1" d="M102.79,201.3c-.92-.41-2.23-.68-3.44-.86-2.21-.34-2.38-.49-2.38-.66,0-.25.52-.38,1.46-.38,1.35,0,2.18.17,2.58.25l1.23.26,1.49-1.55-.89-.2c-.81-.18-1.71-.29-2.69-.34v-1h-1.18l-1.67.03h-1.14v1.11c-2.3.32-3.8,1.08-3.78,2,0,.71.85,1.17,2.01,1.52.86.25,1.89.43,2.92.58,1.77.26,2.06.48,2.09.66v.05c0,.37-.95.51-1.78.51-1.03,0-2.14-.11-2.97-.32l-1.01-.25-.29-.08-.06.06-1.37,1.52.75.2c.86.23,2.07.38,3.36.45v1.03l4.01-.03v-1.14c2.43-.32,3.98-1.12,3.96-2.09,0-.03-.02-.05-.02-.08-.05-.54-.52-.95-1.23-1.26l.03.02Z"></path><rect class="cls-10" x="109.6" y="174.33" width="140.81" height="74.8"></rect><polygon class="cls-9" points="307.81 229.39 250.21 249.12 250.21 174.33 307.81 154.6 307.81 229.39"></polygon><polygon class="cls-8" points="167.2 154.6 307.81 154.6 250.21 174.33 109.6 174.33 167.2 154.6"></polygon><polygon class="cls-1" points="186.56 161.33 236.19 161.33 222.84 166 173.21 166 186.56 161.33"></polygon><path class="cls-1" d="M184.59,208.4c-3.48-.87-3.81-1.4-3.91-2.07-.13-.9.58-1.54,1.96-1.74,2.01-.3,3.34.22,3.98.47l1.99.77,1.34-6.2-1.42-.57c-1.3-.52-2.69-.79-4.18-.8l-.57-3.79-5.92.89.62,4.16c-3.28,1.62-5.06,4.8-4.55,8.27.7,4.65,4.7,6.18,8.51,7.05,3.04.74,3.41,1.59,3.53,2.32.2,1.39-1.15,2.09-2.37,2.27-1.52.23-3.24,0-4.6-.65l-2.11-.99-1.24,6.27,1.22.62c1.4.72,3.31,1.1,5.25,1.1l.58,3.93,5.95-.89-.64-4.28c3.43-1.69,5.3-5.01,4.75-8.66-.75-5.05-4.78-6.65-8.17-7.47v-.02Z"></path><circle class="cls-3" cx="268.05" cy="235.59" r="28.19"></circle><path class="cls-1" d="M268.65,239.59c10.77-1.61,20.25-5.1,27.03-9.51-2.92-14.66-16.84-24.6-31.77-22.37-14.93,2.23-25.35,15.8-23.86,30.67,7.76,2.24,17.85,2.83,28.63,1.21h-.02Z"></path><circle class="cls-8" cx="268.05" cy="235.61" r="22.76"></circle><circle class="cls-10" cx="268.05" cy="235.59" r="21.31"></circle><path class="cls-1" d="M269.07,231.43c-3.2-.8-3.5-1.29-3.6-1.91-.12-.83.54-1.41,1.8-1.6,1.84-.28,3.07.2,3.66.43l1.83.71,1.23-5.7-1.31-.52c-1.2-.48-2.47-.72-3.84-.74l-.52-3.49-5.44.81.57,3.83c-3.01,1.49-4.66,4.41-4.18,7.61.65,4.27,4.32,5.69,7.82,6.48,2.8.68,3.13,1.46,3.24,2.14.18,1.28-1.06,1.92-2.18,2.09-1.4.22-2.98,0-4.23-.6l-1.94-.91-1.14,5.76,1.12.57c1.29.66,3.04,1.01,4.82,1.01l.54,3.61,5.47-.81-.58-3.93c3.15-1.55,4.87-4.61,4.36-7.96-.69-4.64-4.39-6.12-7.51-6.87v-.02Z"></path><path class="cls-4" d="M288.09,255.64c-3.1,2.92-9.8,5.38-17.76,6.16-8.31.81-15.63-.45-19.07-2.92-.65-.46-1.17-.97-1.52-1.51-.31-.49-.51-1-.55-1.54l.28,3.21c.43,4.39,9.9,7.07,21.16,5.98,10.92-1.06,19.5-5.29,19.59-9.56h.05l-.03-.38-.28-3.21c.06.57-.05,1.12-.28,1.67-.29.72-.85,1.41-1.55,2.11l-.03-.02Z"></path><path class="cls-3" d="M289.84,251.48h0c-.58.17-1.18.32-1.81.48-.66.17-1.34.32-2.04.49.03,1.24-.83,2.47-2.37,3.6-2.77,2.03-7.7,3.67-13.44,4.23-6.02.58-11.39-.17-14.43-1.77-1.46-.77-2.38-1.74-2.58-2.86-.55-.02-1.11-.03-1.63-.06-.17,0-.34-.02-.52-.03-.63-.03-1.24-.08-1.83-.12.03-1,.52-2,1.38-2.93-1,1.08-1.51,2.21-1.4,3.33.05.54.25,1.06.55,1.54.35.54.88,1.04,1.52,1.51,3.44,2.47,10.77,3.72,19.07,2.92,7.96-.77,14.66-3.23,17.76-6.16.72-.68,1.26-1.38,1.55-2.11.23-.55.34-1.12.28-1.67,0-.14-.06-.26-.09-.38h0l.03.02Z"></path><path class="cls-1" d="M251.01,255.57c.17,0,.34.02.52.03.52.03,1.08.05,1.63.06,0-.06-.03-.12-.05-.18v-.03c-.05-.63.12-1.24.51-1.86,1.77-2.84,7.85-5.39,15.3-6.13,7.48-.72,13.98.61,16.23,3.09.38.43.63.89.75,1.37.03.12.06.23.08.35v.2c.71-.15,1.38-.32,2.04-.49.61-.15,1.23-.32,1.81-.48h0s-.03-.08-.05-.11c-.32-1.24-1.4-2.35-3.04-3.23,0,0-.02,0-.03-.02-.32-.17-.68-.34-1.04-.51-.03,0-.06-.03-.09-.03-.35-.15-.74-.29-1.12-.43-.06-.02-.11-.03-.17-.05-.38-.12-.77-.25-1.17-.35-.09-.03-.18-.05-.28-.06-.38-.09-.78-.2-1.18-.28-.12-.03-.26-.05-.4-.08-.38-.08-.77-.15-1.17-.22-.18-.03-.37-.05-.54-.08-.37-.05-.75-.11-1.14-.15-.23-.03-.46-.05-.69-.06-.35-.03-.71-.06-1.08-.09-.28-.02-.57-.03-.86-.05-.34,0-.66-.03-1-.05h-1.94c-.41,0-.85.03-1.28.05-.25,0-.48,0-.72.03-.68.05-1.37.09-2.06.15-.69.06-1.38.15-2.04.25-.25.03-.48.08-.72.11-.41.06-.85.12-1.26.2-.31.06-.6.12-.89.17-.34.06-.68.12-1,.2-.34.08-.65.15-.97.23-.28.06-.57.14-.85.2-.35.09-.69.2-1.03.29-.23.06-.46.12-.68.2-.37.11-.72.23-1.08.35-.17.06-.35.12-.52.18-.38.14-.74.28-1.11.43-.12.05-.26.11-.38.15-.38.17-.75.34-1.11.51-.09.05-.17.08-.26.12-.38.18-.74.38-1.08.57-.05.03-.11.06-.15.09-.35.22-.71.41-1.03.63-.03.02-.06.03-.08.05-.34.23-.65.46-.94.69,0,0-.02.02-.03.03-.37.31-.71.61-1,.94h0c-.88.95-1.37,1.95-1.38,2.93.58.05,1.2.08,1.83.12l-.05.02Z"></path><path class="cls-6" d="M285.92,251.91c-.12-.49-.37-.95-.75-1.37-2.24-2.49-8.74-3.83-16.23-3.09-7.45.72-13.55,3.27-15.3,6.13-.38.61-.55,1.23-.51,1.86v.03c0,.06.03.12.05.18.2,1.11,1.12,2.07,2.58,2.86,3.04,1.6,8.42,2.37,14.43,1.77,5.75-.55,10.68-2.2,13.44-4.23,1.54-1.12,2.38-2.35,2.37-3.6v-.2c0-.12-.05-.23-.08-.35h0ZM282.37,256.15c-2.64,1.78-7.08,3.21-12.23,3.7-5.39.52-10.25-.09-13.15-1.48-1.52-.72-2.5-1.64-2.75-2.72-.03-.11-.06-.22-.08-.32v-.05c-.08-.92.41-1.86,1.31-2.73,2.3-2.24,7.41-4.13,13.49-4.73,6.12-.6,11.52.29,14.2,2.06.92.6,1.51,1.32,1.71,2.11.03.11.06.22.08.34v.32c-.05,1.2-.98,2.4-2.57,3.47v.03Z"></path><path class="cls-10" d="M284.88,252.02c-.2-.8-.78-1.51-1.71-2.11-2.67-1.78-8.08-2.66-14.2-2.06-6.08.6-11.19,2.49-13.49,4.73-.91.88-1.38,1.81-1.31,2.73v.05c0,.11.05.22.08.32.26,1.08,1.23,2,2.75,2.72,2.9,1.37,7.76,2,13.15,1.48,5.13-.51,9.57-1.92,12.23-3.7,1.6-1.08,2.54-2.27,2.57-3.47,0-.11.02-.22,0-.32,0-.12-.05-.23-.08-.34v-.03ZM275.47,254.4c.09.95-1.38,1.89-3.78,2.43l.03.26.08.86-3.99.38-.09-.89v-.14c-1.29.05-2.54,0-3.4-.15l-.77-.14,1.23-1.63.05-.08.29.05,1.03.17c.85.14,1.97.15,2.98.06.83-.08,1.77-.31,1.74-.66v-.05c-.06-.18-.35-.37-2.15-.48-1.04-.06-2.09-.15-2.97-.32-1.2-.23-2.07-.63-2.15-1.34-.09-.91,1.32-1.8,3.61-2.32l-.11-1.08h0l1.12-.14,1.66-.17,1.18-.12v.03l.09.97c.98-.03,1.87,0,2.7.11l.91.11-1.34,1.69-1.26-.15c-.4-.05-1.24-.15-2.6-.02-.92.09-1.44.28-1.41.52.02.17.2.31,2.44.45,1.23.08,2.54.22,3.5.55.72.25,1.23.61,1.34,1.15,0,.03.03.05.03.08h0Z"></path><path class="cls-1" d="M274.11,253.17c-.95-.34-2.27-.48-3.5-.55-2.23-.14-2.41-.28-2.44-.45-.03-.23.49-.43,1.41-.52,1.35-.14,2.18-.03,2.6.02l1.26.15,1.34-1.69-.91-.11c-.83-.11-1.72-.14-2.7-.11l-.09-.97v-.03l-1.18.12-1.66.17-1.12.11h0l.11,1.09c-2.27.52-3.69,1.41-3.61,2.32.06.71.95,1.09,2.15,1.34.88.17,1.92.26,2.97.32,1.78.11,2.09.29,2.15.48v.05c.03.37-.91.58-1.74.66-1.01.09-2.14.08-2.98-.06l-1.03-.17-.29-.05-.05.08-1.23,1.63.77.14c.88.15,2.11.22,3.38.15v.14l.11.89,3.99-.38-.08-.86-.03-.26c2.38-.54,3.87-1.48,3.78-2.43,0-.03-.02-.05-.03-.08-.09-.54-.61-.91-1.34-1.15v.02Z"></path><circle class="cls-3" cx="301.55" cy="243.78" r="23.91"></circle><path class="cls-1" d="M300.92,247.13c9.08,1.71,17.64,1.52,24.28-.12,1.72-12.55-6.67-24.37-19.25-26.74s-24.69,5.62-27.63,17.95c5.59,3.95,13.52,7.21,22.59,8.91h.02Z"></path><circle class="cls-6" cx="301.55" cy="243.77" r="19.28"></circle><circle class="cls-10" cx="301.55" cy="243.77" r="18.05"></circle><path class="cls-1" d="M303.52,240.71c-2.34-1.52-2.46-2.01-2.35-2.54.14-.71.81-.98,1.89-.78,1.55.29,2.4,1.01,2.81,1.35l1.26,1.08,2.57-4.21-.91-.78c-.83-.72-1.78-1.26-2.87-1.66l.55-2.93-4.58-.86-.6,3.23c-2.83.37-4.95,2.24-5.45,4.93-.68,3.6,1.89,5.75,4.47,7.36,2.04,1.32,2.11,2.03,2,2.61-.2,1.08-1.38,1.24-2.32,1.06-1.18-.22-2.38-.83-3.21-1.64l-1.29-1.26-2.52,4.3.74.77c.85.88,2.15,1.66,3.58,2.15l-.57,3.04,4.61.86.61-3.32c2.95-.37,5.18-2.34,5.7-5.16.74-3.9-1.81-6.12-4.12-7.59h0Z"></path><path class="cls-4" d="M134.09,251.43c-3.35,2.64-10.23,4.5-18.24,4.58-8.34.08-15.53-1.81-18.75-4.58-.6-.52-1.08-1.06-1.38-1.64-.28-.51-.41-1.04-.43-1.58v3.23c.05,4.41,9.23,7.91,20.54,7.81,10.97-.11,19.88-3.56,20.36-7.81h.05v-3.61c0,.57-.14,1.12-.43,1.64-.35.69-.95,1.34-1.74,1.95l.02.02Z"></path><path class="cls-3" d="M136.2,247.44h0c-.58.11-1.21.22-1.84.32-.66.11-1.37.22-2.07.31-.08,1.23-1.04,2.4-2.67,3.38-2.93,1.78-7.99,2.98-13.77,3.03-6.04.06-11.32-1.17-14.23-3.03-1.4-.89-2.23-1.94-2.32-3.07-.55-.06-1.09-.14-1.61-.2-.17-.03-.34-.05-.51-.08-.61-.09-1.23-.18-1.8-.28.11-.98.69-1.94,1.64-2.81-1.09.98-1.71,2.07-1.69,3.2,0,.54.15,1.08.43,1.58.31.57.78,1.12,1.38,1.64,3.21,2.77,10.4,4.66,18.75,4.58,8.01-.08,14.89-1.94,18.24-4.58.78-.61,1.38-1.28,1.74-1.95.28-.54.43-1.09.43-1.64,0-.14-.03-.26-.06-.38h0l-.03-.02Z"></path><path class="cls-1" d="M97.17,248.1c.17.03.34.05.51.08.52.08,1.06.14,1.61.2,0-.06-.03-.12-.03-.2v-.03c0-.63.25-1.23.66-1.81,2-2.69,8.3-4.69,15.78-4.76,7.53-.08,13.87,1.84,15.9,4.5.34.46.55.94.63,1.43.02.12.05.23.05.35,0,.06-.02.12-.03.2.71-.09,1.41-.2,2.07-.31.63-.11,1.26-.2,1.84-.32h0s-.03-.08-.03-.12c-.22-1.28-1.18-2.46-2.75-3.49,0,0-.02,0-.03-.02-.31-.2-.65-.4-1-.58-.03,0-.06-.03-.09-.05-.34-.18-.71-.35-1.09-.52-.05-.03-.11-.05-.17-.06-.37-.15-.74-.31-1.14-.46-.09-.03-.18-.06-.26-.09-.37-.14-.75-.26-1.15-.38-.12-.03-.26-.08-.38-.11-.37-.11-.75-.22-1.15-.31-.17-.05-.35-.08-.54-.12-.37-.09-.74-.17-1.12-.25-.23-.05-.46-.08-.69-.12-.35-.06-.71-.12-1.06-.18-.28-.05-.57-.08-.86-.11-.32-.05-.66-.09-.98-.12-.34-.03-.68-.06-1.03-.09-.31-.03-.6-.06-.91-.08-.41-.03-.85-.05-1.28-.06-.25,0-.48-.03-.72-.03-.68-.02-1.37-.03-2.06-.02-.69,0-1.38.03-2.06.06-.25,0-.49.03-.72.05-.43.03-.85.05-1.28.09-.31.03-.6.06-.91.09-.34.03-.69.06-1.01.11-.34.05-.66.09-.98.15-.29.05-.57.08-.86.12-.35.06-.71.14-1.06.2-.23.05-.46.09-.69.14-.38.08-.74.17-1.11.26-.18.05-.37.09-.54.14-.38.11-.77.22-1.14.34-.14.05-.26.08-.4.12-.4.12-.77.26-1.15.4-.09.03-.18.06-.26.09-.4.15-.77.31-1.12.48-.05.03-.11.05-.15.08-.38.17-.74.35-1.08.54-.03,0-.06.03-.09.05-.35.2-.68.4-.98.61,0,0-.02,0-.03.02-.4.28-.75.55-1.08.85h0c-.95.88-1.52,1.81-1.64,2.81.58.09,1.18.18,1.8.28l.05-.02Z"></path><path class="cls-6" d="M132.25,247.51c-.08-.49-.28-.98-.63-1.43-2.01-2.67-8.37-4.58-15.9-4.5-7.48.08-13.78,2.07-15.78,4.76-.43.57-.66,1.18-.66,1.81v.03c0,.06.02.12.03.2.09,1.12.94,2.17,2.32,3.07,2.89,1.86,8.17,3.09,14.23,3.03,5.76-.05,10.83-1.26,13.77-3.03,1.63-.98,2.58-2.14,2.67-3.38,0-.06.03-.12.03-.2,0-.12-.03-.23-.05-.35l-.03-.02ZM128.35,251.43c-2.8,1.54-7.34,2.58-12.51,2.63-5.42.05-10.2-1-12.97-2.63-1.46-.85-2.35-1.86-2.5-2.95-.02-.11-.05-.22-.05-.32v-.05c0-.94.57-1.81,1.55-2.61,2.49-2.03,7.74-3.47,13.86-3.52,6.15-.06,11.45,1.29,13.97,3.3.86.69,1.38,1.44,1.51,2.24.02.11.05.23.05.34s-.03.22-.05.32c-.15,1.2-1.18,2.3-2.87,3.24h.02Z"></path><path class="cls-10" d="M131.21,247.53c-.12-.8-.65-1.57-1.51-2.24-2.52-2-7.82-3.36-13.97-3.3-6.12.06-11.35,1.49-13.86,3.52-.98.8-1.54,1.67-1.55,2.61v.05c0,.11.03.22.05.32.15,1.09,1.04,2.11,2.5,2.95,2.78,1.63,7.54,2.67,12.97,2.63,5.16-.05,9.71-1.08,12.51-2.63,1.67-.92,2.72-2.04,2.87-3.24,0-.11.05-.22.05-.32,0-.12-.03-.23-.05-.34h-.02ZM121.63,249.08c0,.97-1.55,1.75-3.96,2.09v1.14l-4.01.03v-1.03c-1.29-.06-2.5-.23-3.36-.45l-.75-.2,1.37-1.52.06-.06.29.08,1.01.25c.83.22,1.94.32,2.97.32.83,0,1.78-.14,1.78-.51v-.05c-.05-.18-.32-.4-2.09-.66-1.03-.15-2.06-.34-2.92-.58-1.17-.34-2.01-.81-2.01-1.52,0-.92,1.48-1.67,3.8-2v-1.09h1.14l1.67-.03h1.18v.97c1,.05,1.87.17,2.69.34l.89.2-1.49,1.55-1.23-.26c-.4-.09-1.23-.26-2.58-.25-.94,0-1.46.15-1.46.38,0,.17.17.32,2.38.66,1.21.18,2.5.43,3.44.86.69.31,1.18.72,1.23,1.26,0,.03.02.05.02.08h-.05Z"></path><path class="cls-1" d="M120.39,247.74c-.92-.41-2.23-.68-3.44-.86-2.21-.34-2.38-.49-2.38-.66,0-.25.52-.38,1.46-.38,1.35,0,2.18.17,2.58.25l1.23.26,1.49-1.55-.89-.2c-.81-.18-1.71-.29-2.69-.34v-1h-1.18l-1.67.03h-1.14v1.11c-2.3.32-3.8,1.08-3.78,2,0,.71.85,1.17,2.01,1.52.86.25,1.89.43,2.92.58,1.77.26,2.06.48,2.09.66v.05c0,.37-.95.51-1.78.51-1.03,0-2.14-.11-2.97-.32l-1.01-.25-.29-.08-.06.06-1.37,1.52.75.2c.86.23,2.07.38,3.36.45v1.03l4.01-.03v-1.14c2.43-.32,3.98-1.12,3.96-2.09,0-.03-.02-.05-.02-.08-.05-.54-.52-.95-1.23-1.26l.03.02Z"></path><path class="cls-4" d="M121.83,243.04c-3.1,2.92-9.8,5.38-17.76,6.16-8.31.81-15.63-.45-19.07-2.92-.65-.46-1.17-.97-1.52-1.51-.31-.49-.51-1-.55-1.54l.28,3.21c.43,4.39,9.9,7.07,21.16,5.98,10.92-1.06,19.5-5.29,19.59-9.56h.05l-.03-.38-.28-3.21c.06.57-.05,1.12-.28,1.67-.29.72-.85,1.41-1.55,2.11l-.03-.02Z"></path><path class="cls-3" d="M123.58,238.86h0c-.58.17-1.18.32-1.81.48-.66.17-1.34.32-2.04.49.03,1.24-.83,2.47-2.37,3.6-2.77,2.03-7.7,3.67-13.44,4.23-6.02.58-11.39-.17-14.43-1.77-1.46-.77-2.38-1.74-2.58-2.86-.55-.02-1.11-.03-1.63-.06-.17,0-.34-.02-.52-.03-.63-.03-1.24-.08-1.83-.12.03-1,.52-2,1.38-2.93-1,1.08-1.51,2.21-1.4,3.33.05.54.25,1.06.55,1.54.35.54.88,1.04,1.52,1.51,3.44,2.47,10.77,3.72,19.07,2.92,7.96-.77,14.66-3.23,17.76-6.16.72-.68,1.26-1.38,1.55-2.11.23-.55.34-1.12.28-1.67,0-.14-.06-.26-.09-.38h0l.03.02Z"></path><path class="cls-1" d="M84.76,242.95c.17,0,.34.02.52.03.52.03,1.08.05,1.63.06,0-.06-.03-.12-.05-.18v-.03c-.05-.63.12-1.24.51-1.86,1.77-2.84,7.85-5.39,15.3-6.13,7.48-.72,13.98.61,16.23,3.09.38.43.63.89.75,1.37.03.12.06.23.08.35v.2c.71-.15,1.38-.32,2.04-.49.61-.15,1.23-.32,1.81-.48h0s-.03-.08-.05-.11c-.32-1.24-1.4-2.35-3.04-3.23,0,0-.02,0-.03-.02-.32-.17-.68-.34-1.04-.51-.03,0-.06-.03-.09-.03-.35-.15-.74-.29-1.12-.43-.06-.02-.11-.03-.17-.05-.38-.12-.77-.25-1.17-.35-.09-.03-.18-.05-.28-.06-.38-.09-.78-.2-1.18-.28-.12-.03-.26-.05-.4-.08-.38-.08-.77-.15-1.17-.22-.18-.03-.37-.05-.54-.08-.37-.05-.75-.11-1.14-.15-.23-.03-.46-.05-.69-.06-.35-.03-.71-.06-1.08-.09-.28-.02-.57-.03-.86-.05-.34,0-.66-.03-1-.05h-1.94c-.41,0-.85.03-1.28.05-.25,0-.48,0-.72.03-.68.05-1.37.09-2.06.15-.69.06-1.38.15-2.04.25-.25.03-.48.08-.72.11-.41.06-.85.12-1.26.2-.31.06-.6.12-.89.17-.34.06-.68.12-1,.2-.34.08-.65.15-.97.23-.28.06-.57.14-.85.2-.35.09-.69.2-1.03.29-.23.06-.46.12-.68.2-.37.11-.72.23-1.08.35-.17.06-.35.12-.52.18-.38.14-.74.28-1.11.43-.12.05-.26.11-.38.15-.38.17-.75.34-1.11.51-.09.05-.17.08-.26.12-.38.18-.74.38-1.08.57-.05.03-.11.06-.15.09-.35.22-.71.41-1.03.63-.03.02-.06.03-.08.05-.34.23-.65.46-.94.69,0,0-.02.02-.03.03-.37.31-.71.61-1,.94h0c-.88.95-1.37,1.95-1.38,2.93.58.05,1.2.08,1.83.12l-.05.02Z"></path><path class="cls-6" d="M119.65,239.29c-.12-.49-.37-.95-.75-1.37-2.24-2.49-8.74-3.83-16.23-3.09-7.45.72-13.55,3.27-15.3,6.13-.38.61-.55,1.23-.51,1.86v.03c0,.06.03.12.05.18.2,1.11,1.12,2.07,2.58,2.86,3.04,1.6,8.42,2.37,14.43,1.77,5.75-.55,10.68-2.2,13.44-4.23,1.54-1.12,2.38-2.35,2.37-3.6v-.2c0-.12-.05-.23-.08-.35h0ZM116.1,243.53c-2.64,1.78-7.08,3.21-12.23,3.7-5.39.52-10.25-.09-13.15-1.48-1.52-.72-2.5-1.64-2.75-2.72-.03-.11-.06-.22-.08-.32v-.05c-.08-.92.41-1.86,1.31-2.73,2.3-2.24,7.41-4.13,13.49-4.73,6.12-.6,11.52.29,14.2,2.06.92.6,1.51,1.32,1.71,2.11.03.11.06.22.08.34v.32c-.05,1.2-.98,2.4-2.57,3.47v.03Z"></path><path class="cls-10" d="M118.61,239.4c-.2-.8-.78-1.51-1.71-2.11-2.67-1.78-8.08-2.66-14.2-2.06-6.08.6-11.19,2.49-13.49,4.73-.91.88-1.38,1.81-1.31,2.73v.05c0,.11.05.22.08.32.26,1.08,1.23,2,2.75,2.72,2.9,1.37,7.76,2,13.15,1.48,5.13-.51,9.57-1.92,12.23-3.7,1.6-1.08,2.54-2.27,2.57-3.47,0-.11.02-.22,0-.32,0-.12-.05-.23-.08-.34v-.03ZM109.2,241.78c.09.95-1.38,1.89-3.78,2.43l.03.26.08.86-3.99.38-.09-.89v-.14c-1.29.05-2.54,0-3.4-.15l-.77-.14,1.23-1.63.05-.08.29.05,1.03.17c.85.14,1.97.15,2.98.06.83-.08,1.77-.31,1.74-.66v-.05c-.06-.18-.35-.37-2.15-.48-1.04-.06-2.09-.15-2.97-.32-1.2-.23-2.07-.63-2.15-1.34-.09-.91,1.32-1.8,3.61-2.32l-.11-1.08h0l1.12-.14,1.66-.17,1.18-.12v.03l.09.97c.98-.03,1.87,0,2.7.11l.91.11-1.34,1.69-1.26-.15c-.4-.05-1.24-.15-2.6-.02-.92.09-1.44.28-1.41.52.02.17.2.31,2.44.45,1.23.08,2.54.22,3.5.55.72.25,1.23.61,1.34,1.15,0,.03.03.05.03.08h0Z"></path><path class="cls-1" d="M107.85,240.55c-.95-.34-2.27-.48-3.5-.55-2.23-.14-2.41-.28-2.44-.45-.03-.23.49-.43,1.41-.52,1.35-.14,2.18-.03,2.6.02l1.26.15,1.34-1.69-.91-.11c-.83-.11-1.72-.14-2.7-.11l-.09-.97v-.03l-1.18.12-1.66.17-1.12.11h0l.11,1.09c-2.27.52-3.69,1.41-3.61,2.32.06.71.95,1.09,2.15,1.34.88.17,1.92.26,2.97.32,1.78.11,2.09.29,2.15.48v.05c.03.37-.91.58-1.74.66-1.01.09-2.14.08-2.98-.06l-1.03-.17-.29-.05-.05.08-1.23,1.63.77.14c.88.15,2.11.22,3.38.15v.14l.11.89,3.99-.38-.08-.86-.03-.26c2.38-.54,3.87-1.48,3.78-2.43,0-.03-.02-.05-.03-.08-.09-.54-.61-.91-1.34-1.15v.02Z"></path><polygon class="cls-2" points="95.57 119.55 95.57 154.71 109.42 154.71 87.9 175.68 66.38 154.71 80.35 154.71 80.34 119.35 95.57 119.55"></polygon></g></svg>