<svg xmlns="http://www.w3.org/2000/svg" xmlns:xlink="http://www.w3.org/1999/xlink" id="Layer_2" viewBox="0 0 420.71 363.1"><defs><style>.cls-1{fill:url(#linear-gradient-15);}.cls-2{fill:url(#linear-gradient-13);}.cls-3{fill:url(#linear-gradient-28);}.cls-4{fill:url(#linear-gradient-42);}.cls-5{fill:url(#linear-gradient-2);}.cls-6{fill:url(#linear-gradient-25);}.cls-7{fill:url(#linear-gradient-10);}.cls-8{fill:url(#linear-gradient-12);}.cls-9{fill:url(#linear-gradient-40);}.cls-10{fill:url(#linear-gradient-27);}.cls-11{fill:url(#linear-gradient-37);}.cls-12{fill:#fff;}.cls-13{fill:url(#linear-gradient-39);}.cls-14{fill:url(#linear-gradient-26);}.cls-15{fill:url(#linear-gradient-4);}.cls-16{fill:url(#linear-gradient-35);}.cls-17{fill:url(#linear-gradient-30);}.cls-18{fill:url(#radial-gradient);}.cls-19{fill:url(#linear-gradient-3);}.cls-20{fill:url(#linear-gradient-34);}.cls-21{fill:url(#linear-gradient-5);}.cls-22{fill:url(#linear-gradient-38);}.cls-23{fill:url(#linear-gradient-22);}.cls-24{fill:url(#linear-gradient-24);}.cls-25{fill:#3a4869;}.cls-26{fill:url(#linear-gradient-33);}.cls-27{fill:url(#linear-gradient-8);}.cls-28{fill:url(#linear-gradient-14);}.cls-29{fill:url(#linear-gradient-29);}.cls-30{opacity:.15;}.cls-30,.cls-31{isolation:isolate;}.cls-32{fill:url(#linear-gradient-20);}.cls-33{fill:url(#linear-gradient-17);}.cls-34{fill:url(#linear-gradient-7);}.cls-35{fill:url(#linear-gradient-9);}.cls-36{fill:url(#linear-gradient-11);}.cls-37{fill:url(#linear-gradient-19);}.cls-38{fill:url(#linear-gradient-6);}.cls-39{fill:url(#linear-gradient-36);}.cls-40{fill:url(#linear-gradient-21);}.cls-41{fill:none;stroke:#3a4868;stroke-dasharray:3.84 3.84;stroke-width:1.92px;}.cls-42{fill:url(#linear-gradient-32);}.cls-43{fill:url(#linear-gradient-41);}.cls-44{fill:url(#linear-gradient-16);}.cls-45{fill:url(#linear-gradient-23);}.cls-46{fill:url(#linear-gradient-31);}.cls-47{fill:url(#linear-gradient-18);}.cls-31{fill:url(#linear-gradient);fill-opacity:.5;opacity:.24;}</style><linearGradient id="linear-gradient" x1="20.74" y1="1112.52" x2="92.52" y2="1112.52" gradientTransform="translate(0 -891)" gradientUnits="userSpaceOnUse"><stop offset="0" stop-color="#214896"></stop><stop offset="1" stop-color="#6ac9cf"></stop></linearGradient><linearGradient id="linear-gradient-2" x1="273.14" y1="448.71" x2="321.8" y2="448.71" gradientTransform="translate(0 546.59) scale(1 -1)" xlink:href="#linear-gradient"></linearGradient><linearGradient id="linear-gradient-3" x1="285.06" y1="492.34" x2="287.12" y2="492.34" gradientTransform="translate(0 546.59) scale(1 -1)" xlink:href="#linear-gradient"></linearGradient><linearGradient id="linear-gradient-4" x1="303.83" y1="493.32" x2="305.89" y2="493.32" gradientTransform="translate(0 546.59) scale(1 -1)" xlink:href="#linear-gradient"></linearGradient><linearGradient id="linear-gradient-5" x1="289.48" y1="483.91" x2="291.51" y2="483.91" gradientTransform="translate(0 546.59) scale(1 -1)" xlink:href="#linear-gradient"></linearGradient><linearGradient id="linear-gradient-6" x1="307.82" y1="492.63" x2="309.85" y2="492.63" gradientTransform="translate(0 546.59) scale(1 -1)" xlink:href="#linear-gradient"></linearGradient><linearGradient id="linear-gradient-7" x1="293.88" y1="493.7" x2="295.93" y2="493.7" gradientTransform="translate(0 546.59) scale(1 -1)" xlink:href="#linear-gradient"></linearGradient><linearGradient id="linear-gradient-8" x1="293.88" y1="478.1" x2="295.93" y2="478.1" gradientTransform="translate(0 546.59) scale(1 -1)" xlink:href="#linear-gradient"></linearGradient><linearGradient id="linear-gradient-9" x1="298.21" y1="500.71" x2="300.26" y2="500.71" gradientTransform="translate(0 546.59) scale(1 -1)" xlink:href="#linear-gradient"></linearGradient><linearGradient id="linear-gradient-10" x1="298.21" y1="485.1" x2="300.26" y2="485.1" gradientTransform="translate(0 546.59) scale(1 -1)" xlink:href="#linear-gradient"></linearGradient><linearGradient id="linear-gradient-11" x1="298.21" y1="476.83" x2="300.26" y2="476.83" gradientTransform="translate(0 546.59) scale(1 -1)" xlink:href="#linear-gradient"></linearGradient><linearGradient id="linear-gradient-12" x1="327.28" y1="399.02" x2="357.71" y2="399.02" gradientTransform="translate(0 546.59) scale(1 -1)" xlink:href="#linear-gradient"></linearGradient><linearGradient id="linear-gradient-13" x1="334.76" y1="426.31" x2="336.02" y2="426.31" gradientTransform="translate(0 546.59) scale(1 -1)" xlink:href="#linear-gradient"></linearGradient><linearGradient id="linear-gradient-14" x1="346.49" y1="426.93" x2="347.76" y2="426.93" gradientTransform="translate(0 546.59) scale(1 -1)" xlink:href="#linear-gradient"></linearGradient><linearGradient id="linear-gradient-15" x1="337.5" y1="421.04" x2="338.79" y2="421.04" gradientTransform="translate(0 546.59) scale(1 -1)" xlink:href="#linear-gradient"></linearGradient><linearGradient id="linear-gradient-16" x1="348.97" y1="426.49" x2="350.24" y2="426.49" gradientTransform="translate(0 546.59) scale(1 -1)" xlink:href="#linear-gradient"></linearGradient><linearGradient id="linear-gradient-17" x1="340.27" y1="427.17" x2="341.54" y2="427.17" gradientTransform="translate(0 546.59) scale(1 -1)" xlink:href="#linear-gradient"></linearGradient><linearGradient id="linear-gradient-18" x1="340.27" y1="417.41" x2="341.54" y2="417.41" gradientTransform="translate(0 546.59) scale(1 -1)" xlink:href="#linear-gradient"></linearGradient><linearGradient id="linear-gradient-19" x1="342.96" y1="431.55" x2="344.25" y2="431.55" gradientTransform="translate(0 546.59) scale(1 -1)" xlink:href="#linear-gradient"></linearGradient><linearGradient id="linear-gradient-20" x1="342.96" y1="421.79" x2="344.25" y2="421.79" gradientTransform="translate(0 546.59) scale(1 -1)" xlink:href="#linear-gradient"></linearGradient><linearGradient id="linear-gradient-21" x1="342.96" y1="416.61" x2="344.25" y2="416.61" gradientTransform="translate(0 546.59) scale(1 -1)" xlink:href="#linear-gradient"></linearGradient><linearGradient id="linear-gradient-22" x1="235.49" y1="455.19" x2="255.78" y2="455.19" gradientTransform="translate(0 546.59) scale(1 -1)" xlink:href="#linear-gradient"></linearGradient><linearGradient id="linear-gradient-23" x1="240.47" y1="473.37" x2="241.32" y2="473.37" gradientTransform="translate(0 546.59) scale(1 -1)" xlink:href="#linear-gradient"></linearGradient><linearGradient id="linear-gradient-24" x1="248.29" y1="473.79" x2="249.15" y2="473.79" gradientTransform="translate(0 546.59) scale(1 -1)" xlink:href="#linear-gradient"></linearGradient><linearGradient id="linear-gradient-25" x1="242.31" y1="469.86" x2="243.16" y2="469.86" gradientTransform="translate(0 546.59) scale(1 -1)" xlink:href="#linear-gradient"></linearGradient><linearGradient id="linear-gradient-26" x1="249.94" y1="473.51" x2="250.81" y2="473.51" gradientTransform="translate(0 546.59) scale(1 -1)" xlink:href="#linear-gradient"></linearGradient><linearGradient id="linear-gradient-27" x1="244.14" y1="473.95" x2="244.98" y2="473.95" gradientTransform="translate(0 546.59) scale(1 -1)" xlink:href="#linear-gradient"></linearGradient><linearGradient id="linear-gradient-28" x1="244.14" y1="467.44" x2="244.98" y2="467.44" gradientTransform="translate(0 546.59) scale(1 -1)" xlink:href="#linear-gradient"></linearGradient><linearGradient id="linear-gradient-29" x1="245.94" y1="476.87" x2="246.79" y2="476.87" gradientTransform="translate(0 546.59) scale(1 -1)" xlink:href="#linear-gradient"></linearGradient><linearGradient id="linear-gradient-30" x1="245.94" y1="470.36" x2="246.79" y2="470.36" gradientTransform="translate(0 546.59) scale(1 -1)" xlink:href="#linear-gradient"></linearGradient><linearGradient id="linear-gradient-31" x1="245.94" y1="466.91" x2="246.79" y2="466.91" gradientTransform="translate(0 546.59) scale(1 -1)" xlink:href="#linear-gradient"></linearGradient><linearGradient id="linear-gradient-32" x1="61.96" y1="56.76" x2="61.96" y2="57.02" gradientUnits="userSpaceOnUse"><stop offset="0" stop-color="#67c9cf"></stop><stop offset=".22" stop-color="#63c5cd"></stop><stop offset=".4" stop-color="#59bbc7"></stop><stop offset=".58" stop-color="#49a9be"></stop><stop offset=".75" stop-color="#3190b1"></stop><stop offset=".91" stop-color="#1470a0"></stop><stop offset="1" stop-color="#005b95"></stop></linearGradient><linearGradient id="linear-gradient-33" x1="208.49" y1="57.02" x2="208.49" y2="217.8" xlink:href="#linear-gradient-32"></linearGradient><linearGradient id="linear-gradient-34" x1="129.35" y1="999.57" x2="129.35" y2="1175.37" gradientTransform="translate(0 -891)" gradientUnits="userSpaceOnUse"><stop offset="0" stop-color="#67c9cf"></stop><stop offset="1" stop-color="#005b95"></stop></linearGradient><linearGradient id="linear-gradient-35" x1="180.68" y1="1023.63" x2="180.68" xlink:href="#linear-gradient-34"></linearGradient><linearGradient id="linear-gradient-36" x1="232.01" y1="1052.44" x2="232.01" xlink:href="#linear-gradient-34"></linearGradient><linearGradient id="linear-gradient-37" x1="283.36" y1="1077.64" x2="283.36" xlink:href="#linear-gradient-34"></linearGradient><linearGradient id="linear-gradient-38" x1="334.69" y1="1116.09" x2="334.69" xlink:href="#linear-gradient-34"></linearGradient><linearGradient id="linear-gradient-39" x1="78.01" y1="966.32" x2="78.01" xlink:href="#linear-gradient-34"></linearGradient><linearGradient id="linear-gradient-40" x1="-234.17" y1="1101.86" x2="-234.17" y2="1038.87" gradientTransform="translate(446.77 -1434.35) scale(1.56)" xlink:href="#linear-gradient-34"></linearGradient><radialGradient id="radial-gradient" cx="-234.17" cy="1074.37" fx="-234.17" fy="1074.37" r="22.08" gradientTransform="translate(446.77 -1434.35) scale(1.56)" gradientUnits="userSpaceOnUse"><stop offset="0" stop-color="#e7faff"></stop><stop offset=".27" stop-color="#ecfbff"></stop><stop offset="1" stop-color="#f6feff"></stop></radialGradient><linearGradient id="linear-gradient-41" x1="-238.64" y1="1082.34" x2="-238.64" y2="1065.63" gradientTransform="translate(446.77 -1434.35) scale(1.56)" gradientUnits="userSpaceOnUse"><stop offset="0" stop-color="#6f6f6f"></stop><stop offset="0" stop-color="#6f6f6f"></stop><stop offset=".38" stop-color="gray"></stop><stop offset="1" stop-color="#a4a4a4"></stop></linearGradient><linearGradient id="linear-gradient-42" x1="-234.17" y1="1048.62" x2="-234.17" y2="1040.18" gradientTransform="translate(446.77 -1434.35) scale(1.56)" xlink:href="#linear-gradient-34"></linearGradient></defs><g id="Layer_1-2"><path class="cls-12" d="M0,9.66C0,4.32,4.3,0,9.61,0h401.5c5.3,0,9.61,4.32,9.61,9.66v343.77c0,5.34-4.3,9.66-9.61,9.66H9.61c-5.3,0-9.61-4.32-9.61-9.66V9.66Z"></path><path class="cls-41" d="M57.63,306.81h305.45"></path><path class="cls-31" d="M44.66,188.88l.77,3.82c-1.65.67-3.23,1.47-4.73,2.41l-2.57-2.91c-.7-.8-1.91-.86-2.71-.14l-4.99,4.46c-.8.71-.88,1.94-.17,2.74l2.59,2.95c-1.1,1.4-2.07,2.89-2.92,4.46l-3.73-1.24c-1.01-.33-2.09.23-2.45,1.24l-2.15,6.4c-.34,1.03.2,2.12,1.2,2.47l3.75,1.25c-.27,1.75-.37,3.53-.34,5.34l-3.9.83c-1.05.23-1.72,1.27-1.52,2.32l1.3,6.66c.21,1.07,1.23,1.75,2.28,1.52l3.92-.83c.64,1.7,1.43,3.31,2.34,4.82l-2.99,2.71c-.81.73-.88,1.98-.19,2.79l4.43,5.12c.71.83,1.94.9,2.75.16l2.99-2.71c1.4,1.13,2.88,2.12,4.43,2.99l-1.27,3.86c-.34,1.04.21,2.18,1.23,2.52l6.41,2.17c1.03.34,2.14-.23,2.48-1.27l1.25-3.83c1.75.27,3.55.37,5.36.31l.8,3.96c.21,1.08,1.25,1.78,2.32,1.55l6.63-1.4c1.05-.23,1.74-1.28,1.51-2.37l-.81-3.92c1.7-.68,3.31-1.5,4.83-2.45l2.61,2.96c.73.83,1.97.9,2.76.16l5.03-4.59c.8-.73.87-2,.14-2.81l-2.59-2.94c1.11-1.44,2.09-2.98,2.95-4.59l3.68,1.23c1.03.34,2.12-.23,2.47-1.27l2.07-6.5c.33-1.04-.24-2.15-1.27-2.49l-3.65-1.21c.24-1.78.33-3.62.26-5.46l3.75-.8c1.05-.23,1.72-1.27,1.5-2.32l-1.43-6.63c-.23-1.05-1.25-1.74-2.31-1.51l-3.73.78c-.68-1.7-1.5-3.32-2.45-4.83l2.82-2.55c.8-.71.86-1.95.14-2.75l-4.47-4.99c-.71-.8-1.94-.87-2.72-.14l-2.84,2.57c-1.41-1.1-2.91-2.08-4.49-2.92l1.18-3.65c.33-1.01-.23-2.11-1.24-2.44l-6.31-2.07c-1.01-.33-2.09.23-2.42,1.24l-1.2,3.65c-1.74-.24-3.51-.33-5.3-.26l-.78-3.79c-.21-1.04-1.23-1.71-2.27-1.48l-6.5,1.37c-1.04.21-1.71,1.24-1.5,2.28v-.03h0ZM33.59,225.98c-2.57-12.88,5.66-25.44,18.34-28.12s25.14,5.5,27.85,18.34c2.71,12.93-5.47,25.67-18.3,28.37-12.83,2.71-25.32-5.64-27.89-18.6Z"></path><path class="cls-25" d="M111.61,336.16v-14.75h5.5c1.19,0,2.18.2,2.95.61.77.41,1.35.95,1.73,1.63.38.68.57,1.44.57,2.27s-.18,1.52-.55,2.2-.94,1.23-1.72,1.64c-.78.42-1.78.62-3,.62h-2.63v5.78h-2.85ZM114.45,328.31h2.49c.86,0,1.49-.21,1.9-.63.41-.42.61-.98.61-1.67s-.2-1.23-.6-1.63c-.4-.4-1.04-.6-1.91-.6h-2.49v4.53ZM119.26,336.16l-3.04-6.49h3.08l3.2,6.49h-3.25Z"></path><path class="cls-25" d="M129.31,336.41c-1.07,0-2.01-.23-2.83-.68-.82-.46-1.46-1.1-1.92-1.92-.46-.82-.69-1.77-.69-2.86s.22-2.09.67-2.94c.45-.85,1.08-1.52,1.91-2,.82-.48,1.77-.73,2.86-.73s1.97.23,2.76.7,1.4,1.09,1.83,1.88.65,1.68.65,2.68v.47c0,.18-.01.35-.04.54h-8.62v-1.73h5.8c-.04-.69-.29-1.23-.73-1.62-.44-.39-.99-.59-1.65-.59-.48,0-.92.11-1.33.33s-.73.55-.96,1c-.23.45-.35,1.02-.35,1.71v.61c0,.58.11,1.08.33,1.51s.52.76.92.99c.39.23.85.35,1.37.35s.95-.11,1.3-.34c.34-.22.6-.51.77-.86h2.91c-.2.66-.53,1.26-.99,1.79-.46.53-1.03.96-1.71,1.26-.67.31-1.43.46-2.25.46Z"></path><path class="cls-25" d="M141.62,336.41c-.97,0-1.84-.24-2.6-.72-.77-.48-1.37-1.14-1.8-1.98-.44-.84-.65-1.79-.65-2.85s.22-2.04.66-2.88c.44-.84,1.05-1.5,1.83-1.98.78-.48,1.65-.73,2.62-.73.76,0,1.43.14,2,.42.58.28,1.04.68,1.39,1.2v-5.92h2.85v15.18h-2.53l-.32-1.45c-.21.29-.47.58-.79.84-.32.27-.69.48-1.13.63-.44.15-.95.23-1.54.23ZM142.3,333.92c.56,0,1.06-.13,1.49-.39.43-.26.76-.62,1-1.09.24-.46.36-1,.36-1.6s-.12-1.14-.36-1.6c-.24-.46-.57-.83-1-1.08-.43-.26-.92-.39-1.49-.39s-1.02.13-1.45.39-.78.62-1.02,1.08c-.25.46-.37.99-.37,1.58,0,.62.12,1.16.37,1.62.25.46.58.83,1.01,1.09s.92.39,1.46.39Z"></path><path class="cls-25" d="M154.67,336.41c-.86,0-1.59-.18-2.2-.54s-1.08-.89-1.4-1.58-.48-1.56-.48-2.58v-6.18h2.85v5.88c0,.86.18,1.5.54,1.94.36.44.91.65,1.66.65.48,0,.9-.11,1.26-.33.37-.22.66-.53.87-.95.22-.42.33-.92.33-1.53v-5.67h2.82v10.62h-2.49l-.23-1.73c-.31.6-.77,1.09-1.37,1.44-.6.36-1.32.54-2.15.54Z"></path><path class="cls-25" d="M168.83,336.41c-1.07,0-2.02-.24-2.85-.72s-1.48-1.13-1.94-1.96c-.46-.83-.7-1.78-.7-2.85s.23-2.06.7-2.9c.46-.84,1.11-1.5,1.94-1.98.83-.48,1.78-.73,2.85-.73,1.36,0,2.51.36,3.44,1.08.93.72,1.52,1.7,1.77,2.95h-3.01c-.13-.49-.39-.88-.79-1.16s-.87-.42-1.42-.42c-.49,0-.93.12-1.32.37-.39.25-.69.6-.91,1.08s-.33,1.03-.33,1.68c0,.49.06.93.19,1.32.13.39.3.72.53.99.22.27.5.48.81.62.32.14.66.21,1.02.21s.7-.06,1-.19c.3-.13.56-.31.77-.54.21-.23.36-.52.44-.85h3.01c-.25,1.22-.85,2.2-1.78,2.92-.93.72-2.08,1.09-3.42,1.09Z"></path><path class="cls-25" d="M181.59,336.41c-1.07,0-2.01-.23-2.83-.68-.82-.46-1.46-1.1-1.92-1.92-.46-.82-.69-1.77-.69-2.86s.22-2.09.67-2.94c.45-.85,1.08-1.52,1.91-2,.82-.48,1.77-.73,2.86-.73s1.97.23,2.76.7,1.4,1.09,1.83,1.88.65,1.68.65,2.68v.47c0,.18-.01.35-.04.54h-8.62v-1.73h5.8c-.04-.69-.29-1.23-.73-1.62-.44-.39-.99-.59-1.65-.59-.48,0-.92.11-1.33.33s-.73.55-.96,1c-.23.45-.35,1.02-.35,1.71v.61c0,.58.11,1.08.33,1.51s.52.76.92.99c.39.23.85.35,1.37.35s.95-.11,1.3-.34c.34-.22.6-.51.77-.86h2.91c-.2.66-.53,1.26-.99,1.79-.46.53-1.03.96-1.71,1.26-.67.31-1.43.46-2.25.46Z"></path><path class="cls-25" d="M193.9,336.41c-.97,0-1.84-.24-2.6-.72-.77-.48-1.37-1.14-1.8-1.98-.44-.84-.65-1.79-.65-2.85s.22-2.04.66-2.88c.44-.84,1.05-1.5,1.83-1.98.78-.48,1.65-.73,2.62-.73.76,0,1.43.14,2,.42.58.28,1.04.68,1.39,1.2v-5.92h2.85v15.18h-2.53l-.32-1.45c-.21.29-.47.58-.79.84-.32.27-.69.48-1.13.63-.44.15-.95.23-1.54.23ZM194.57,333.92c.56,0,1.06-.13,1.49-.39.43-.26.76-.62,1-1.09.24-.46.36-1,.36-1.6s-.12-1.14-.36-1.6c-.24-.46-.57-.83-1-1.08-.43-.26-.92-.39-1.49-.39s-1.02.13-1.45.39-.78.62-1.02,1.08c-.25.46-.37.99-.37,1.58,0,.62.12,1.16.37,1.62.25.46.58.83,1.01,1.09s.92.39,1.46.39Z"></path><path class="cls-25" d="M212.65,336.41c-.97,0-1.84-.24-2.6-.72-.77-.48-1.37-1.14-1.8-1.98-.44-.84-.65-1.79-.65-2.85s.22-2.04.66-2.88c.44-.84,1.05-1.5,1.83-1.98.78-.48,1.65-.73,2.62-.73.76,0,1.43.14,2,.42.58.28,1.04.68,1.39,1.2v-5.92h2.85v15.18h-2.53l-.32-1.45c-.21.29-.47.58-.79.84-.32.27-.69.48-1.13.63-.44.15-.95.23-1.54.23ZM213.33,333.92c.56,0,1.06-.13,1.49-.39.43-.26.76-.62,1-1.09.24-.46.36-1,.36-1.6s-.12-1.14-.36-1.6c-.24-.46-.57-.83-1-1.08-.43-.26-.92-.39-1.49-.39s-1.02.13-1.45.39-.78.62-1.02,1.08c-.25.46-.37.99-.37,1.58,0,.62.12,1.16.37,1.62.25.46.58.83,1.01,1.09s.92.39,1.46.39Z"></path><path class="cls-25" d="M226.76,336.41c-1.01,0-1.92-.24-2.73-.71-.81-.47-1.45-1.12-1.92-1.96s-.71-1.79-.71-2.88.24-2.08.71-2.92,1.11-1.49,1.93-1.96,1.73-.71,2.74-.71,1.94.24,2.75.71c.81.47,1.45,1.12,1.92,1.96s.71,1.8.71,2.9-.24,2.06-.71,2.9-1.11,1.49-1.93,1.96c-.82.47-1.74.71-2.76.71ZM226.76,333.94c.48,0,.9-.11,1.28-.34.37-.22.67-.57.89-1.03s.33-1.04.33-1.73-.11-1.26-.33-1.72-.51-.8-.89-1.03c-.37-.23-.79-.35-1.25-.35s-.86.12-1.24.35c-.38.23-.68.58-.9,1.03s-.33,1.03-.33,1.72.11,1.26.33,1.73.51.81.89,1.03c.37.23.78.34,1.23.34Z"></path><path class="cls-25" d="M236.32,336.16l-3.12-10.62h2.8l2.07,8.62-.53-.02,2.36-8.6h3.16l2.36,8.6-.55.02,2.09-8.62h2.8l-3.12,10.62h-2.95l-2.51-8.85h.59l-2.51,8.85h-2.95Z"></path><path class="cls-25" d="M251.52,336.16v-10.62h2.51l.21,1.73c.32-.59.78-1.07,1.38-1.43.6-.37,1.31-.55,2.14-.55.89,0,1.63.18,2.23.55s1.06.9,1.38,1.6c.32.7.47,1.57.47,2.59v6.13h-2.83v-5.86c0-.84-.18-1.49-.54-1.94-.36-.45-.91-.67-1.65-.67-.48,0-.9.11-1.28.34-.37.22-.66.54-.88.96-.21.41-.32.92-.32,1.51v5.67h-2.84Z"></path><path class="cls-25" d="M269.31,336.16c-.75,0-1.39-.12-1.95-.35-.56-.23-.99-.62-1.3-1.16-.31-.54-.46-1.28-.46-2.22v-4.51h-1.81v-2.38h1.81l.32-2.89h2.53v2.89h2.8v2.38h-2.8v4.55c0,.48.11.81.32.99s.57.27,1.08.27h1.39v2.42h-1.92Z"></path><path class="cls-25" d="M275.15,324.08c-.51,0-.92-.15-1.25-.45-.33-.3-.5-.68-.5-1.15s.16-.85.5-1.15c.33-.3.75-.45,1.25-.45s.95.15,1.28.45c.33.3.5.68.5,1.15s-.17.85-.5,1.15c-.33.3-.76.45-1.28.45ZM273.72,336.16v-10.62h2.85v10.62h-2.85Z"></path><path class="cls-25" d="M279.43,336.16v-10.62h2.51l.23,1.41c.34-.51.78-.91,1.34-1.21.55-.3,1.19-.45,1.91-.45.53,0,1.01.07,1.43.21s.8.34,1.13.61c.33.27.6.6.81,1.01.39-.58.91-1.03,1.54-1.35.63-.32,1.32-.48,2.07-.48.93,0,1.7.19,2.32.56.62.37,1.08.91,1.4,1.61.32.7.47,1.57.47,2.59v6.11h-2.82v-5.86c0-.84-.17-1.49-.5-1.94-.33-.45-.84-.67-1.53-.67-.45,0-.85.11-1.2.34s-.62.55-.81.97c-.19.42-.28.93-.28,1.52v5.65h-2.85v-5.86c0-.84-.17-1.49-.51-1.94-.34-.45-.86-.67-1.56-.67-.44,0-.83.11-1.17.34-.34.22-.61.55-.8.97-.19.42-.29.93-.29,1.52v5.65h-2.84Z"></path><path class="cls-25" d="M304.36,336.41c-1.07,0-2.01-.23-2.83-.68-.82-.46-1.46-1.1-1.92-1.92-.46-.82-.69-1.77-.69-2.86s.22-2.09.67-2.94c.45-.85,1.08-1.52,1.91-2,.82-.48,1.77-.73,2.86-.73s1.97.23,2.76.7,1.4,1.09,1.83,1.88.65,1.68.65,2.68v.47c0,.18-.01.35-.04.54h-8.62v-1.73h5.8c-.04-.69-.29-1.23-.73-1.62-.44-.39-.99-.59-1.65-.59-.48,0-.92.11-1.33.33s-.73.55-.96,1c-.23.45-.35,1.02-.35,1.71v.61c0,.58.11,1.08.33,1.51s.52.76.92.99c.39.23.85.35,1.37.35s.95-.11,1.3-.34c.34-.22.6-.51.77-.86h2.91c-.2.66-.53,1.26-.99,1.79-.46.53-1.03.96-1.71,1.26-.67.31-1.43.46-2.25.46Z"></path><g class="cls-30"><polygon class="cls-5" points="310.37 94.78 310.37 75.86 284.57 75.86 284.57 94.78 273.14 94.78 297.62 119.91 321.8 94.78 310.37 94.78"></polygon><path class="cls-19" d="M286.1,70.73h0c-.55,0-1.01-.46-1.01-1.01v-30.93c0-.55.46-1.01,1.01-1.01h0c.55,0,1.01.46,1.01,1.01v30.93c0,.55-.46,1.01-1.01,1.01Z"></path><path class="cls-15" d="M304.87,69.75h0c-.55,0-1.01-.46-1.01-1.01v-30.93c0-.55.46-1.01,1.01-1.01h0c.55,0,1.01.46,1.01,1.01v30.93c0,.55-.46,1.01-1.01,1.01Z"></path><path class="cls-21" d="M290.5,73.46h0c-.55,0-1.01-.46-1.01-1.01v-19.54c0-.55.46-1.01,1.01-1.01h0c.55,0,1.01.46,1.01,1.01v19.54c0,.55-.46,1.01-1.01,1.01Z"></path><path class="cls-38" d="M308.83,64.74h0c-.55,0-1.01-.46-1.01-1.01v-19.54c0-.55.46-1.01,1.01-1.01h0c.55,0,1.01.46,1.01,1.01v19.54c0,.55-.46,1.01-1.01,1.01Z"></path><path class="cls-34" d="M294.92,63.67h0c-.55,0-1.01-.46-1.01-1.01v-19.54c0-.55.46-1.01,1.01-1.01h0c.55,0,1.01.46,1.01,1.01v19.54c0,.55-.46,1.01-1.01,1.01Z"></path><path class="cls-27" d="M294.92,71.22h0c-.55,0-1.01-.46-1.01-1.01v-3.44c0-.55.46-1.01,1.01-1.01h0c.55,0,1.01.46,1.01,1.01v3.44c0,.55-.46,1.01-1.01,1.01Z"></path><path class="cls-35" d="M299.22,56.66h0c-.55,0-1.01-.46-1.01-1.01v-19.54c0-.55.46-1.01,1.01-1.01h0c.55,0,1.01.46,1.01,1.01v19.54c0,.55-.46,1.01-1.01,1.01Z"></path><path class="cls-7" d="M299.22,64.22h0c-.55,0-1.01-.46-1.01-1.01v-3.44c0-.55.46-1.01,1.01-1.01h0c.55,0,1.01.46,1.01,1.01v3.44c0,.55-.46,1.01-1.01,1.01Z"></path><path class="cls-36" d="M299.22,73.43h0c-.55,0-1.01-.46-1.01-1.01v-5.31c0-.55.46-1.01,1.01-1.01h0c.55,0,1.01.46,1.01,1.01v5.31c0,.55-.46,1.01-1.01,1.01Z"></path><polygon class="cls-8" points="350.57 145.62 350.57 133.79 334.43 133.79 334.43 145.62 327.28 145.62 342.59 161.34 357.71 145.62 350.57 145.62"></polygon><path class="cls-2" d="M335.39,130.58h0c-.35,0-.63-.29-.63-.63v-19.35c0-.35.29-.63.63-.63h0c.35,0,.63.29.63.63v19.35c0,.35-.29.63-.63.63Z"></path><path class="cls-28" d="M347.13,129.97h0c-.35,0-.63-.29-.63-.63v-19.35c0-.35.29-.63.63-.63h0c.35,0,.63.29.63.63v19.35c0,.35-.29.63-.63.63Z"></path><path class="cls-1" d="M338.14,132.29h0c-.35,0-.63-.29-.63-.63v-12.22c0-.35.29-.63.63-.63h0c.35,0,.63.29.63.63v12.22c0,.35-.29.63-.63.63Z"></path><path class="cls-44" d="M349.61,126.84h0c-.35,0-.63-.29-.63-.63v-12.22c0-.35.29-.63.63-.63h0c.35,0,.63.29.63.63v12.22c0,.35-.29.63-.63.63Z"></path><path class="cls-33" d="M340.9,126.16h0c-.35,0-.63-.29-.63-.63v-12.22c0-.35.29-.63.63-.63h0c.35,0,.63.29.63.63v12.22c0,.35-.29.63-.63.63Z"></path><path class="cls-47" d="M340.9,130.89h0c-.35,0-.63-.29-.63-.63v-2.15c0-.35.29-.63.63-.63h0c.35,0,.63.29.63.63v2.15c0,.35-.29.63-.63.63Z"></path><path class="cls-37" d="M343.61,121.78h0c-.35,0-.63-.29-.63-.63v-12.22c0-.35.29-.63.63-.63h0c.35,0,.63.29.63.63v12.22c0,.35-.29.63-.63.63Z"></path><path class="cls-32" d="M343.61,126.51h0c-.35,0-.63-.29-.63-.63v-2.15c0-.35.29-.63.63-.63h0c.35,0,.63.29.63.63v2.15c0,.35-.29.63-.63.63Z"></path><path class="cls-40" d="M343.61,132.27h0c-.35,0-.63-.29-.63-.63v-3.32c0-.35.29-.63.63-.63h0c.35,0,.63.29.63.63v3.32c0,.35-.29.63-.63.63Z"></path><polygon class="cls-23" points="251.02 90.1 251.02 82.22 240.26 82.22 240.26 90.1 235.49 90.1 245.7 100.59 255.78 90.1 251.02 90.1"></polygon><path class="cls-45" d="M240.89,80.09h0c-.23,0-.42-.19-.42-.42v-12.89c0-.23.19-.42.42-.42h0c.23,0,.42.19.42.42v12.89c0,.23-.19.42-.42.42Z"></path><path class="cls-24" d="M248.71,79.67h0c-.23,0-.42-.19-.42-.42v-12.89c0-.23.19-.42.42-.42h0c.23,0,.42.19.42.42v12.89c0,.23-.19.42-.42.42Z"></path><path class="cls-6" d="M242.74,81.22h0c-.23,0-.42-.19-.42-.42v-8.15c0-.23.19-.42.42-.42h0c.23,0,.42.19.42.42v8.15c0,.23-.19.42-.42.42Z"></path><path class="cls-14" d="M250.38,77.57h0c-.23,0-.42-.19-.42-.42v-8.15c0-.23.19-.42.42-.42h0c.23,0,.42.19.42.42v8.15c0,.23-.19.42-.42.42Z"></path><path class="cls-10" d="M244.56,77.13h0c-.23,0-.42-.19-.42-.42v-8.15c0-.23.19-.42.42-.42h0c.23,0,.42.19.42.42v8.15c0,.23-.19.42-.42.42Z"></path><path class="cls-3" d="M244.56,80.28h0c-.23,0-.42-.19-.42-.42v-1.42c0-.23.19-.42.42-.42h0c.23,0,.42.19.42.42v1.42c0,.23-.19.42-.42.42Z"></path><path class="cls-29" d="M246.37,74.21h0c-.23,0-.42-.19-.42-.42v-8.15c0-.23.19-.42.42-.42h0c.23,0,.42.19.42.42v8.15c0,.23-.19.42-.42.42Z"></path><path class="cls-17" d="M246.37,77.36h0c-.23,0-.42-.19-.42-.42v-1.42c0-.23.19-.42.42-.42h0c.23,0,.42.19.42.42v1.42c0,.23-.19.42-.42.42Z"></path><path class="cls-46" d="M246.37,81.2h0c-.23,0-.42-.19-.42-.42v-2.21c0-.23.19-.42.42-.42h0c.23,0,.42.19.42.42v2.21c0,.23-.19.42-.42.42Z"></path></g><path class="cls-42" d="M61.84,56.78c.08.08.16.16.24.25-.07-.09-.14-.18-.2-.27l-.04.02Z"></path><path class="cls-26" d="M354.9,217.8l-11.45-40.84-13.37,13.68c-1.7-1.88-83.68-77.14-83.68-77.14l-39.15,34.23-51.03-47.14-28.81,28.22S67.96,62.99,62.08,57.02c5.08,6.67,64.33,78.48,64.33,78.48l29.69-29.17,50.74,46.89,39.5-33.94s79.43,72.14,81.31,73.85l-13.84,14.17,41.09,10.51Z"></path><g id="Bars"><path class="cls-20" d="M120.75,108.57h17.19c2.12,0,3.84,2.8,3.84,6.26v163.28c0,3.46-1.72,6.26-3.84,6.26h-17.19c-2.12,0-3.84-2.8-3.84-6.26V114.83c0-3.46,1.72-6.26,3.84-6.26Z"></path><path class="cls-16" d="M172.08,132.63h17.19c2.12,0,3.84,1.98,3.84,4.42v142.9c0,2.44-1.72,4.42-3.84,4.42h-17.19c-2.12,0-3.84-1.98-3.84-4.42v-142.9c0-2.44,1.72-4.42,3.84-4.42Z"></path><path class="cls-39" d="M223.41,161.44h17.19c2.12,0,3.84,1.29,3.84,2.89v117.16c0,1.6-1.72,2.89-3.84,2.89h-17.19c-2.12,0-3.84-1.29-3.84-2.89v-117.16c0-1.6,1.72-2.89,3.84-2.89Z"></path><path class="cls-11" d="M274.76,186.64h17.19c2.12,0,3.84,1.56,3.84,3.48v90.77c0,1.92-1.72,3.48-3.84,3.48h-17.19c-2.12,0-3.84-1.56-3.84-3.48v-90.77c0-1.92,1.72-3.48,3.84-3.48Z"></path><path class="cls-22" d="M326.09,225.09h17.19c2.12,0,3.84,1.56,3.84,3.48v52.32c0,1.92-1.72,3.48-3.84,3.48h-17.19c-2.12,0-3.84-1.56-3.84-3.48v-52.32c0-1.92,1.72-3.48,3.84-3.48Z"></path><path class="cls-13" d="M69.42,75.32h17.19c2.12,0,3.84,2.17,3.84,4.85v199.36c0,2.68-1.72,4.85-3.84,4.85h-17.19c-2.12,0-3.84-2.17-3.84-4.85V80.16c0-2.68,1.72-4.85,3.84-4.85Z"></path></g><circle class="cls-9" cx="80.87" cy="244.36" r="43.82"></circle><path class="cls-18" d="M115.37,244.36c0,1.59-.11,3.13-.32,4.66-2.16,16-15.25,28.49-31.53,29.73-.88.07-1.75.11-2.65.11-19.06,0-34.5-15.44-34.5-34.5,0-2.89.35-5.71,1.04-8.39.62-2.54,1.53-4.96,2.7-7.24.11-.24.24-.48.37-.73.37-.71.78-1.38,1.21-2.05.28-.45.54-.86.86-1.27,2.61-3.8,5.99-7.03,9.88-9.49,3.67-2.33,7.8-3.97,12.21-4.77.48-.11.99-.19,1.49-.24.32-.04.63-.07.95-.11.43-.06.84-.09,1.29-.11.82-.06,1.64-.09,2.48-.09,19.06,0,34.5,15.44,34.5,34.5Z"></path><path class="cls-43" d="M77.3,251.84l-18.28-15.28c-1.21-1.01-1.37-2.81-.36-4.02.76-.91,1.97-1.23,3.04-.89l22.75,7.1c4.01,1.25,6.25,5.52,5,9.53s-5.52,6.25-9.53,5c-.97-.3-1.87-.81-2.61-1.42Z"></path><path class="cls-4" d="M64.09,189.34h33.57c4.12,0,7.46,3.34,7.46,7.46h0c0,4.12-3.34,7.46-7.46,7.46h-33.57c-4.12,0-7.46-3.34-7.46-7.46h0c0-4.12,3.34-7.46,7.46-7.46Z"></path></g></svg>