<svg xmlns="http://www.w3.org/2000/svg" xmlns:xlink="http://www.w3.org/1999/xlink" id="Layer_2" viewBox="0 0 420.71 363.1"><defs><style>.cls-1{fill:url(#linear-gradient-15);}.cls-2{fill:url(#linear-gradient-13);}.cls-3{fill:#394767;}.cls-4{fill:url(#linear-gradient-2);}.cls-5{fill:url(#linear-gradient-10);}.cls-6{fill:url(#linear-gradient-12);}.cls-7{stroke:#3a4868;stroke-dasharray:3.84 3.84;stroke-width:1.92px;}.cls-7,.cls-8,.cls-9{fill:none;}.cls-10{isolation:isolate;opacity:.15;}.cls-11{fill:#fff;}.cls-12{fill:url(#linear-gradient-4);}.cls-13{fill:#44a4bb;}.cls-14{fill:url(#linear-gradient-3);}.cls-15{fill:url(#linear-gradient-5);}.cls-16{fill:url(#linear-gradient-22);}.cls-17{fill:#3a4869;}.cls-18{fill:url(#linear-gradient-8);}.cls-19{fill:url(#linear-gradient-14);}.cls-20{fill:url(#linear-gradient-20);}.cls-21{fill:url(#linear-gradient-17);}.cls-22{fill:url(#linear-gradient-7);}.cls-23{fill:url(#linear-gradient-9);}.cls-24{fill:url(#linear-gradient-11);}.cls-25{fill:url(#linear-gradient-19);}.cls-26{fill:url(#linear-gradient-6);}.cls-8{stroke-dasharray:3.32 3.32;}.cls-8,.cls-9{stroke:#a6b2ce;stroke-width:1.66px;}.cls-27{fill:url(#linear-gradient-21);}.cls-9{stroke-dasharray:3.32 3.32;}.cls-28{fill:url(#linear-gradient-16);}.cls-29{fill:url(#linear-gradient);}.cls-30{fill:url(#linear-gradient-18);}</style><linearGradient id="linear-gradient" x1="128.85" y1="365.01" x2="355.82" y2="337.28" gradientTransform="translate(0 546.59) scale(1 -1)" gradientUnits="userSpaceOnUse"><stop offset="0" stop-color="#67c9cf"></stop><stop offset="1" stop-color="#1f4695"></stop></linearGradient><linearGradient id="linear-gradient-2" x1="220.57" y1="178.26" x2="240.18" y2="178.26" gradientTransform="matrix(1,0,0,1,0,0)" xlink:href="#linear-gradient"></linearGradient><linearGradient id="linear-gradient-3" x1="303.95" y1="443.26" x2="353.5" y2="443.26" gradientTransform="translate(0 546.59) scale(1 -1)" gradientUnits="userSpaceOnUse"><stop offset="0" stop-color="#214896"></stop><stop offset="1" stop-color="#6ac9cf"></stop></linearGradient><linearGradient id="linear-gradient-4" x1="316.09" y1="487.7" x2="318.18" y2="487.7" xlink:href="#linear-gradient-3"></linearGradient><linearGradient id="linear-gradient-5" x1="335.2" y1="488.7" x2="337.3" y2="488.7" xlink:href="#linear-gradient-3"></linearGradient><linearGradient id="linear-gradient-6" x1="320.59" y1="479.12" x2="322.66" y2="479.12" xlink:href="#linear-gradient-3"></linearGradient><linearGradient id="linear-gradient-7" x1="339.27" y1="488" x2="341.33" y2="488" xlink:href="#linear-gradient-3"></linearGradient><linearGradient id="linear-gradient-8" x1="325.06" y1="489.1" x2="327.16" y2="489.1" xlink:href="#linear-gradient-3"></linearGradient><linearGradient id="linear-gradient-9" x1="325.06" y1="473.2" x2="327.16" y2="473.2" xlink:href="#linear-gradient-3"></linearGradient><linearGradient id="linear-gradient-10" x1="329.48" y1="496.23" x2="331.57" y2="496.23" xlink:href="#linear-gradient-3"></linearGradient><linearGradient id="linear-gradient-11" x1="329.48" y1="480.34" x2="331.57" y2="480.34" xlink:href="#linear-gradient-3"></linearGradient><linearGradient id="linear-gradient-12" x1="329.48" y1="471.9" x2="331.57" y2="471.9" xlink:href="#linear-gradient-3"></linearGradient><linearGradient id="linear-gradient-13" x1="268.29" y1="424.26" x2="300.84" y2="424.26" xlink:href="#linear-gradient-3"></linearGradient><linearGradient id="linear-gradient-14" x1="276.27" y1="453.44" x2="277.64" y2="453.44" xlink:href="#linear-gradient-3"></linearGradient><linearGradient id="linear-gradient-15" x1="288.82" y1="454.1" x2="290.19" y2="454.1" xlink:href="#linear-gradient-3"></linearGradient><linearGradient id="linear-gradient-16" x1="279.22" y1="447.8" x2="280.58" y2="447.8" xlink:href="#linear-gradient-3"></linearGradient><linearGradient id="linear-gradient-17" x1="291.49" y1="453.64" x2="292.84" y2="453.64" xlink:href="#linear-gradient-3"></linearGradient><linearGradient id="linear-gradient-18" x1="282.16" y1="454.36" x2="283.54" y2="454.36" xlink:href="#linear-gradient-3"></linearGradient><linearGradient id="linear-gradient-19" x1="282.16" y1="443.92" x2="283.54" y2="443.92" xlink:href="#linear-gradient-3"></linearGradient><linearGradient id="linear-gradient-20" x1="285.06" y1="459.04" x2="286.43" y2="459.04" xlink:href="#linear-gradient-3"></linearGradient><linearGradient id="linear-gradient-21" x1="285.06" y1="448.6" x2="286.43" y2="448.6" xlink:href="#linear-gradient-3"></linearGradient><linearGradient id="linear-gradient-22" x1="285.06" y1="443.07" x2="286.43" y2="443.07" xlink:href="#linear-gradient-3"></linearGradient></defs><g id="Layer_1-2"><path class="cls-11" d="M0,9.66C0,4.32,4.3,0,9.61,0h401.5c5.3,0,9.61,4.32,9.61,9.66v343.77c0,5.34-4.3,9.66-9.61,9.66H9.61c-5.3,0-9.61-4.32-9.61-9.66V9.66Z"></path><path class="cls-7" d="M55.78,306.81h305.45"></path><path class="cls-17" d="M36.69,336.16v-14.75h5.5c1.19,0,2.18.2,2.95.61.77.41,1.35.95,1.73,1.63.38.68.57,1.44.57,2.27s-.18,1.52-.55,2.2-.94,1.23-1.72,1.64c-.78.42-1.78.62-3,.62h-2.63v5.78h-2.85ZM39.54,328.31h2.49c.86,0,1.49-.21,1.9-.63.41-.42.61-.98.61-1.67s-.2-1.23-.6-1.63c-.4-.4-1.04-.6-1.91-.6h-2.49v4.53ZM44.35,336.16l-3.04-6.49h3.08l3.2,6.49h-3.25Z"></path><path class="cls-17" d="M54.4,336.41c-1.07,0-2.01-.23-2.83-.68-.82-.46-1.46-1.1-1.92-1.92-.46-.82-.69-1.77-.69-2.86s.22-2.09.67-2.94c.45-.85,1.08-1.52,1.91-2,.82-.48,1.77-.73,2.86-.73s1.97.23,2.76.7,1.4,1.09,1.83,1.88.65,1.68.65,2.68v.47c0,.18-.01.35-.04.54h-8.62v-1.73h5.8c-.04-.69-.29-1.23-.73-1.62-.44-.39-.99-.59-1.65-.59-.48,0-.92.11-1.33.33s-.73.55-.96,1c-.23.45-.35,1.02-.35,1.71v.61c0,.58.11,1.08.33,1.51s.52.76.92.99c.39.23.85.35,1.37.35s.95-.11,1.3-.34c.34-.22.6-.51.77-.86h2.91c-.2.66-.53,1.26-.99,1.79-.46.53-1.03.96-1.71,1.26-.67.31-1.43.46-2.25.46Z"></path><path class="cls-17" d="M66.71,336.41c-.97,0-1.84-.24-2.6-.72-.77-.48-1.37-1.14-1.8-1.98-.44-.84-.65-1.79-.65-2.85s.22-2.04.66-2.88c.44-.84,1.05-1.5,1.83-1.98.78-.48,1.65-.73,2.62-.73.76,0,1.43.14,2,.42.58.28,1.04.68,1.39,1.2v-5.92h2.85v15.18h-2.53l-.32-1.45c-.21.29-.47.58-.79.84-.32.27-.69.48-1.13.63-.44.15-.95.23-1.54.23ZM67.38,333.92c.56,0,1.06-.13,1.49-.39.43-.26.76-.62,1-1.09.24-.46.36-1,.36-1.6s-.12-1.14-.36-1.6c-.24-.46-.57-.83-1-1.08-.43-.26-.92-.39-1.49-.39s-1.02.13-1.45.39-.78.62-1.02,1.08c-.25.46-.37.99-.37,1.58,0,.62.12,1.16.37,1.62.25.46.58.83,1.01,1.09s.92.39,1.46.39Z"></path><path class="cls-17" d="M79.76,336.41c-.86,0-1.59-.18-2.2-.54s-1.08-.89-1.4-1.58-.48-1.56-.48-2.58v-6.18h2.85v5.88c0,.86.18,1.5.54,1.94.36.44.91.65,1.66.65.48,0,.9-.11,1.26-.33.37-.22.66-.53.87-.95.22-.42.33-.92.33-1.53v-5.67h2.82v10.62h-2.49l-.23-1.73c-.31.6-.77,1.09-1.37,1.44-.6.36-1.32.54-2.15.54Z"></path><path class="cls-17" d="M93.92,336.41c-1.07,0-2.02-.24-2.85-.72s-1.48-1.13-1.94-1.96c-.46-.83-.7-1.78-.7-2.85s.23-2.06.7-2.9c.46-.84,1.11-1.5,1.94-1.98.83-.48,1.78-.73,2.85-.73,1.36,0,2.51.36,3.44,1.08.93.72,1.52,1.7,1.77,2.95h-3.01c-.13-.49-.39-.88-.79-1.16s-.87-.42-1.42-.42c-.49,0-.93.12-1.32.37-.39.25-.69.6-.91,1.08s-.33,1.03-.33,1.68c0,.49.06.93.19,1.32.13.39.3.72.53.99.22.27.5.48.81.62.32.14.66.21,1.02.21s.7-.06,1-.19c.3-.13.56-.31.77-.54.21-.23.36-.52.44-.85h3.01c-.25,1.22-.85,2.2-1.78,2.92-.93.72-2.08,1.09-3.42,1.09Z"></path><path class="cls-17" d="M106.67,336.41c-1.07,0-2.01-.23-2.83-.68-.82-.46-1.46-1.1-1.92-1.92-.46-.82-.69-1.77-.69-2.86s.22-2.09.67-2.94c.45-.85,1.08-1.52,1.91-2,.82-.48,1.77-.73,2.86-.73s1.97.23,2.76.7,1.4,1.09,1.83,1.88.65,1.68.65,2.68v.47c0,.18-.01.35-.04.54h-8.62v-1.73h5.8c-.04-.69-.29-1.23-.73-1.62-.44-.39-.99-.59-1.65-.59-.48,0-.92.11-1.33.33s-.73.55-.96,1c-.23.45-.35,1.02-.35,1.71v.61c0,.58.11,1.08.33,1.51s.52.76.92.99c.39.23.85.35,1.37.35s.95-.11,1.3-.34c.34-.22.6-.51.77-.86h2.91c-.2.66-.53,1.26-.99,1.79-.46.53-1.03.96-1.71,1.26-.67.31-1.43.46-2.25.46Z"></path><path class="cls-17" d="M118.98,336.41c-.97,0-1.84-.24-2.6-.72-.77-.48-1.37-1.14-1.8-1.98-.44-.84-.65-1.79-.65-2.85s.22-2.04.66-2.88c.44-.84,1.05-1.5,1.83-1.98.78-.48,1.65-.73,2.62-.73.76,0,1.43.14,2,.42.58.28,1.04.68,1.39,1.2v-5.92h2.85v15.18h-2.53l-.32-1.45c-.21.29-.47.58-.79.84-.32.27-.69.48-1.13.63-.44.15-.95.23-1.54.23ZM119.66,333.92c.56,0,1.06-.13,1.49-.39.43-.26.76-.62,1-1.09.24-.46.36-1,.36-1.6s-.12-1.14-.36-1.6c-.24-.46-.57-.83-1-1.08-.43-.26-.92-.39-1.49-.39s-1.02.13-1.45.39-.78.62-1.02,1.08c-.25.46-.37.99-.37,1.58,0,.62.12,1.16.37,1.62.25.46.58.83,1.01,1.09s.92.39,1.46.39Z"></path><path class="cls-17" d="M138.8,336.41c-1.08,0-2.07-.22-2.95-.65-.89-.44-1.59-1.09-2.11-1.96-.52-.87-.78-1.98-.78-3.33v-9.06h2.85v9.08c0,.73.12,1.35.36,1.84.24.5.59.87,1.04,1.11.46.24,1,.36,1.63.36s1.2-.12,1.65-.36c.46-.24.8-.61,1.04-1.11.24-.5.36-1.11.36-1.84v-9.08h2.85v9.06c0,1.35-.27,2.46-.8,3.33s-1.25,1.52-2.16,1.96-1.9.65-2.98.65Z"></path><path class="cls-17" d="M147.46,336.16v-10.62h2.51l.21,1.73c.32-.59.78-1.07,1.38-1.43.6-.37,1.31-.55,2.14-.55.89,0,1.63.18,2.23.55s1.06.9,1.38,1.6c.32.7.47,1.57.47,2.59v6.13h-2.83v-5.86c0-.84-.18-1.49-.54-1.94-.36-.45-.91-.67-1.65-.67-.48,0-.9.11-1.28.34-.37.22-.66.54-.88.96-.21.41-.32.92-.32,1.51v5.67h-2.84Z"></path><path class="cls-17" d="M160.46,336.16v-10.62h2.51l.21,1.73c.32-.59.78-1.07,1.38-1.43.6-.37,1.31-.55,2.14-.55.89,0,1.63.18,2.23.55s1.06.9,1.38,1.6c.32.7.47,1.57.47,2.59v6.13h-2.83v-5.86c0-.84-.18-1.49-.54-1.94-.36-.45-.91-.67-1.65-.67-.48,0-.9.11-1.28.34-.37.22-.66.54-.88.96-.21.41-.32.92-.32,1.51v5.67h-2.84Z"></path><path class="cls-17" d="M178.57,336.41c-1.07,0-2.01-.23-2.83-.68-.82-.46-1.46-1.1-1.92-1.92-.46-.82-.69-1.77-.69-2.86s.22-2.09.67-2.94c.45-.85,1.08-1.52,1.91-2,.82-.48,1.77-.73,2.86-.73s1.97.23,2.76.7,1.4,1.09,1.83,1.88.65,1.68.65,2.68v.47c0,.18-.01.35-.04.54h-8.62v-1.73h5.8c-.04-.69-.29-1.23-.73-1.62-.44-.39-.99-.59-1.65-.59-.48,0-.92.11-1.33.33s-.73.55-.96,1c-.23.45-.35,1.02-.35,1.71v.61c0,.58.11,1.08.33,1.51s.52.76.92.99c.39.23.85.35,1.37.35s.95-.11,1.3-.34c.34-.22.6-.51.77-.86h2.91c-.2.66-.53,1.26-.99,1.79-.46.53-1.03.96-1.71,1.26-.67.31-1.43.46-2.25.46Z"></path><path class="cls-17" d="M191.3,336.41c-1.07,0-2.02-.24-2.85-.72s-1.48-1.13-1.94-1.96c-.46-.83-.7-1.78-.7-2.85s.23-2.06.7-2.9c.46-.84,1.11-1.5,1.94-1.98.83-.48,1.78-.73,2.85-.73,1.36,0,2.51.36,3.44,1.08.93.72,1.52,1.7,1.77,2.95h-3.01c-.13-.49-.39-.88-.79-1.16s-.87-.42-1.42-.42c-.49,0-.93.12-1.32.37-.39.25-.69.6-.91,1.08s-.33,1.03-.33,1.68c0,.49.06.93.19,1.32.13.39.3.72.53.99.22.27.5.48.81.62.32.14.66.21,1.02.21s.7-.06,1-.19c.3-.13.56-.31.77-.54.21-.23.36-.52.44-.85h3.01c-.25,1.22-.85,2.2-1.78,2.92-.93.72-2.08,1.09-3.42,1.09Z"></path><path class="cls-17" d="M204.05,336.41c-1.07,0-2.01-.23-2.83-.68-.82-.46-1.46-1.1-1.92-1.92-.46-.82-.69-1.77-.69-2.86s.22-2.09.67-2.94c.45-.85,1.08-1.52,1.91-2,.82-.48,1.77-.73,2.86-.73s1.97.23,2.76.7,1.4,1.09,1.83,1.88.65,1.68.65,2.68v.47c0,.18-.01.35-.04.54h-8.62v-1.73h5.8c-.04-.69-.29-1.23-.73-1.62-.44-.39-.99-.59-1.65-.59-.48,0-.92.11-1.33.33s-.73.55-.96,1c-.23.45-.35,1.02-.35,1.71v.61c0,.58.11,1.08.33,1.51s.52.76.92.99c.39.23.85.35,1.37.35s.95-.11,1.3-.34c.34-.22.6-.51.77-.86h2.91c-.2.66-.53,1.26-.99,1.79-.46.53-1.03.96-1.71,1.26-.67.31-1.43.46-2.25.46Z"></path><path class="cls-17" d="M215.98,336.41c-.97,0-1.81-.16-2.53-.46s-1.28-.74-1.69-1.29c-.41-.55-.64-1.17-.7-1.86h2.82c.07.27.19.51.36.73s.39.39.67.52c.28.13.62.19,1.01.19s.69-.05.93-.16.42-.25.54-.43c.12-.18.18-.37.18-.57,0-.29-.08-.52-.25-.69-.17-.16-.41-.29-.74-.39s-.72-.2-1.18-.29c-.51-.1-1-.22-1.49-.37-.48-.15-.92-.33-1.3-.56-.38-.22-.68-.51-.91-.86-.22-.35-.34-.79-.34-1.31,0-.63.17-1.2.51-1.7.34-.5.83-.9,1.47-1.19s1.43-.44,2.34-.44c1.28,0,2.29.29,3.04.86s1.19,1.37,1.33,2.38h-2.68c-.08-.32-.27-.58-.56-.77s-.67-.29-1.15-.29c-.51,0-.89.09-1.16.27-.27.18-.4.42-.4.72,0,.2.09.37.26.53.18.16.42.29.75.39s.72.21,1.18.31c.82.17,1.53.36,2.15.58.62.22,1.1.53,1.45.93.35.4.53.98.53,1.74,0,.67-.18,1.27-.55,1.8s-.88.94-1.55,1.23c-.67.29-1.46.44-2.37.44Z"></path><path class="cls-17" d="M227.19,336.41c-.97,0-1.81-.16-2.53-.46s-1.28-.74-1.69-1.29c-.41-.55-.64-1.17-.7-1.86h2.82c.07.27.19.51.36.73s.39.39.67.52c.28.13.62.19,1.01.19s.69-.05.93-.16.42-.25.54-.43c.12-.18.18-.37.18-.57,0-.29-.08-.52-.25-.69-.17-.16-.41-.29-.74-.39s-.72-.2-1.18-.29c-.51-.1-1-.22-1.49-.37-.48-.15-.92-.33-1.3-.56-.38-.22-.68-.51-.91-.86-.22-.35-.34-.79-.34-1.31,0-.63.17-1.2.51-1.7.34-.5.83-.9,1.47-1.19s1.43-.44,2.34-.44c1.28,0,2.29.29,3.04.86s1.19,1.37,1.33,2.38h-2.68c-.08-.32-.27-.58-.56-.77s-.67-.29-1.15-.29c-.51,0-.89.09-1.16.27-.27.18-.4.42-.4.72,0,.2.09.37.26.53.18.16.42.29.75.39s.72.21,1.18.31c.82.17,1.53.36,2.15.58.62.22,1.1.53,1.45.93.35.4.53.98.53,1.74,0,.67-.18,1.27-.55,1.8s-.88.94-1.55,1.23c-.67.29-1.46.44-2.37.44Z"></path><path class="cls-17" d="M237.65,336.41c-.89,0-1.62-.14-2.19-.43-.58-.29-1-.67-1.28-1.16-.27-.48-.41-1.02-.41-1.61,0-.65.17-1.21.5-1.71.33-.49.83-.88,1.5-1.16.67-.28,1.51-.42,2.52-.42h2.63c0-.52-.07-.95-.21-1.3s-.36-.6-.65-.77c-.29-.17-.69-.25-1.18-.25-.53,0-.99.12-1.36.35-.37.23-.6.59-.68,1.06h-2.76c.07-.76.32-1.42.75-1.97.43-.55,1-.99,1.71-1.3.71-.31,1.5-.46,2.37-.46,1,0,1.86.17,2.59.51.73.34,1.29.82,1.69,1.45.39.63.59,1.41.59,2.34v6.58h-2.4l-.32-1.62c-.16.28-.34.53-.55.76-.21.22-.46.42-.74.59-.28.17-.6.3-.95.39-.35.09-.74.14-1.16.14ZM238.32,334.22c.37,0,.69-.07.98-.2.29-.13.54-.32.75-.55.21-.23.38-.5.5-.8.12-.3.2-.63.24-.98v-.02h-2.17c-.44,0-.79.05-1.06.16-.27.1-.47.26-.6.45-.13.2-.19.42-.19.67,0,.28.06.51.19.7.13.18.31.32.55.42.24.1.51.15.82.15Z"></path><path class="cls-17" d="M246.42,336.16v-10.62h2.53l.27,1.96c.25-.46.57-.86.96-1.18.39-.32.83-.58,1.33-.76s1.05-.27,1.65-.27v3.01h-.97c-.42,0-.81.05-1.17.15-.36.1-.67.26-.94.47s-.47.52-.61.9c-.14.38-.21.86-.21,1.43v4.91h-2.84Z"></path><path class="cls-17" d="M256.39,340.79l2.57-5.82h-.63l-4.26-9.44h3.1l3.04,6.85,2.74-6.85h3.01l-6.56,15.26h-3.01Z"></path><path class="cls-17" d="M277.87,336.41c-1.07,0-2.02-.18-2.86-.55s-1.5-.9-1.98-1.6c-.49-.7-.74-1.55-.75-2.55h3.01c.01.44.13.83.34,1.18.21.35.5.63.88.83.37.2.82.31,1.34.31.45,0,.84-.07,1.17-.22s.59-.35.77-.62.27-.58.27-.95c0-.42-.1-.77-.31-1.05-.2-.28-.49-.52-.84-.72-.36-.2-.77-.38-1.24-.54-.47-.16-.97-.33-1.49-.52-1.17-.38-2.05-.88-2.67-1.52-.61-.63-.92-1.47-.92-2.51,0-.89.21-1.64.64-2.28.43-.63,1.02-1.12,1.78-1.46.76-.34,1.62-.51,2.59-.51s1.87.17,2.62.52c.75.34,1.35.84,1.79,1.49s.67,1.41.68,2.28h-3.04c-.01-.32-.11-.63-.28-.92s-.42-.52-.73-.7c-.31-.18-.67-.26-1.1-.26-.37-.01-.7.04-1,.17-.3.13-.54.31-.72.56-.18.25-.26.55-.26.92s.09.65.26.89c.17.24.42.45.73.62.31.18.67.34,1.1.48.42.15.88.3,1.37.45.73.25,1.4.55,2.02.9.62.34,1.11.79,1.48,1.34.37.55.55,1.27.55,2.17,0,.77-.2,1.49-.61,2.15-.41.66-.99,1.19-1.76,1.6-.77.41-1.72.61-2.86.61Z"></path><path class="cls-17" d="M290.24,336.16c-.75,0-1.39-.12-1.95-.35-.56-.23-.99-.62-1.3-1.16-.31-.54-.46-1.28-.46-2.22v-4.51h-1.81v-2.38h1.81l.32-2.89h2.53v2.89h2.8v2.38h-2.8v4.55c0,.48.11.81.32.99s.57.27,1.08.27h1.39v2.42h-1.92Z"></path><path class="cls-17" d="M299.32,336.41c-1.01,0-1.92-.24-2.73-.71-.81-.47-1.45-1.12-1.92-1.96s-.71-1.79-.71-2.88.24-2.08.71-2.92,1.11-1.49,1.93-1.96,1.73-.71,2.74-.71,1.94.24,2.75.71c.81.47,1.45,1.12,1.92,1.96s.71,1.8.71,2.9-.24,2.06-.71,2.9-1.11,1.49-1.93,1.96c-.82.47-1.74.71-2.76.71ZM299.32,333.94c.48,0,.9-.11,1.28-.34.37-.22.67-.57.89-1.03s.33-1.04.33-1.73-.11-1.26-.33-1.72-.51-.8-.89-1.03c-.37-.23-.79-.35-1.25-.35s-.86.12-1.24.35c-.38.23-.68.58-.9,1.03s-.33,1.03-.33,1.72.11,1.26.33,1.73.51.81.89,1.03c.37.23.78.34,1.23.34Z"></path><path class="cls-17" d="M307.16,340.79v-15.26h2.53l.32,1.48c.22-.31.49-.59.8-.85.31-.26.68-.47,1.11-.63.43-.16.93-.24,1.51-.24,1,0,1.88.25,2.63.74.76.49,1.36,1.16,1.8,1.99.44.84.66,1.79.66,2.86s-.22,2.02-.67,2.86c-.45.84-1.05,1.49-1.81,1.97s-1.62.72-2.59.72c-.79,0-1.47-.14-2.03-.43-.57-.29-1.04-.69-1.4-1.19v6.01h-2.84ZM312.77,333.92c.56,0,1.06-.13,1.49-.38.43-.25.76-.61,1-1.08.24-.46.36-1,.36-1.6s-.12-1.14-.36-1.61c-.24-.47-.57-.84-1-1.1-.43-.26-.92-.39-1.49-.39s-1.04.13-1.46.39-.77.62-1.01,1.08c-.25.46-.37,1-.37,1.6s.12,1.14.37,1.61c.25.47.58.83,1.01,1.09s.92.38,1.46.38Z"></path><path class="cls-17" d="M320.97,340.79v-15.26h2.53l.32,1.48c.22-.31.49-.59.8-.85.31-.26.68-.47,1.11-.63.43-.16.93-.24,1.51-.24,1,0,1.88.25,2.63.74.76.49,1.36,1.16,1.8,1.99.44.84.66,1.79.66,2.86s-.22,2.02-.67,2.86c-.45.84-1.05,1.49-1.81,1.97s-1.62.72-2.59.72c-.79,0-1.47-.14-2.03-.43-.57-.29-1.04-.69-1.4-1.19v6.01h-2.84ZM326.58,333.92c.56,0,1.06-.13,1.49-.38.43-.25.76-.61,1-1.08.24-.46.36-1,.36-1.6s-.12-1.14-.36-1.61c-.24-.47-.57-.84-1-1.1-.43-.26-.92-.39-1.49-.39s-1.04.13-1.46.39-.77.62-1.01,1.08c-.25.46-.37,1-.37,1.6s.12,1.14.37,1.61c.25.47.58.83,1.01,1.09s.92.38,1.46.38Z"></path><path class="cls-17" d="M338.36,336.41c-.89,0-1.62-.14-2.19-.43-.58-.29-1-.67-1.28-1.16-.27-.48-.41-1.02-.41-1.61,0-.65.17-1.21.5-1.71.33-.49.83-.88,1.5-1.16.67-.28,1.51-.42,2.52-.42h2.63c0-.52-.07-.95-.21-1.3s-.36-.6-.65-.77c-.29-.17-.69-.25-1.18-.25-.53,0-.99.12-1.36.35-.37.23-.6.59-.68,1.06h-2.76c.07-.76.32-1.42.75-1.97.43-.55,1-.99,1.71-1.3.71-.31,1.5-.46,2.37-.46,1,0,1.86.17,2.59.51.73.34,1.29.82,1.69,1.45.39.63.59,1.41.59,2.34v6.58h-2.4l-.32-1.62c-.16.28-.34.53-.55.76-.21.22-.46.42-.74.59-.28.17-.6.3-.95.39-.35.09-.74.14-1.16.14ZM339.03,334.22c.37,0,.69-.07.98-.2.29-.13.54-.32.75-.55.21-.23.38-.5.5-.8.12-.3.2-.63.24-.98v-.02h-2.17c-.44,0-.79.05-1.06.16-.27.1-.47.26-.6.45-.13.2-.19.42-.19.67,0,.28.06.51.19.7.13.18.31.32.55.42.24.1.51.15.82.15Z"></path><path class="cls-17" d="M351.7,341.05c-1.01,0-1.9-.12-2.66-.37-.76-.25-1.35-.62-1.76-1.12-.41-.5-.62-1.11-.62-1.84,0-.49.13-.96.38-1.39s.62-.83,1.11-1.19c.49-.36,1.09-.66,1.82-.92l1.08,1.39c-.65.21-1.11.47-1.4.79s-.43.66-.43,1.02c0,.32.11.6.33.82.22.22.51.39.88.5s.79.16,1.25.16.84-.06,1.17-.17c.33-.11.59-.28.78-.5s.29-.47.29-.77c0-.38-.13-.69-.4-.93-.27-.24-.8-.39-1.6-.44-.72-.06-1.35-.14-1.91-.24-.56-.11-1.04-.23-1.46-.38-.42-.15-.78-.31-1.06-.5-.29-.18-.52-.37-.71-.55v-.48l2.25-2.42,2.04.65-2.66,2.61.8-1.39c.16.08.31.17.45.24s.33.15.56.21c.22.06.52.12.89.18.37.06.83.11,1.39.15.93.08,1.69.26,2.29.53.6.27,1.04.62,1.32,1.06.28.44.42.99.42,1.63s-.17,1.23-.52,1.78c-.34.56-.88,1-1.59,1.35-.72.34-1.62.52-2.72.52ZM351.7,333.02c-.88,0-1.65-.17-2.29-.52-.64-.34-1.13-.81-1.47-1.39-.34-.58-.52-1.23-.52-1.95s.17-1.37.52-1.95c.34-.58.83-1.05,1.47-1.4.64-.35,1.4-.53,2.29-.53s1.67.18,2.31.53c.64.35,1.13.82,1.46,1.4.34.58.51,1.23.51,1.95s-.17,1.37-.51,1.95c-.34.58-.83,1.05-1.46,1.39-.64.34-1.41.52-2.31.52ZM351.7,330.84c.55,0,.99-.14,1.33-.42.34-.28.51-.7.51-1.24s-.17-.97-.51-1.25-.78-.43-1.33-.43-.97.14-1.32.43-.52.71-.52,1.25.17.96.52,1.24c.34.28.78.42,1.32.42ZM353.47,327.56l-.46-2.02h4.36v1.69l-3.9.34Z"></path><path class="cls-17" d="M364.37,336.41c-1.07,0-2.01-.23-2.83-.68-.82-.46-1.46-1.1-1.92-1.92-.46-.82-.69-1.77-.69-2.86s.22-2.09.67-2.94c.45-.85,1.08-1.52,1.91-2,.82-.48,1.77-.73,2.86-.73s1.97.23,2.76.7,1.4,1.09,1.83,1.88.65,1.68.65,2.68v.47c0,.18-.01.35-.04.54h-8.62v-1.73h5.8c-.04-.69-.29-1.23-.73-1.62-.44-.39-.99-.59-1.65-.59-.48,0-.92.11-1.33.33s-.73.55-.96,1c-.23.45-.35,1.02-.35,1.71v.61c0,.58.11,1.08.33,1.51s.52.76.92.99c.39.23.85.35,1.37.35s.95-.11,1.3-.34c.34-.22.6-.51.77-.86h2.91c-.2.66-.53,1.26-.99,1.79-.46.53-1.03.96-1.71,1.26-.67.31-1.43.46-2.25.46Z"></path><path class="cls-17" d="M376.3,336.41c-.97,0-1.81-.16-2.53-.46s-1.28-.74-1.69-1.29c-.41-.55-.64-1.17-.7-1.86h2.82c.07.27.19.51.36.73s.39.39.67.52c.28.13.62.19,1.01.19s.69-.05.93-.16.42-.25.54-.43c.12-.18.18-.37.18-.57,0-.29-.08-.52-.25-.69-.17-.16-.41-.29-.74-.39s-.72-.2-1.18-.29c-.51-.1-1-.22-1.49-.37-.48-.15-.92-.33-1.3-.56-.38-.22-.68-.51-.91-.86-.22-.35-.34-.79-.34-1.31,0-.63.17-1.2.51-1.7.34-.5.83-.9,1.47-1.19s1.43-.44,2.34-.44c1.28,0,2.29.29,3.04.86s1.19,1.37,1.33,2.38h-2.68c-.08-.32-.27-.58-.56-.77s-.67-.29-1.15-.29c-.51,0-.89.09-1.16.27-.27.18-.4.42-.4.72,0,.2.09.37.26.53.18.16.42.29.75.39s.72.21,1.18.31c.82.17,1.53.36,2.15.58.62.22,1.1.53,1.45.93.35.4.53.98.53,1.74,0,.67-.18,1.27-.55,1.8s-.88.94-1.55,1.23c-.67.29-1.46.44-2.37.44Z"></path><path class="cls-8" d="M108.83,154.35h248.79"></path><path class="cls-9" d="M108.83,99.93h248.79"></path><path class="cls-9" d="M108.83,205.47h248.79"></path><path class="cls-9" d="M108.83,256.6h248.79"></path><path class="cls-9" d="M108.83,52.1h248.79"></path><path class="cls-3" d="M50.76,258.31v-1.29h7.18v1.29h-7.18ZM66.4,263.19v-2.72h-6.44v-1.18l6.17-8.8h1.78v8.63h1.89v1.34h-1.89v2.72h-1.51ZM61.65,259.13h4.83v-6.95l-4.83,6.95ZM76.4,263.41c-1.08,0-2-.27-2.78-.82-.77-.56-1.37-1.32-1.8-2.3-.42-.99-.63-2.14-.63-3.45s.21-2.45.63-3.43c.42-.99,1.02-1.76,1.78-2.3.77-.56,1.7-.83,2.78-.83s2,.28,2.76.83c.77.54,1.37,1.31,1.78,2.3.42.98.63,2.12.63,3.43s-.21,2.46-.63,3.45c-.41.98-1,1.75-1.78,2.3-.76.54-1.68.82-2.74.82ZM76.38,262.07c.69,0,1.3-.21,1.83-.62.54-.42.97-1.02,1.29-1.8.33-.79.49-1.72.49-2.81s-.16-2.04-.49-2.81c-.31-.77-.74-1.37-1.29-1.78-.53-.41-1.14-.62-1.83-.62s-1.31.21-1.87.62c-.54.41-.97,1-1.29,1.78-.31.77-.47,1.71-.47,2.81s.16,2.03.47,2.81c.31.77.74,1.37,1.29,1.8.56.41,1.18.62,1.87.62ZM85.53,255.14c-.44,0-.83-.1-1.2-.29-.36-.21-.65-.49-.87-.85s-.33-.79-.33-1.27c0-.51.11-.94.33-1.31.23-.36.53-.64.89-.83.36-.21.76-.31,1.2-.31s.83.1,1.18.31c.36.19.65.47.87.83.22.36.33.8.33,1.31s-.11.91-.33,1.27-.51.65-.87.85c-.36.19-.76.29-1.2.29ZM85.53,254.01c.29,0,.56-.11.82-.33.27-.22.4-.54.4-.98s-.13-.76-.38-.98c-.25-.22-.53-.33-.82-.33s-.58.11-.83.33c-.25.22-.38.54-.38.98s.12.76.36.98c.25.22.53.33.83.33Z"></path><path class="cls-3" d="M50.76,207.19v-1.29h7.18v1.29h-7.18ZM60.4,212.07v-1.07c.89-.68,1.74-1.36,2.52-2.05s1.48-1.37,2.09-2.05c.62-.69,1.1-1.36,1.45-2.01.35-.65.53-1.28.53-1.89,0-.45-.08-.86-.25-1.23-.16-.39-.41-.7-.76-.94s-.82-.36-1.41-.36-1.06.13-1.45.38c-.37.24-.66.57-.85.98-.19.4-.29.84-.29,1.32h-1.47c.01-.83.19-1.55.54-2.14.35-.61.83-1.06,1.43-1.38.62-.31,1.32-.47,2.1-.47s1.44.15,2.03.44c.59.28,1.06.7,1.4,1.27.34.56.51,1.25.51,2.09,0,.59-.13,1.19-.38,1.78-.24.59-.57,1.17-1,1.74-.41.56-.87,1.1-1.38,1.61-.51.52-1.03,1.01-1.58,1.47-.53.46-1.04.88-1.52,1.25h6.29v1.27h-8.54ZM75.73,212.29c-1.08,0-2-.27-2.78-.82-.77-.56-1.37-1.32-1.8-2.3-.42-.99-.63-2.14-.63-3.45s.21-2.45.63-3.43c.42-.99,1.02-1.76,1.78-2.3.77-.56,1.7-.83,2.78-.83s2,.28,2.76.83c.77.54,1.37,1.31,1.78,2.3.42.98.63,2.12.63,3.43s-.21,2.46-.63,3.45c-.41.98-1,1.75-1.78,2.3-.76.54-1.68.82-2.74.82ZM75.71,210.94c.69,0,1.3-.21,1.83-.62.54-.42.97-1.02,1.29-1.8.33-.79.49-1.72.49-2.81s-.16-2.04-.49-2.81c-.31-.77-.74-1.37-1.29-1.78-.53-.41-1.14-.62-1.83-.62s-1.31.21-1.87.62c-.54.41-.97,1-1.29,1.78s-.47,1.71-.47,2.81.16,2.03.47,2.81c.31.77.74,1.37,1.29,1.8.56.41,1.18.62,1.87.62ZM84.85,204.01c-.44,0-.83-.1-1.2-.29-.36-.21-.65-.49-.87-.85-.22-.36-.33-.79-.33-1.27,0-.51.11-.94.33-1.31.23-.36.53-.64.89-.83.36-.21.76-.31,1.2-.31s.83.1,1.18.31c.36.19.65.47.87.83s.33.8.33,1.31-.11.91-.33,1.27c-.22.36-.51.65-.87.85-.36.19-.76.29-1.2.29ZM84.85,202.89c.29,0,.56-.11.82-.33.27-.22.4-.54.4-.98s-.13-.76-.38-.98c-.25-.22-.53-.33-.82-.33s-.58.11-.83.33c-.25.22-.38.54-.38.98s.12.76.36.98c.25.22.53.33.83.33Z"></path><path class="cls-3" d="M55.53,161.16c-1.08,0-2-.27-2.78-.82-.77-.56-1.37-1.32-1.8-2.3-.42-.99-.63-2.14-.63-3.45s.21-2.45.63-3.43c.42-.99,1.02-1.76,1.78-2.3.77-.56,1.7-.83,2.78-.83s2,.28,2.76.83c.77.54,1.37,1.31,1.78,2.3.42.98.63,2.12.63,3.43s-.21,2.46-.63,3.45c-.41.98-1,1.75-1.78,2.3-.76.54-1.68.82-2.74.82ZM55.52,159.82c.69,0,1.3-.21,1.83-.62.54-.42.97-1.02,1.29-1.8.33-.79.49-1.72.49-2.81s-.16-2.04-.49-2.81c-.31-.77-.74-1.37-1.29-1.78-.53-.41-1.14-.62-1.83-.62s-1.31.21-1.87.62c-.54.41-.97,1-1.29,1.78s-.47,1.71-.47,2.81.16,2.03.47,2.81c.31.77.74,1.37,1.29,1.8.56.41,1.18.62,1.87.62ZM64.66,152.89c-.44,0-.83-.1-1.2-.29-.36-.21-.65-.49-.87-.85-.22-.36-.33-.79-.33-1.27,0-.51.11-.94.33-1.31.23-.36.53-.64.89-.83.36-.21.76-.31,1.2-.31s.83.1,1.18.31c.36.19.65.47.87.83.22.36.33.8.33,1.31s-.11.91-.33,1.27c-.22.36-.51.65-.87.85-.36.19-.76.29-1.2.29ZM64.66,151.77c.29,0,.56-.11.82-.33.27-.22.4-.54.4-.98s-.13-.76-.38-.98c-.25-.22-.53-.33-.82-.33s-.58.11-.83.33c-.25.22-.38.54-.38.98s.12.76.36.98c.25.22.53.33.83.33Z"></path><path class="cls-3" d="M50.62,109.82v-1.07c.89-.68,1.74-1.36,2.52-2.05.79-.69,1.48-1.37,2.09-2.05.62-.69,1.1-1.36,1.45-2.01s.53-1.28.53-1.89c0-.45-.08-.86-.25-1.23-.16-.39-.41-.7-.76-.94-.35-.24-.82-.36-1.41-.36s-1.06.13-1.45.38c-.37.24-.66.57-.85.98-.19.4-.29.84-.29,1.32h-1.47c.01-.83.19-1.55.54-2.14.35-.6.83-1.06,1.43-1.38.62-.31,1.32-.47,2.1-.47s1.44.15,2.03.44c.59.28,1.06.7,1.4,1.27.34.56.51,1.25.51,2.09,0,.59-.13,1.19-.38,1.78-.24.59-.57,1.17-1,1.74-.41.56-.87,1.09-1.38,1.61-.51.52-1.03,1.01-1.58,1.47-.53.46-1.04.88-1.52,1.25h6.29v1.27h-8.54ZM65.95,110.04c-1.08,0-2-.27-2.78-.82-.77-.56-1.37-1.32-1.8-2.3-.42-.99-.63-2.14-.63-3.45s.21-2.45.63-3.43c.42-.99,1.02-1.76,1.78-2.3.77-.56,1.7-.83,2.78-.83s2,.28,2.76.83c.77.54,1.37,1.31,1.78,2.3.42.98.63,2.12.63,3.43s-.21,2.46-.63,3.45c-.41.98-1,1.75-1.78,2.3-.76.54-1.68.82-2.74.82ZM65.93,108.7c.69,0,1.3-.21,1.83-.62.54-.42.97-1.02,1.29-1.8.33-.79.49-1.72.49-2.81s-.16-2.04-.49-2.81c-.31-.77-.74-1.37-1.29-1.78-.53-.41-1.14-.62-1.83-.62s-1.31.21-1.87.62c-.54.41-.97,1-1.29,1.78-.31.77-.47,1.71-.47,2.81s.16,2.03.47,2.81c.31.77.74,1.37,1.29,1.8.56.41,1.18.62,1.87.62ZM75.07,101.77c-.44,0-.83-.1-1.2-.29-.36-.21-.65-.49-.87-.85s-.33-.79-.33-1.27c0-.51.11-.94.33-1.31.23-.36.53-.64.89-.83.36-.21.76-.31,1.2-.31s.83.1,1.18.31c.36.19.65.47.87.83s.33.8.33,1.31-.11.91-.33,1.27-.51.65-.87.85c-.36.19-.76.29-1.2.29ZM75.07,100.64c.29,0,.56-.11.82-.33.27-.22.4-.54.4-.98s-.13-.76-.38-.98c-.25-.22-.53-.33-.82-.33s-.58.11-.83.33-.38.54-.38.98.12.76.36.98c.25.22.53.33.83.33Z"></path><path class="cls-3" d="M56.62,58.7v-2.72h-6.44v-1.18l6.17-8.8h1.78v8.63h1.89v1.34h-1.89v2.72h-1.51ZM51.87,54.63h4.83v-6.95l-4.83,6.95ZM66.62,58.92c-1.08,0-2-.27-2.78-.82-.77-.56-1.37-1.32-1.8-2.3-.42-.99-.63-2.14-.63-3.45s.21-2.45.63-3.43c.42-.99,1.02-1.76,1.78-2.3.77-.56,1.7-.83,2.78-.83s2,.28,2.76.83c.77.54,1.37,1.31,1.78,2.3.42.98.63,2.12.63,3.43s-.21,2.46-.63,3.45c-.41.98-1,1.75-1.78,2.3-.76.54-1.68.82-2.74.82ZM66.61,57.57c.69,0,1.3-.21,1.83-.62.54-.42.97-1.02,1.29-1.8.33-.79.49-1.72.49-2.81s-.16-2.04-.49-2.81c-.31-.77-.74-1.37-1.29-1.78-.53-.41-1.14-.62-1.83-.62s-1.31.21-1.87.62c-.54.41-.97,1-1.29,1.78-.31.77-.47,1.71-.47,2.81s.16,2.03.47,2.81c.31.77.74,1.37,1.29,1.8.56.41,1.18.62,1.87.62ZM75.75,50.64c-.44,0-.83-.1-1.2-.29-.36-.21-.65-.49-.87-.85-.22-.36-.33-.79-.33-1.27,0-.51.11-.94.33-1.31.23-.36.53-.64.89-.83.36-.21.76-.31,1.2-.31s.83.1,1.18.31c.36.19.65.47.87.83s.33.8.33,1.31-.11.91-.33,1.27c-.22.36-.51.65-.87.85-.36.19-.76.29-1.2.29ZM75.75,49.52c.29,0,.56-.11.82-.33.27-.22.4-.54.4-.98s-.13-.76-.38-.98c-.25-.22-.53-.33-.82-.33s-.58.11-.83.33c-.25.22-.38.54-.38.98s.12.76.36.98c.25.22.53.33.83.33Z"></path><path class="cls-29" d="M207.84,215.89l-.86,1.38.57.36.66-.15-.37-1.58ZM254.96,204.93l.53-1.54-.44-.15-.45.11.37,1.58ZM286.65,215.89l-.53,1.54.55.19.55-.2-.57-1.52ZM315.9,204.93l.9-1.36-.69-.45-.78.29.57,1.52ZM359.77,233.89l-8.39-16.78-10.33,15.66,18.73,1.12ZM108.66,155.64l98.31,61.62,1.73-2.75-98.31-61.62-1.73,2.75ZM208.21,217.47l47.12-10.95-.73-3.17-47.12,10.95.73,3.17ZM254.43,206.47l31.69,10.95,1.06-3.07-31.69-10.95-1.06,3.07ZM287.22,217.41l29.25-10.96-1.14-3.04-29.25,10.96,1.14,3.04ZM315,206.29l31.67,20.9,1.79-2.71-31.67-20.9-1.79,2.71Z"></path><path class="cls-4" d="M230.38,188.07c-5.41,0-9.81-4.4-9.81-9.81s4.4-9.81,9.81-9.81,9.81,4.4,9.81,9.81-4.4,9.81-9.81,9.81ZM228.12,183.66c.84.35,1.78.51,2.69.43h.01c2.73-.21,4.98-2.33,5.35-5.04.04-.27.05-.53.05-.79,0-.78-.15-1.55-.45-2.25l-7.66,7.66ZM230.38,172.41c-.14,0-.28,0-.42.02-.08,0-.14,0-.19.02l-.2.02c-.07,0-.13.02-.19.03-.79.14-1.48.42-2.11.82-.67.42-1.23.96-1.67,1.61l-.03.05c-.04.05-.07.11-.11.17-.08.12-.14.23-.2.34l-.05.1c-.22.43-.37.83-.47,1.25-.12.47-.18.95-.18,1.43,0,.78.15,1.55.45,2.26l7.66-7.66c-.71-.3-1.47-.45-2.26-.45Z"></path><path class="cls-13" d="M193.17,188.32c-1.72,0-3.21-.25-4.48-.76-1.27-.51-2.25-1.29-2.93-2.33-.69-1.04-1.04-2.37-1.05-3.97h5.08c.04.58.19,1.07.46,1.48.27.41.65.72,1.14.92.49.21,1.07.31,1.74.31.57,0,1.05-.07,1.45-.21.39-.14.7-.34.91-.59.21-.25.32-.54.32-.88,0-.3-.1-.56-.3-.79s-.52-.43-.96-.62-1.03-.35-1.76-.49l-1.96-.41c-1.77-.37-3.16-1.01-4.15-1.92s-1.49-2.12-1.49-3.64c0-1.25.34-2.34,1.01-3.28.68-.94,1.61-1.67,2.8-2.19s2.57-.78,4.13-.78,2.97.26,4.13.79c1.16.53,2.05,1.27,2.69,2.24s.96,2.1.97,3.4h-5.09c-.04-.65-.29-1.16-.74-1.52-.45-.36-1.1-.55-1.95-.55-.54,0-.98.07-1.34.2-.36.13-.63.31-.81.55s-.27.5-.27.8c0,.32.09.59.28.82.18.23.48.43.88.59.4.17.92.32,1.54.45l1.61.33c1.09.23,2.02.52,2.81.89.79.36,1.43.79,1.93,1.29.5.5.87,1.06,1.1,1.68.23.63.35,1.32.35,2.07,0,1.31-.32,2.42-.96,3.33-.64.91-1.56,1.61-2.76,2.08-1.2.47-2.64.71-4.32.71Z"></path><path class="cls-13" d="M202.37,172.83v-4.37h16.95v4.37h-5.8v15.24h-5.34v-15.24h-5.8Z"></path><path class="cls-13" d="M242.33,188.07v-19.61h8.42c1.48,0,2.78.29,3.88.86,1.11.57,1.96,1.38,2.57,2.42.61,1.04.92,2.26.92,3.65s-.31,2.62-.93,3.64c-.62,1.02-1.5,1.81-2.63,2.37-1.13.56-2.44.84-3.94.84h-5.09v-4.21h4.16c.61,0,1.14-.11,1.57-.32.43-.21.77-.52,1.01-.91.24-.4.36-.86.36-1.4s-.12-1.02-.36-1.41-.57-.68-1.01-.89c-.43-.21-.96-.31-1.57-.31h-2v15.29h-5.36Z"></path><path class="cls-13" d="M259.96,188.07v-19.61h8.42c1.48,0,2.78.29,3.88.86,1.11.57,1.96,1.38,2.57,2.42.61,1.04.92,2.26.92,3.65s-.31,2.62-.93,3.64c-.62,1.02-1.5,1.81-2.63,2.37-1.13.56-2.44.84-3.94.84h-5.09v-4.21h4.16c.61,0,1.14-.11,1.57-.32.43-.21.77-.52,1.01-.91.24-.4.36-.86.36-1.4s-.12-1.02-.36-1.41-.57-.68-1.01-.89c-.43-.21-.96-.31-1.57-.31h-2v15.29h-5.36Z"></path><path class="cls-13" d="M274.42,188.07l6.41-19.61h7.28l6.61,19.61h-6.05l-2.26-7.61c-.48-1.65-.94-3.35-1.38-5.09s-.85-3.49-1.24-5.23h1.26c-.38,1.75-.76,3.49-1.16,5.23s-.83,3.44-1.32,5.09l-2.2,7.61h-5.95ZM279.17,184.42v-4.03h10.79v4.03h-10.79Z"></path><path class="cls-13" d="M304.32,188.34c-1.91,0-3.59-.41-5.04-1.22s-2.57-1.97-3.38-3.47-1.21-3.28-1.21-5.34c0-2.17.43-4,1.29-5.51.86-1.5,2.01-2.65,3.46-3.44,1.45-.79,3.05-1.18,4.82-1.18,1.17,0,2.25.16,3.26.49s1.9.8,2.69,1.41c.78.61,1.41,1.33,1.89,2.17s.77,1.75.86,2.75h-5.41c-.08-.34-.21-.65-.38-.91-.17-.27-.4-.49-.66-.68-.27-.18-.58-.32-.93-.42-.35-.1-.75-.14-1.19-.14-.89,0-1.64.21-2.28.63-.63.42-1.11,1.04-1.44,1.84-.33.81-.49,1.78-.49,2.92s.16,2.13.48,2.94c.32.81.79,1.43,1.42,1.86.62.43,1.4.65,2.32.65.8,0,1.47-.12,2-.35.54-.23.94-.56,1.2-.99.27-.43.4-.93.4-1.51l.97.11h-4.53v-3.82h8.74v2.74c0,1.77-.38,3.29-1.13,4.56-.75,1.27-1.8,2.24-3.14,2.92-1.34.68-2.87,1.01-4.6,1.01Z"></path><path class="cls-13" d="M315.34,188.07v-19.61h14.37v4.37h-9.02v3.24h8.28v4.24h-8.28v3.4h8.98v4.37h-14.33Z"></path><path class="cls-13" d="M340,188.32c-1.72,0-3.21-.25-4.48-.76-1.27-.51-2.25-1.29-2.93-2.33-.69-1.04-1.04-2.37-1.05-3.97h5.08c.04.58.19,1.07.46,1.48.27.41.65.72,1.14.92.49.21,1.07.31,1.74.31.57,0,1.05-.07,1.45-.21.39-.14.7-.34.91-.59.21-.25.32-.54.32-.88,0-.3-.1-.56-.3-.79s-.52-.43-.96-.62-1.03-.35-1.76-.49l-1.96-.41c-1.77-.37-3.16-1.01-4.15-1.92s-1.49-2.12-1.49-3.64c0-1.25.34-2.34,1.01-3.28.68-.94,1.61-1.67,2.8-2.19s2.57-.78,4.13-.78,2.97.26,4.13.79c1.16.53,2.05,1.27,2.69,2.24s.96,2.1.97,3.4h-5.09c-.04-.65-.29-1.16-.74-1.52-.45-.36-1.1-.55-1.95-.55-.54,0-.98.07-1.34.2-.36.13-.63.31-.81.55s-.27.5-.27.8c0,.32.09.59.28.82.18.23.48.43.88.59.4.17.92.32,1.54.45l1.61.33c1.09.23,2.02.52,2.81.89.79.36,1.43.79,1.93,1.29.5.5.87,1.06,1.1,1.68.23.63.35,1.32.35,2.07,0,1.31-.32,2.42-.96,3.33-.64.91-1.56,1.61-2.76,2.08-1.2.47-2.64.71-4.32.71Z"></path><g class="cls-10"><polygon class="cls-14" points="341.86 100.17 341.86 80.89 315.58 80.89 315.58 100.17 303.95 100.17 328.88 125.76 353.5 100.17 341.86 100.17"></polygon><path class="cls-12" d="M317.15,75.67h0c-.56,0-1.03-.47-1.03-1.03v-31.5c0-.56.47-1.03,1.03-1.03h0c.56,0,1.03.47,1.03,1.03v31.5c0,.56-.47,1.03-1.03,1.03Z"></path><path class="cls-15" d="M336.26,74.67h0c-.56,0-1.03-.47-1.03-1.03v-31.5c0-.56.47-1.03,1.03-1.03h0c.56,0,1.03.47,1.03,1.03v31.5c0,.56-.47,1.03-1.03,1.03Z"></path><path class="cls-26" d="M321.62,78.45h0c-.56,0-1.03-.47-1.03-1.03v-19.9c0-.56.47-1.03,1.03-1.03h0c.56,0,1.03.47,1.03,1.03v19.9c0,.56-.47,1.03-1.03,1.03Z"></path><path class="cls-22" d="M340.3,69.57h0c-.56,0-1.03-.47-1.03-1.03v-19.9c0-.56.47-1.03,1.03-1.03h0c.56,0,1.03.47,1.03,1.03v19.9c0,.56-.47,1.03-1.03,1.03Z"></path><path class="cls-18" d="M326.13,68.47h0c-.56,0-1.03-.47-1.03-1.03v-19.9c0-.56.47-1.03,1.03-1.03h0c.56,0,1.03.47,1.03,1.03v19.9c0,.56-.47,1.03-1.03,1.03Z"></path><path class="cls-23" d="M326.13,76.17h0c-.56,0-1.03-.47-1.03-1.03v-3.5c0-.56.47-1.03,1.03-1.03h0c.56,0,1.03.47,1.03,1.03v3.5c0,.56-.47,1.03-1.03,1.03Z"></path><path class="cls-5" d="M330.51,61.34h0c-.56,0-1.03-.47-1.03-1.03v-19.9c0-.56.47-1.03,1.03-1.03h0c.56,0,1.03.47,1.03,1.03v19.9c0,.56-.47,1.03-1.03,1.03Z"></path><path class="cls-24" d="M330.51,69.04h0c-.56,0-1.03-.47-1.03-1.03v-3.5c0-.56.47-1.03,1.03-1.03h0c.56,0,1.03.47,1.03,1.03v3.5c0,.56-.47,1.03-1.03,1.03Z"></path><path class="cls-6" d="M330.51,78.42h0c-.56,0-1.03-.47-1.03-1.03v-5.41c0-.56.47-1.03,1.03-1.03h0c.56,0,1.03.47,1.03,1.03v5.41c0,.56-.47,1.03-1.03,1.03Z"></path></g><g class="cls-10"><polygon class="cls-2" points="293.19 120.25 293.19 107.6 275.94 107.6 275.94 120.25 268.29 120.25 284.67 137.06 300.84 120.25 293.19 120.25"></polygon><path class="cls-19" d="M276.96,104.17h0c-.37,0-.68-.31-.68-.68v-20.69c0-.37.31-.68.68-.68h0c.37,0,.68.31.68.68v20.69c0,.37-.31.68-.68.68Z"></path><path class="cls-1" d="M289.52,103.51h0c-.37,0-.68-.31-.68-.68v-20.69c0-.37.31-.68.68-.68h0c.37,0,.68.31.68.68v20.69c0,.37-.31.68-.68.68Z"></path><path class="cls-28" d="M279.9,106h0c-.37,0-.68-.31-.68-.68v-13.07c0-.37.31-.68.68-.68h0c.37,0,.68.31.68.68v13.07c0,.37-.31.68-.68.68Z"></path><path class="cls-21" d="M292.17,100.16h0c-.37,0-.68-.31-.68-.68v-13.07c0-.37.31-.68.68-.68h0c.37,0,.68.31.68.68v13.07c0,.37-.31.68-.68.68Z"></path><path class="cls-30" d="M282.86,99.44h0c-.37,0-.68-.31-.68-.68v-13.07c0-.37.31-.68.68-.68h0c.37,0,.68.31.68.68v13.07c0,.37-.31.68-.68.68Z"></path><path class="cls-25" d="M282.86,104.5h0c-.37,0-.68-.31-.68-.68v-2.3c0-.37.31-.68.68-.68h0c.37,0,.68.31.68.68v2.3c0,.37-.31.68-.68.68Z"></path><path class="cls-20" d="M285.74,94.76h0c-.37,0-.68-.31-.68-.68v-13.07c0-.37.31-.68.68-.68h0c.37,0,.68.31.68.68v13.07c0,.37-.31.68-.68.68Z"></path><path class="cls-27" d="M285.74,99.81h0c-.37,0-.68-.31-.68-.68v-2.3c0-.37.31-.68.68-.68h0c.37,0,.68.31.68.68v2.3c0,.37-.31.68-.68.68Z"></path><path class="cls-16" d="M285.74,105.98h0c-.37,0-.68-.31-.68-.68v-3.55c0-.37.31-.68.68-.68h0c.37,0,.68.31.68.68v3.55c0,.37-.31.68-.68.68Z"></path></g></g></svg>