<svg xmlns="http://www.w3.org/2000/svg" xmlns:xlink="http://www.w3.org/1999/xlink" id="Layer_2" viewBox="0 0 420.71 363.1"><defs><style>.cls-1{stroke:#394767;stroke-dasharray:4 4;stroke-width:2px;}.cls-1,.cls-2{fill:none;}.cls-3{fill:#394767;}.cls-4{fill:url(#linear-gradient-2);}.cls-5{fill:#fff;}.cls-6{fill:#3a4869;}.cls-2{stroke:#3a4868;stroke-dasharray:3.84 3.84;stroke-width:1.92px;}.cls-7{fill:url(#linear-gradient);opacity:.19;}</style><linearGradient id="linear-gradient" x1="211.13" y1="263.94" x2="211.13" y2="361.49" gradientTransform="translate(0 546.59) scale(1 -1)" gradientUnits="userSpaceOnUse"><stop offset="0" stop-color="#6ac9cf"></stop><stop offset="1" stop-color="#214896"></stop></linearGradient><linearGradient id="linear-gradient-2" x1="76.55" y1="155.92" x2="346.96" y2="155.92" gradientUnits="userSpaceOnUse"><stop offset="0" stop-color="#67c9cf"></stop><stop offset="1" stop-color="#1f4695"></stop></linearGradient></defs><g id="Layer_1-2"><path class="cls-5" d="M0,9.66C0,4.32,4.3,0,9.61,0h401.5c5.3,0,9.61,4.32,9.61,9.66v343.77c0,5.34-4.3,9.66-9.61,9.66H9.61c-5.3,0-9.61-4.32-9.61-9.66V9.66Z"></path><path class="cls-2" d="M57.63,306.81h305.45"></path><path class="cls-7" d="M203.17,147.93l140.07-67.07v211.42H79.03v-54.56l98.39-44.77,25.74-45.02Z"></path><path class="cls-4" d="M345.78,77.67l-15.58-6.71c-.96-.41-2.04.1-2.41,1.15-.38,1.05.09,2.23,1.05,2.64l11.4,4.91-138.89,66.21.74,1.87h0l-.74-1.87-25.73,45.77-99.07,45.55,1.24,3.84,101.56-46.51,24.61-45.45,137.77-65.68-4.48,12.48c-.38,1.05.09,2.23,1.05,2.64.96.41,2.04-.1,2.41-1.15l6.13-17.06c.38-1.05-.09-2.23-1.05-2.64Z"></path><path class="cls-6" d="M107.27,336.41c-1.48,0-2.74-.32-3.8-.96-1.06-.64-1.88-1.53-2.45-2.68s-.85-2.47-.85-3.97.28-2.83.85-3.98,1.38-2.05,2.45-2.7c1.06-.65,2.33-.97,3.8-.97,1.78,0,3.25.44,4.38,1.33,1.14.89,1.85,2.14,2.13,3.75h-3.1c-.18-.79-.57-1.4-1.15-1.84-.58-.44-1.35-.66-2.29-.66-.87,0-1.62.21-2.25.62-.62.42-1.11,1-1.44,1.75s-.51,1.65-.51,2.71.17,1.94.51,2.7.82,1.34,1.44,1.75c.62.41,1.37.61,2.25.61.94,0,1.7-.21,2.28-.62.58-.42.96-.99,1.14-1.74h3.12c-.28,1.53-.99,2.73-2.13,3.6-1.14.87-2.6,1.31-4.38,1.31Z"></path><path class="cls-6" d="M116.14,336.16v-10.62h2.53l.27,1.96c.25-.46.57-.86.96-1.18.39-.32.83-.58,1.33-.76s1.05-.27,1.65-.27v3.01h-.97c-.42,0-.81.05-1.17.15-.36.1-.67.26-.94.47s-.47.52-.61.9c-.14.38-.21.86-.21,1.43v4.91h-2.84Z"></path><path class="cls-6" d="M128.72,336.41c-.86,0-1.59-.18-2.2-.54s-1.08-.89-1.4-1.58-.48-1.56-.48-2.58v-6.18h2.85v5.88c0,.86.18,1.5.54,1.94.36.44.91.65,1.66.65.48,0,.9-.11,1.26-.33.37-.22.66-.53.87-.95.22-.42.33-.92.33-1.53v-5.67h2.82v10.62h-2.49l-.23-1.73c-.31.6-.77,1.09-1.37,1.44-.6.36-1.32.54-2.15.54Z"></path><path class="cls-6" d="M142.09,336.41c-.97,0-1.81-.16-2.53-.46s-1.28-.74-1.69-1.29c-.41-.55-.64-1.17-.7-1.86h2.82c.07.27.19.51.36.73s.39.39.67.52c.28.13.62.19,1.01.19s.69-.05.93-.16.42-.25.54-.43c.12-.18.18-.37.18-.57,0-.29-.08-.52-.25-.69-.17-.16-.41-.29-.74-.39s-.72-.2-1.18-.29c-.51-.1-1-.22-1.49-.37-.48-.15-.92-.33-1.3-.56-.38-.22-.68-.51-.91-.86-.22-.35-.34-.79-.34-1.31,0-.63.17-1.2.51-1.7.34-.5.83-.9,1.47-1.19s1.43-.44,2.34-.44c1.28,0,2.29.29,3.04.86s1.19,1.37,1.33,2.38h-2.68c-.08-.32-.27-.58-.56-.77s-.67-.29-1.15-.29c-.51,0-.89.09-1.16.27-.27.18-.4.42-.4.72,0,.2.09.37.26.53.18.16.42.29.75.39s.72.21,1.18.31c.82.17,1.53.36,2.15.58.62.22,1.1.53,1.45.93.35.4.53.98.53,1.74,0,.67-.18,1.27-.55,1.8s-.88.94-1.55,1.23c-.67.29-1.46.44-2.37.44Z"></path><path class="cls-6" d="M148.96,336.16v-15.18h2.84v6.13c.35-.55.82-.99,1.4-1.33.58-.34,1.26-.51,2.03-.51.88,0,1.63.19,2.23.56.6.37,1.06.91,1.37,1.61.31.7.46,1.57.46,2.61v6.09h-2.82v-5.84c0-.84-.18-1.49-.53-1.95-.35-.46-.91-.69-1.67-.69-.46,0-.88.11-1.26.34-.38.22-.68.55-.9.98-.22.43-.33.94-.33,1.53v5.63h-2.84Z"></path><path class="cls-6" d="M167.08,336.41c-1.07,0-2.01-.23-2.83-.68-.82-.46-1.46-1.1-1.92-1.92-.46-.82-.69-1.77-.69-2.86s.22-2.09.67-2.94c.45-.85,1.08-1.52,1.91-2,.82-.48,1.77-.73,2.86-.73s1.97.23,2.76.7,1.4,1.09,1.83,1.88.65,1.68.65,2.68v.47c0,.18-.01.35-.04.54h-8.62v-1.73h5.8c-.04-.69-.29-1.23-.73-1.62-.44-.39-.99-.59-1.65-.59-.48,0-.92.11-1.33.33s-.73.55-.96,1c-.23.45-.35,1.02-.35,1.71v.61c0,.58.11,1.08.33,1.51s.52.76.92.99c.39.23.85.35,1.37.35s.95-.11,1.3-.34c.34-.22.6-.51.77-.86h2.91c-.2.66-.53,1.26-.99,1.79-.46.53-1.03.96-1.71,1.26-.67.31-1.43.46-2.25.46Z"></path><path class="cls-6" d="M174.67,336.16v-10.62h2.53l.27,1.96c.25-.46.57-.86.96-1.18.39-.32.83-.58,1.33-.76s1.05-.27,1.65-.27v3.01h-.97c-.42,0-.81.05-1.17.15-.36.1-.67.26-.94.47s-.47.52-.61.9c-.14.38-.21.86-.21,1.43v4.91h-2.84Z"></path><path class="cls-6" d="M188.25,340.79v-15.26h2.53l.32,1.48c.22-.31.49-.59.8-.85.31-.26.68-.47,1.11-.63.43-.16.93-.24,1.51-.24,1,0,1.88.25,2.63.74.76.49,1.36,1.16,1.8,1.99.44.84.66,1.79.66,2.86s-.22,2.02-.67,2.86c-.45.84-1.05,1.49-1.81,1.97s-1.62.72-2.59.72c-.79,0-1.47-.14-2.03-.43-.57-.29-1.04-.69-1.4-1.19v6.01h-2.84ZM193.85,333.92c.56,0,1.06-.13,1.49-.38.43-.25.76-.61,1-1.08.24-.46.36-1,.36-1.6s-.12-1.14-.36-1.61c-.24-.47-.57-.84-1-1.1-.43-.26-.92-.39-1.49-.39s-1.04.13-1.46.39-.77.62-1.01,1.08c-.25.46-.37,1-.37,1.6s.12,1.14.37,1.61c.25.47.58.83,1.01,1.09s.92.38,1.46.38Z"></path><path class="cls-6" d="M207.15,336.41c-1.07,0-2.01-.23-2.83-.68-.82-.46-1.46-1.1-1.92-1.92-.46-.82-.69-1.77-.69-2.86s.22-2.09.67-2.94c.45-.85,1.08-1.52,1.91-2,.82-.48,1.77-.73,2.86-.73s1.97.23,2.76.7,1.4,1.09,1.83,1.88.65,1.68.65,2.68v.47c0,.18-.01.35-.04.54h-8.62v-1.73h5.8c-.04-.69-.29-1.23-.73-1.62-.44-.39-.99-.59-1.65-.59-.48,0-.92.11-1.33.33s-.73.55-.96,1c-.23.45-.35,1.02-.35,1.71v.61c0,.58.11,1.08.33,1.51s.52.76.92.99c.39.23.85.35,1.37.35s.95-.11,1.3-.34c.34-.22.6-.51.77-.86h2.91c-.2.66-.53,1.26-.99,1.79-.46.53-1.03.96-1.71,1.26-.67.31-1.43.46-2.25.46Z"></path><path class="cls-6" d="M214.74,336.16v-10.62h2.53l.27,1.96c.25-.46.57-.86.96-1.18.39-.32.83-.58,1.33-.76s1.05-.27,1.65-.27v3.01h-.97c-.42,0-.81.05-1.17.15-.36.1-.67.26-.94.47s-.47.52-.61.9c-.14.38-.21.86-.21,1.43v4.91h-2.84Z"></path><path class="cls-6" d="M222.39,327.91v-2.38h6.6v2.38h-6.6ZM223.85,336.16v-11.57c0-.88.15-1.59.44-2.11.29-.52.72-.9,1.28-1.14.55-.24,1.21-.36,1.95-.36h1.31v2.42h-.89c-.45,0-.77.09-.96.26s-.28.48-.28.92v11.57h-2.85Z"></path><path class="cls-6" d="M235.78,336.41c-1.01,0-1.92-.24-2.73-.71-.81-.47-1.45-1.12-1.92-1.96s-.71-1.79-.71-2.88.24-2.08.71-2.92,1.11-1.49,1.93-1.96,1.73-.71,2.74-.71,1.94.24,2.75.71c.81.47,1.45,1.12,1.92,1.96s.71,1.8.71,2.9-.24,2.06-.71,2.9-1.11,1.49-1.93,1.96c-.82.47-1.74.71-2.76.71ZM235.78,333.94c.48,0,.9-.11,1.28-.34.37-.22.67-.57.89-1.03s.33-1.04.33-1.73-.11-1.26-.33-1.72-.51-.8-.89-1.03c-.37-.23-.79-.35-1.25-.35s-.86.12-1.24.35c-.38.23-.68.58-.9,1.03s-.33,1.03-.33,1.72.11,1.26.33,1.73.51.81.89,1.03c.37.23.78.34,1.23.34Z"></path><path class="cls-6" d="M243.62,336.16v-10.62h2.53l.27,1.96c.25-.46.57-.86.96-1.18.39-.32.83-.58,1.33-.76s1.05-.27,1.65-.27v3.01h-.97c-.42,0-.81.05-1.17.15-.36.1-.67.26-.94.47s-.47.52-.61.9c-.14.38-.21.86-.21,1.43v4.91h-2.84Z"></path><path class="cls-6" d="M252.24,336.16v-10.62h2.51l.23,1.41c.34-.51.78-.91,1.34-1.21.55-.3,1.19-.45,1.91-.45.53,0,1.01.07,1.43.21s.8.34,1.13.61c.33.27.6.6.81,1.01.39-.58.91-1.03,1.54-1.35.63-.32,1.32-.48,2.07-.48.93,0,1.7.19,2.32.56.62.37,1.08.91,1.4,1.61.32.7.47,1.57.47,2.59v6.11h-2.82v-5.86c0-.84-.17-1.49-.5-1.94-.33-.45-.84-.67-1.53-.67-.45,0-.85.11-1.2.34s-.62.55-.81.97c-.19.42-.28.93-.28,1.52v5.65h-2.85v-5.86c0-.84-.17-1.49-.51-1.94-.34-.45-.86-.67-1.56-.67-.44,0-.83.11-1.17.34-.34.22-.61.55-.8.97-.19.42-.29.93-.29,1.52v5.65h-2.84Z"></path><path class="cls-6" d="M275.66,336.41c-.89,0-1.62-.14-2.19-.43-.58-.29-1-.67-1.28-1.16-.27-.48-.41-1.02-.41-1.61,0-.65.17-1.21.5-1.71.33-.49.83-.88,1.5-1.16.67-.28,1.51-.42,2.52-.42h2.63c0-.52-.07-.95-.21-1.3s-.36-.6-.65-.77c-.29-.17-.69-.25-1.18-.25-.53,0-.99.12-1.36.35-.37.23-.6.59-.68,1.06h-2.76c.07-.76.32-1.42.75-1.97.43-.55,1-.99,1.71-1.3.71-.31,1.5-.46,2.37-.46,1,0,1.86.17,2.59.51.73.34,1.29.82,1.69,1.45.39.63.59,1.41.59,2.34v6.58h-2.4l-.32-1.62c-.16.28-.34.53-.55.76-.21.22-.46.42-.74.59-.28.17-.6.3-.95.39-.35.09-.74.14-1.16.14ZM276.33,334.22c.37,0,.69-.07.98-.2.29-.13.54-.32.75-.55.21-.23.38-.5.5-.8.12-.3.2-.63.24-.98v-.02h-2.17c-.44,0-.79.05-1.06.16-.27.1-.47.26-.6.45-.13.2-.19.42-.19.67,0,.28.06.51.19.7.13.18.31.32.55.42.24.1.51.15.82.15Z"></path><path class="cls-6" d="M284.42,336.16v-10.62h2.51l.21,1.73c.32-.59.78-1.07,1.38-1.43.6-.37,1.31-.55,2.14-.55.89,0,1.63.18,2.23.55s1.06.9,1.38,1.6c.32.7.47,1.57.47,2.59v6.13h-2.83v-5.86c0-.84-.18-1.49-.54-1.94-.36-.45-.91-.67-1.65-.67-.48,0-.9.11-1.28.34-.37.22-.66.54-.88.96-.21.41-.32.92-.32,1.51v5.67h-2.84Z"></path><path class="cls-6" d="M302.57,336.41c-1.07,0-2.02-.24-2.85-.72s-1.48-1.13-1.94-1.96c-.46-.83-.7-1.78-.7-2.85s.23-2.06.7-2.9c.46-.84,1.11-1.5,1.94-1.98.83-.48,1.78-.73,2.85-.73,1.36,0,2.51.36,3.44,1.08.93.72,1.52,1.7,1.77,2.95h-3.01c-.13-.49-.39-.88-.79-1.16s-.87-.42-1.42-.42c-.49,0-.93.12-1.32.37-.39.25-.69.6-.91,1.08s-.33,1.03-.33,1.68c0,.49.06.93.19,1.32.13.39.3.72.53.99.22.27.5.48.81.62.32.14.66.21,1.02.21s.7-.06,1-.19c.3-.13.56-.31.77-.54.21-.23.36-.52.44-.85h3.01c-.25,1.22-.85,2.2-1.78,2.92-.93.72-2.08,1.09-3.42,1.09Z"></path><path class="cls-6" d="M315.32,336.41c-1.07,0-2.01-.23-2.83-.68-.82-.46-1.46-1.1-1.92-1.92-.46-.82-.69-1.77-.69-2.86s.22-2.09.67-2.94c.45-.85,1.08-1.52,1.91-2,.82-.48,1.77-.73,2.86-.73s1.97.23,2.76.7,1.4,1.09,1.83,1.88.65,1.68.65,2.68v.47c0,.18-.01.35-.04.54h-8.62v-1.73h5.8c-.04-.69-.29-1.23-.73-1.62-.44-.39-.99-.59-1.65-.59-.48,0-.92.11-1.33.33s-.73.55-.96,1c-.23.45-.35,1.02-.35,1.71v.61c0,.58.11,1.08.33,1.51s.52.76.92.99c.39.23.85.35,1.37.35s.95-.11,1.3-.34c.34-.22.6-.51.77-.86h2.91c-.2.66-.53,1.26-.99,1.79-.46.53-1.03.96-1.71,1.26-.67.31-1.43.46-2.25.46Z"></path><path class="cls-3" d="M44.41,284.53c-1.15,0-2.14-.29-2.97-.87-.83-.6-1.47-1.42-1.92-2.47-.45-1.06-.68-2.29-.68-3.69s.23-2.62.68-3.67c.45-1.06,1.09-1.89,1.9-2.47.83-.6,1.82-.89,2.97-.89s2.14.3,2.95.89c.83.58,1.46,1.41,1.9,2.47.45,1.05.68,2.27.68,3.67s-.23,2.63-.68,3.69c-.44,1.05-1.08,1.87-1.9,2.47-.82.58-1.79.87-2.94.87ZM44.39,283.09c.74,0,1.39-.22,1.96-.66.58-.45,1.04-1.1,1.38-1.92.35-.84.52-1.85.52-3.01s-.17-2.18-.52-3.01c-.34-.83-.8-1.46-1.38-1.9-.57-.44-1.22-.66-1.96-.66s-1.41.22-2,.66c-.58.44-1.04,1.08-1.38,1.9-.34.83-.51,1.83-.51,3.01s.17,2.17.51,3.01c.34.83.8,1.47,1.38,1.92.6.44,1.26.66,2,.66Z"></path><path class="cls-3" d="M39.15,229.52v-1.15c.96-.73,1.86-1.46,2.7-2.2s1.59-1.47,2.24-2.2c.66-.74,1.18-1.46,1.56-2.16.38-.7.56-1.37.56-2.02,0-.48-.09-.92-.27-1.32-.17-.42-.44-.75-.82-1.01s-.88-.39-1.52-.39-1.14.14-1.56.41c-.4.26-.71.61-.91,1.05-.21.43-.31.9-.31,1.42h-1.57c.01-.89.21-1.66.58-2.29.38-.65.89-1.14,1.54-1.48.66-.34,1.41-.51,2.25-.51s1.54.16,2.18.47c.63.3,1.13.75,1.5,1.36.36.6.54,1.34.54,2.24,0,.63-.14,1.27-.41,1.9-.26.63-.62,1.26-1.07,1.87-.44.6-.93,1.17-1.48,1.73-.54.56-1.11,1.08-1.69,1.57-.57.49-1.11.94-1.63,1.34h6.75v1.36h-9.16ZM55.26,229.75c-.91,0-1.7-.16-2.37-.49-.67-.34-1.21-.78-1.59-1.34-.39-.57-.63-1.21-.72-1.92h1.59c.14.7.48,1.27,1.01,1.71.54.43,1.24.64,2.1.64.64,0,1.18-.15,1.63-.45.45-.3.8-.7,1.05-1.21.26-.52.39-1.1.39-1.73s-.12-1.22-.37-1.71c-.25-.49-.6-.87-1.05-1.15-.44-.28-.96-.43-1.56-.43-.73,0-1.35.15-1.87.45-.51.3-.89.67-1.15,1.13h-1.59l1.07-7.35h7.25v1.42h-5.99l-.74,4.22c.32-.36.76-.66,1.3-.89.54-.23,1.17-.35,1.89-.35.66,0,1.26.12,1.79.35.53.23.99.56,1.38.99.39.43.69.93.89,1.5.21.56.31,1.16.31,1.81s-.11,1.26-.33,1.85c-.21.58-.51,1.1-.91,1.54-.4.44-.89.79-1.46,1.05-.57.25-1.22.37-1.96.37Z"></path><path class="cls-3" d="M43.91,174.97c-.91,0-1.7-.16-2.37-.49-.67-.34-1.21-.78-1.59-1.34-.39-.57-.63-1.21-.72-1.92h1.59c.14.7.48,1.27,1.01,1.71.54.43,1.24.64,2.1.64.63,0,1.18-.15,1.63-.45s.8-.7,1.05-1.21c.26-.52.39-1.1.39-1.73s-.12-1.22-.37-1.71c-.25-.49-.6-.87-1.05-1.15-.44-.29-.96-.43-1.56-.43-.73,0-1.35.15-1.87.45-.51.3-.89.67-1.15,1.13h-1.59l1.07-7.35h7.25v1.42h-5.99l-.74,4.22c.32-.36.76-.66,1.3-.89.54-.23,1.17-.35,1.89-.35.66,0,1.26.12,1.79.35.53.23.99.56,1.38.99.39.43.69.93.89,1.5.21.56.31,1.16.31,1.81s-.11,1.26-.33,1.85c-.21.58-.51,1.1-.91,1.54-.4.44-.89.79-1.46,1.05-.57.25-1.22.37-1.96.37ZM56.24,174.97c-1.15,0-2.14-.29-2.97-.87-.83-.6-1.47-1.42-1.92-2.47-.45-1.06-.68-2.29-.68-3.69s.23-2.62.68-3.67c.45-1.06,1.09-1.89,1.9-2.47.83-.6,1.82-.89,2.97-.89s2.14.3,2.95.89c.83.58,1.46,1.41,1.9,2.47.45,1.05.68,2.27.68,3.67s-.23,2.63-.68,3.69c-.44,1.05-1.08,1.87-1.9,2.47-.82.58-1.79.87-2.94.87ZM56.22,173.53c.74,0,1.39-.22,1.96-.66.58-.45,1.04-1.1,1.38-1.92.35-.84.52-1.85.52-3.01s-.17-2.18-.52-3.01c-.34-.83-.8-1.46-1.38-1.9-.57-.44-1.22-.66-1.96-.66s-1.41.22-2,.66c-.58.44-1.04,1.08-1.38,1.9-.34.83-.51,1.83-.51,3.01s.17,2.17.51,3.01c.34.83.8,1.47,1.38,1.92.6.44,1.26.66,2,.66Z"></path><path class="cls-3" d="M40.8,119.95l5.11-12.21h-7.46v-1.4h9.14v1.22l-5.05,12.38h-1.73ZM53.78,120.19c-.91,0-1.7-.16-2.37-.49-.67-.34-1.21-.78-1.59-1.34-.39-.57-.63-1.21-.72-1.92h1.59c.14.7.48,1.27,1.01,1.71.54.43,1.24.64,2.1.64.64,0,1.18-.15,1.63-.45.45-.3.8-.7,1.05-1.21.26-.52.39-1.1.39-1.73s-.12-1.22-.37-1.71c-.25-.49-.6-.87-1.05-1.15-.44-.29-.96-.43-1.56-.43-.73,0-1.35.15-1.87.45-.51.3-.89.67-1.15,1.13h-1.59l1.07-7.35h7.25v1.42h-5.99l-.74,4.22c.32-.36.76-.66,1.3-.89.54-.23,1.17-.35,1.89-.35.66,0,1.26.12,1.79.35.53.23.99.56,1.38.99.39.43.69.93.89,1.5.21.56.31,1.16.31,1.81s-.11,1.26-.33,1.85c-.21.58-.51,1.1-.91,1.54-.4.44-.89.79-1.46,1.05-.57.25-1.22.37-1.96.37Z"></path><path class="cls-3" d="M41.19,65.17v-11.78l-2.62.78v-1.24l3.17-1.36h1.11v13.61h-1.65ZM50.83,65.41c-1.15,0-2.14-.29-2.97-.87-.83-.6-1.47-1.42-1.92-2.47-.45-1.06-.68-2.29-.68-3.69s.23-2.62.68-3.67c.45-1.06,1.09-1.89,1.9-2.47.83-.6,1.82-.89,2.97-.89s2.14.3,2.95.89c.83.58,1.46,1.41,1.9,2.47.45,1.05.68,2.27.68,3.67s-.23,2.63-.68,3.69c-.44,1.05-1.08,1.87-1.9,2.47-.82.58-1.79.87-2.94.87ZM50.81,63.97c.74,0,1.39-.22,1.96-.66.58-.45,1.04-1.1,1.38-1.92.35-.84.52-1.85.52-3.01s-.17-2.18-.52-3.01c-.34-.83-.8-1.46-1.38-1.9-.57-.44-1.22-.66-1.96-.66s-1.41.22-2,.66c-.58.44-1.04,1.08-1.38,1.9-.34.83-.51,1.83-.51,3.01s.17,2.17.51,3.01c.34.83.8,1.47,1.38,1.92.6.44,1.26.66,2,.66ZM63.8,65.41c-1.15,0-2.14-.29-2.97-.87-.83-.6-1.47-1.42-1.92-2.47-.45-1.06-.68-2.29-.68-3.69s.23-2.62.68-3.67c.45-1.06,1.09-1.89,1.9-2.47.83-.6,1.82-.89,2.97-.89s2.14.3,2.95.89c.83.58,1.46,1.41,1.9,2.47.45,1.05.68,2.27.68,3.67s-.23,2.63-.68,3.69c-.44,1.05-1.08,1.87-1.9,2.47-.82.58-1.79.87-2.94.87ZM63.78,63.97c.74,0,1.39-.22,1.96-.66.58-.45,1.04-1.1,1.38-1.92.35-.84.52-1.85.52-3.01s-.17-2.18-.52-3.01c-.34-.83-.8-1.46-1.38-1.9-.57-.44-1.22-.66-1.96-.66s-1.41.22-2,.66c-.58.44-1.04,1.08-1.38,1.9-.34.83-.51,1.83-.51,3.01s.17,2.17.51,3.01c.34.83.8,1.47,1.38,1.92.6.44,1.26.66,2,.66Z"></path><path class="cls-3" d="M156.62,52.79h115.5c3.57,0,6.46,2.16,6.46,4.83v15.34c0,2.67-2.89,4.83-6.46,4.83h-115.5c-3.57,0-6.46-2.16-6.46-4.83v-15.34c0-2.67,2.89-4.83,6.46-4.83Z"></path><path class="cls-1" d="M214.37,129.85v-56.31"></path><path class="cls-5" d="M164.84,67.92c-.6,0-1.14-.14-1.6-.41-.46-.27-.82-.65-1.08-1.13-.26-.48-.39-1.04-.39-1.67s.13-1.19.39-1.67c.26-.48.62-.86,1.08-1.13.46-.27.99-.41,1.6-.41s1.14.14,1.61.41c.46.27.82.65,1.08,1.13.26.48.39,1.04.39,1.67s-.13,1.19-.39,1.67c-.26.48-.62.86-1.08,1.13-.46.27-1,.41-1.61.41ZM164.84,66.85c.38,0,.71-.09.98-.26s.49-.42.64-.74c.15-.32.23-.7.23-1.14s-.08-.82-.23-1.14c-.15-.32-.37-.56-.64-.73-.28-.17-.6-.26-.98-.26s-.7.09-.98.26c-.28.17-.49.42-.65.73-.15.32-.23.7-.23,1.14s.08.82.23,1.14c.15.32.37.57.65.74.28.17.6.26.98.26Z"></path><path class="cls-5" d="M168.9,69.77v-6.42h1.06l.13.62c.09-.13.21-.25.34-.36.13-.11.29-.2.47-.27.18-.07.39-.1.63-.1.42,0,.79.1,1.11.31s.57.49.76.84.28.75.28,1.2-.09.85-.28,1.2c-.19.35-.44.63-.76.83s-.68.3-1.09.3c-.33,0-.62-.06-.86-.18-.24-.12-.44-.29-.59-.5v2.53h-1.2ZM171.26,66.88c.24,0,.45-.05.62-.16.18-.11.32-.26.42-.45.1-.2.15-.42.15-.67s-.05-.48-.15-.68-.24-.35-.42-.46c-.18-.11-.39-.16-.62-.16s-.44.05-.62.16c-.18.11-.32.26-.43.46s-.16.42-.16.67.05.48.16.68.25.35.43.46c.18.11.39.16.62.16Z"></path><path class="cls-5" d="M176.55,67.82c-.31,0-.59-.05-.82-.15s-.42-.26-.55-.49c-.13-.23-.2-.54-.2-.94v-1.9h-.76v-1h.76l.13-1.22h1.07v1.22h1.18v1h-1.18v1.92c0,.2.04.34.13.42.09.08.24.12.45.12h.58v1.02h-.81Z"></path><path class="cls-5" d="M179.01,62.73c-.21,0-.39-.06-.53-.19s-.21-.29-.21-.48.07-.36.21-.48c.14-.13.32-.19.53-.19s.4.06.54.19c.14.13.21.29.21.48s-.07.36-.21.48c-.14.13-.32.19-.54.19ZM178.41,67.82v-4.47h1.2v4.47h-1.2Z"></path><path class="cls-5" d="M180.81,67.82v-4.47h1.06l.1.59c.14-.21.33-.38.56-.51.23-.13.5-.19.8-.19.23,0,.43.03.6.09.18.06.34.15.47.26.14.11.25.25.34.43.17-.24.38-.43.65-.57.27-.14.56-.2.87-.2.39,0,.72.08.98.23.26.16.46.38.59.68.13.3.2.66.2,1.09v2.57h-1.19v-2.47c0-.35-.07-.63-.21-.82s-.35-.28-.64-.28c-.19,0-.36.05-.51.14-.15.09-.26.23-.34.41-.08.18-.12.39-.12.64v2.38h-1.2v-2.47c0-.35-.07-.63-.21-.82-.14-.19-.36-.28-.66-.28-.18,0-.35.05-.49.14-.14.09-.26.23-.34.41s-.12.39-.12.64v2.38h-1.2Z"></path><path class="cls-5" d="M189.79,62.73c-.21,0-.39-.06-.53-.19s-.21-.29-.21-.48.07-.36.21-.48c.14-.13.32-.19.53-.19s.4.06.54.19c.14.13.21.29.21.48s-.07.36-.21.48c-.14.13-.32.19-.54.19ZM189.19,67.82v-4.47h1.2v4.47h-1.2Z"></path><path class="cls-5" d="M191.3,67.82v-.96l2.25-2.52h-2.23v-.99h3.6v.97l-2.27,2.51h2.32v.99h-3.67Z"></path><path class="cls-5" d="M198.09,67.92c-.45,0-.85-.1-1.19-.29-.35-.19-.62-.46-.81-.81-.19-.35-.29-.75-.29-1.2s.09-.88.28-1.24.46-.64.8-.84c.35-.2.75-.31,1.2-.31s.83.1,1.16.29.59.46.77.79c.18.33.27.71.27,1.13v.2c0,.07,0,.15-.02.23h-3.63v-.73h2.44c-.02-.29-.12-.52-.31-.68-.19-.17-.42-.25-.7-.25-.2,0-.39.05-.56.14-.17.09-.31.23-.4.42-.1.19-.15.43-.15.72v.26c0,.24.05.45.14.63.09.18.22.32.39.42s.36.15.58.15.4-.05.54-.14c.15-.09.25-.22.32-.36h1.22c-.08.28-.22.53-.42.75s-.43.4-.72.53c-.28.13-.6.2-.95.2Z"></path><path class="cls-5" d="M203.27,67.92c-.41,0-.77-.1-1.1-.3s-.58-.48-.76-.83-.28-.75-.28-1.2.09-.86.28-1.21c.19-.35.44-.63.77-.83.33-.2.7-.31,1.1-.31.32,0,.6.06.84.18.24.12.44.29.58.51v-2.49h1.2v6.39h-1.06l-.13-.61c-.09.12-.2.24-.33.35-.13.11-.29.2-.48.27-.18.06-.4.1-.65.1ZM203.56,66.88c.24,0,.45-.05.63-.16.18-.11.32-.26.42-.46.1-.19.15-.42.15-.67s-.05-.48-.15-.67-.24-.35-.42-.46c-.18-.11-.39-.16-.63-.16s-.43.05-.61.16c-.18.11-.33.26-.43.46s-.16.42-.16.67.05.49.16.68c.1.2.25.35.43.46.18.11.39.16.62.16Z"></path><path class="cls-5" d="M211.27,69.77v-6.42h1.06l.13.62c.09-.13.21-.25.34-.36.13-.11.29-.2.47-.27.18-.07.39-.1.63-.1.42,0,.79.1,1.11.31s.57.49.76.84.28.75.28,1.2-.09.85-.28,1.2c-.19.35-.44.63-.76.83s-.68.3-1.09.3c-.33,0-.62-.06-.86-.18-.24-.12-.44-.29-.59-.5v2.53h-1.2ZM213.63,66.88c.24,0,.45-.05.62-.16.18-.11.32-.26.42-.45.1-.2.15-.42.15-.67s-.05-.48-.15-.68-.24-.35-.42-.46c-.18-.11-.39-.16-.62-.16s-.44.05-.62.16c-.18.11-.32.26-.43.46s-.16.42-.16.67.05.48.16.68.25.35.43.46c.18.11.39.16.62.16Z"></path><path class="cls-5" d="M219.23,67.92c-.45,0-.85-.1-1.19-.29-.35-.19-.62-.46-.81-.81-.19-.35-.29-.75-.29-1.2s.09-.88.28-1.24.46-.64.8-.84c.35-.2.75-.31,1.2-.31s.83.1,1.16.29.59.46.77.79c.18.33.27.71.27,1.13v.2c0,.07,0,.15-.02.23h-3.63v-.73h2.44c-.02-.29-.12-.52-.31-.68-.19-.17-.42-.25-.7-.25-.2,0-.39.05-.56.14-.17.09-.31.23-.4.42-.1.19-.15.43-.15.72v.26c0,.24.05.45.14.63.09.18.22.32.39.42s.36.15.58.15.4-.05.54-.14c.15-.09.25-.22.32-.36h1.22c-.08.28-.22.53-.42.75s-.43.4-.72.53c-.28.13-.6.2-.95.2Z"></path><path class="cls-5" d="M222.42,67.82v-4.47h1.06l.12.83c.11-.2.24-.36.4-.5.16-.14.35-.24.56-.32.21-.08.44-.12.7-.12v1.27h-.41c-.18,0-.34.02-.49.06-.15.04-.28.11-.39.2-.11.09-.2.22-.26.38-.06.16-.09.36-.09.6v2.07h-1.2Z"></path><path class="cls-5" d="M225.64,64.35v-1h2.78v1h-2.78ZM226.25,67.82v-4.87c0-.37.06-.67.19-.89.12-.22.3-.38.54-.48.23-.1.51-.15.82-.15h.55v1.02h-.37c-.19,0-.32.04-.4.11-.08.07-.12.2-.12.39v4.87h-1.2Z"></path><path class="cls-5" d="M231.28,67.92c-.43,0-.81-.1-1.15-.3-.34-.2-.61-.47-.81-.83s-.3-.76-.3-1.21.1-.88.3-1.23c.2-.35.47-.63.81-.83.34-.2.73-.3,1.15-.3s.82.1,1.16.3c.34.2.61.47.81.83.2.35.3.76.3,1.22s-.1.87-.3,1.22-.47.63-.81.83c-.34.2-.73.3-1.16.3ZM231.28,66.89c.2,0,.38-.05.54-.14.16-.09.28-.24.37-.43.09-.2.14-.44.14-.73s-.05-.53-.14-.72c-.09-.19-.22-.34-.37-.43-.16-.1-.33-.15-.53-.15s-.36.05-.52.15c-.16.1-.29.24-.38.43-.09.19-.14.43-.14.72s.05.53.14.73c.09.19.22.34.37.43.16.09.33.14.52.14Z"></path><path class="cls-5" d="M234.58,67.82v-4.47h1.06l.12.83c.11-.2.24-.36.4-.5.16-.14.35-.24.56-.32.21-.08.44-.12.7-.12v1.27h-.41c-.18,0-.34.02-.49.06-.15.04-.28.11-.39.2-.11.09-.2.22-.26.38-.06.16-.09.36-.09.6v2.07h-1.2Z"></path><path class="cls-5" d="M238.21,67.82v-4.47h1.06l.1.59c.14-.21.33-.38.56-.51.23-.13.5-.19.8-.19.23,0,.43.03.6.09.18.06.34.15.47.26.14.11.25.25.34.43.17-.24.38-.43.65-.57.27-.14.56-.2.87-.2.39,0,.72.08.98.23.26.16.46.38.59.68.13.3.2.66.2,1.09v2.57h-1.19v-2.47c0-.35-.07-.63-.21-.82s-.35-.28-.64-.28c-.19,0-.36.05-.51.14-.15.09-.26.23-.34.41-.08.18-.12.39-.12.64v2.38h-1.2v-2.47c0-.35-.07-.63-.21-.82-.14-.19-.36-.28-.66-.28-.18,0-.35.05-.49.14-.14.09-.26.23-.34.41s-.12.39-.12.64v2.38h-1.2Z"></path><path class="cls-5" d="M248.06,67.92c-.37,0-.68-.06-.92-.18-.24-.12-.42-.28-.54-.49s-.17-.43-.17-.68c0-.27.07-.51.21-.72s.35-.37.63-.49c.28-.12.63-.18,1.06-.18h1.11c0-.22-.03-.4-.09-.55s-.15-.25-.28-.32c-.12-.07-.29-.11-.5-.11-.22,0-.42.05-.57.15-.16.1-.25.25-.29.45h-1.16c.03-.32.13-.6.31-.83.18-.23.42-.42.72-.55.3-.13.63-.19,1-.19.42,0,.78.07,1.09.21.31.14.54.35.71.61.17.27.25.59.25.98v2.77h-1.01l-.13-.68c-.06.12-.14.22-.23.32s-.19.18-.31.25c-.12.07-.25.13-.4.16-.15.04-.31.06-.49.06ZM248.35,67c.15,0,.29-.03.41-.08.12-.06.23-.13.31-.23s.16-.21.21-.34c.05-.13.08-.26.1-.41h0s-.91,0-.91,0c-.18,0-.33.02-.45.07-.12.04-.2.11-.25.19-.05.08-.08.18-.08.28,0,.12.03.22.08.29.05.08.13.14.23.18s.22.06.35.06Z"></path><path class="cls-5" d="M251.76,67.82v-4.47h1.06l.09.73c.14-.25.33-.45.58-.6.25-.15.55-.23.9-.23.37,0,.69.08.94.23.25.15.45.38.58.67.13.3.2.66.2,1.09v2.58h-1.19v-2.47c0-.35-.08-.63-.23-.82-.15-.19-.38-.28-.7-.28-.2,0-.38.05-.54.14-.16.09-.28.23-.37.4s-.13.39-.13.63v2.39h-1.2Z"></path><path class="cls-5" d="M259.4,67.92c-.45,0-.85-.1-1.2-.3-.35-.2-.62-.48-.82-.83s-.29-.75-.29-1.2.1-.87.29-1.22.47-.63.82-.83c.35-.2.75-.31,1.2-.31.57,0,1.06.15,1.45.45s.64.72.75,1.24h-1.27c-.05-.21-.16-.37-.33-.49-.17-.12-.37-.18-.6-.18-.21,0-.39.05-.55.16-.16.1-.29.25-.38.45s-.14.43-.14.71c0,.21.03.39.08.55.05.16.13.3.22.42.09.12.21.2.34.26.13.06.28.09.43.09s.29-.03.42-.08c.13-.05.24-.13.32-.23s.15-.22.19-.36h1.27c-.11.51-.36.92-.75,1.23-.39.3-.87.46-1.44.46Z"></path><path class="cls-5" d="M264.77,67.92c-.45,0-.85-.1-1.19-.29-.35-.19-.62-.46-.81-.81-.19-.35-.29-.75-.29-1.2s.09-.88.28-1.24.46-.64.8-.84c.35-.2.75-.31,1.2-.31s.83.1,1.16.29.59.46.77.79c.18.33.27.71.27,1.13v.2c0,.07,0,.15-.02.23h-3.63v-.73h2.44c-.02-.29-.12-.52-.31-.68-.19-.17-.42-.25-.7-.25-.2,0-.39.05-.56.14-.17.09-.31.23-.4.42-.1.19-.15.43-.15.72v.26c0,.24.05.45.14.63.09.18.22.32.39.42s.36.15.58.15.4-.05.54-.14c.15-.09.25-.22.32-.36h1.22c-.08.28-.22.53-.42.75s-.43.4-.72.53c-.28.13-.6.2-.95.2Z"></path></g></svg>