<?xml version="1.0" encoding="utf-8"?>
<!-- Generator: Adobe Illustrator 24.1.1, SVG Export Plug-In . SVG Version: 6.00 Build 0)  -->
<svg version="1.1" id="Layer_1" xmlns="http://www.w3.org/2000/svg" xmlns:xlink="http://www.w3.org/1999/xlink" x="0px" y="0px"
	 viewBox="0 0 512 512" style="enable-background:new 0 0 512 512;" xml:space="preserve">
<style type="text/css">
	.st0{fill:#FABC3D;}
	.st1{fill:#F1F2F2;}
	.st2{fill:#F7B4B4;}
	.st3{fill:#FBC8C8;}
	.st4{fill:#FBD7D7;}
	.st5{fill:#692E19;}
	.st6{fill:#84462D;}
	.st7{fill:#3E3E3F;}
	.st8{fill:#FFFFFF;}
	.st9{fill:#099686;}
	.st10{fill:#12B2A0;}
</style>
<g id="XMLID_1_">
	<circle id="XMLID_3_" class="st0" cx="256" cy="256" r="256"/>
	<polygon id="XMLID_4_" class="st1" points="256,404.9 200.1,316.7 311.9,316.7 	"/>
	<path id="XMLID_5_" class="st2" d="M274.9,316.7H256h-18.9l-27.6-17.3v15c0,0,0,34.7,46.5,34.7s46.5-34.7,46.5-34.7v-15
		L274.9,316.7z"/>
	<path id="XMLID_6_" class="st3" d="M334.8,219.8c0-5.5-4.7-10.2-9.5-10.2s-4.7,5.5-4.7,5.5v-5.5c0-41.7-4.7-70.1-65.4-70.1
		s-65.4,27.6-65.4,70.1v37l18.9,46.5l23.6,18.9c2.4,3.2,6.3,4.7,10.2,4.7H256h12.6c3.9,0,7.9-1.6,10.2-4.7l23.6-18.9l15-37
		C330.8,255.2,334.8,234.7,334.8,219.8z"/>
	<path id="XMLID_7_" class="st4" d="M190.6,209.5v5.5c0,0,0-5.5-4.7-5.5c-4.7,0-8.7,4.7-8.7,10.2c0,15,4.7,35.4,17.3,36.2l15,37
		l23.6,18.9c2.4,3.2,6.3,4.7,10.2,4.7H256V139.4C195.3,139.4,190.6,167.8,190.6,209.5z"/>
	<polygon id="XMLID_8_" class="st3" points="223.7,279.6 223.7,279.6 219,279.6 219,279.6 	"/>
	<path id="XMLID_9_" class="st3" d="M256,316.7h-18.9l-27.6-17.3v15c0,0,0,34.7,46.5,34.7V316.7z"/>
	<path id="XMLID_12_" class="st5" d="M315.9,159.9c0.8-1.6,0.8-3.9,0.8-5.5c0-13.4-3.9-22.1-60.7-22.8l0,0c-3.2,0-6.3,0-9.5,0
		c-58.3,0-60.7,37-60.7,44.9c0,0.8,0,1.6,0,1.6s0,23.6,0,32.3l0,0c0,0,4.7,9.5,9.5,18.9v32.3l4.7,32.3l37,23.6H256h18.9l37-23.6
		l4.7-32.3v-32.3l0,0l9.5-18.9v-23.6C326.1,177.2,322.2,167.8,315.9,159.9z M293,279.6h-4.7l-8.7-28.4H256h-23.6l-8.7,28.4H219
		l-14.2-27.6v-76.4c15.8,10.2,31.5,11,51.2,11l0,0c11.8,0,37,0,51.2-12.6v78L293,279.6z"/>
	<path id="XMLID_13_" class="st6" d="M256,186.7v-55.9c-3.2,0-6.3,0-9.5,0c-65.4,0-60.7,46.5-60.7,46.5s0,23.6,0,33.1
		c0,0,4.7,9.5,9.5,18.9v32.3l4.7,32.3l37,23.6H256v-65.4h-23.6l-8.7,27.6H219l-14.2-27.6v-76.4C215,182,222.9,186.7,256,186.7z"/>
	<path id="XMLID_14_" class="st7" d="M241.8,219c0-5.5-3.9-9.5-9.5-9.5l0,0l0,0c0,5.5-3.9,9.5-9.5,9.5c0,4.7,3.9,8.7,9.5,8.7
		C237.9,228.4,241.8,223.7,241.8,219z"/>
	<path id="XMLID_15_" class="st7" d="M288.3,219c0-5.5-3.9-9.5-9.5-9.5l0,0l0,0c0,5.5-3.9,9.5-9.5,9.5c0,4.7,3.9,8.7,9.5,8.7
		C284.4,228.4,288.3,223.7,288.3,219z"/>
	<polygon id="XMLID_16_" class="st8" points="200.1,316.7 209.5,311.9 256,334.8 228.4,363.1 	"/>
	<polygon id="XMLID_17_" class="st8" points="311.9,316.7 302.5,311.9 256,334.8 283.6,363.1 	"/>
	<polygon id="XMLID_18_" class="st9" points="274.9,404.9 261.5,357.6 270.2,348.9 256,334.8 241.8,348.9 250.5,357.6 237.1,404.9 	
		"/>
	<polygon id="XMLID_19_" class="st10" points="256,404.9 256,334.8 256,334.8 241.8,348.9 250.5,357.6 237.1,404.9 	"/>
	<path id="XMLID_20_" class="st7" d="M107.1,404.9l18.9-51.2c3.2-6.3,7.9-11,14.2-14.2l60.7-23.6l55.1,89H107.1z"/>
	<path id="XMLID_21_" class="st7" d="M404.9,404.9L386,353.7c-3.2-6.3-7.9-11-14.2-14.2l-60.7-23.6l-55.1,89H404.9z"/>
	<rect id="XMLID_22_" x="307.2" y="372.6" class="st8" width="46.5" height="9.5"/>
	<path id="XMLID_23_" class="st3" d="M237.1,265.5h37c0,0,0,18.9-18.9,18.9S237.1,265.5,237.1,265.5z"/>
</g>
</svg>
